<svg width="13" height="13" viewBox="0 0 13 13" fill="none" xmlns="http://www.w3.org/2000/svg">
<path d="M6.75303 8.33804C6.75303 8.60463 6.53691 8.82076 6.27031 8.82076C6.00371 8.82076 5.78759 8.60463 5.78759 8.33804C5.78759 8.07144 6.00371 7.85531 6.27031 7.85531C6.53691 7.85531 6.75303 8.07144 6.75303 8.33804Z" fill="black" fill-opacity="0.75"/>
<path d="M6.63235 3.99354C6.63235 3.79359 6.47026 3.6315 6.27031 3.6315C6.07036 3.6315 5.90827 3.79359 5.90827 3.99354V6.88987C5.90827 7.08982 6.07036 7.25191 6.27031 7.25191C6.47026 7.25191 6.63235 7.08982 6.63235 6.88987V3.99354Z" fill="black" fill-opacity="0.75"/>
<path fill-rule="evenodd" clip-rule="evenodd" d="M6.27031 1.2179C3.40436 1.2179 1.08105 3.5412 1.08105 6.40715C1.08105 9.2731 3.40436 11.5964 6.27031 11.5964C9.13626 11.5964 11.4596 9.2731 11.4596 6.40715C11.4596 3.5412 9.13626 1.2179 6.27031 1.2179ZM1.80514 6.40715C1.80514 3.9411 3.80426 1.94198 6.27031 1.94198C8.73636 1.94198 10.7355 3.9411 10.7355 6.40715C10.7355 8.8732 8.73636 10.8723 6.27031 10.8723C3.80426 10.8723 1.80514 8.8732 1.80514 6.40715Z" fill="black" fill-opacity="0.75"/>
</svg>
