<svg width="50" height="49" viewBox="0 0 50 49" fill="none" xmlns="http://www.w3.org/2000/svg">
<rect x="1.23375" y="0.37144" width="48.0297" height="48.0297" rx="7.77946" fill="white" fill-opacity="0.12"/>
<rect x="1.23375" y="0.37144" width="48.0297" height="48.0297" rx="7.77946" stroke="url(#paint0_radial_3295_14199)" stroke-width="0.676475"/>
<g clip-path="url(#clip0_3295_14199)">
<path d="M26.6281 8.78366C26.6281 8.50731 26.5183 8.24229 26.3229 8.04688C26.1275 7.85148 25.8624 7.7417 25.5861 7.7417C25.3098 7.7417 25.0447 7.85148 24.8493 8.04688C24.6539 8.24229 24.5441 8.50731 24.5441 8.78366V10.2424H18.2924C17.3528 10.2424 16.4517 10.6156 15.7873 11.28C15.123 11.9444 14.7497 12.8455 14.7497 13.7851V20.8704C14.7497 21.81 15.123 22.711 15.7873 23.3754C16.4517 24.0398 17.3528 24.413 18.2924 24.413H32.8798C33.8194 24.413 34.7205 24.0398 35.3848 23.3754C36.0492 22.711 36.4225 21.81 36.4225 20.8704V13.7851C36.4225 12.8455 36.0492 11.9444 35.3848 11.28C34.7205 10.6156 33.8194 10.2424 32.8798 10.2424H26.6281V8.78366ZM21.4183 19.4116C20.8656 19.4116 20.3355 19.1921 19.9447 18.8013C19.5539 18.4105 19.3343 17.8804 19.3343 17.3277C19.3343 16.775 19.5539 16.245 19.9447 15.8542C20.3355 15.4634 20.8656 15.2438 21.4183 15.2438C21.9709 15.2438 22.501 15.4634 22.8918 15.8542C23.2826 16.245 23.5022 16.775 23.5022 17.3277C23.5022 17.8804 23.2826 18.4105 22.8918 18.8013C22.501 19.1921 21.9709 19.4116 21.4183 19.4116ZM31.8378 17.3277C31.8378 17.8804 31.6183 18.4105 31.2275 18.8013C30.8367 19.1921 30.3066 19.4116 29.7539 19.4116C29.2012 19.4116 28.6712 19.1921 28.2804 18.8013C27.8896 18.4105 27.67 17.8804 27.67 17.3277C27.67 16.775 27.8896 16.245 28.2804 15.8542C28.6712 15.4634 29.2012 15.2438 29.7539 15.2438C30.3066 15.2438 30.8367 15.4634 31.2275 15.8542C31.6183 16.245 31.8378 16.775 31.8378 17.3277ZM12.249 31.29C12.249 30.3504 12.6223 29.4493 13.2866 28.7849C13.951 28.1206 14.8521 27.7473 15.7917 27.7473H35.3805C36.3201 27.7473 37.2212 28.1206 37.8855 28.7849C38.5499 29.4493 38.9232 30.3504 38.9232 31.29V32.1652C38.9232 34.7943 37.6436 37.0733 35.3088 38.6545C33.0048 40.215 29.7039 41.0844 25.5861 41.0844C21.4683 41.0844 18.1673 40.215 15.8634 38.6545C13.5285 37.0733 12.249 34.7943 12.249 32.1652V31.29Z" fill="url(#paint1_linear_3295_14199)"/>
</g>
<defs>
<radialGradient id="paint0_radial_3295_14199" cx="0" cy="0" r="1" gradientUnits="userSpaceOnUse" gradientTransform="translate(25.2486 24.3863) rotate(90) scale(27.7355 649.628)">
<stop stop-color="white"/>
<stop offset="1" stop-color="#01041A"/>
</radialGradient>
<linearGradient id="paint1_linear_3295_14199" x1="47.4669" y1="41.136" x2="11.3443" y2="7.74171" gradientUnits="userSpaceOnUse">
<stop stop-color="#007AFF"/>
<stop offset="1" stop-color="#81F0FF"/>
</linearGradient>
<clipPath id="clip0_3295_14199">
<rect width="35.1767" height="35.1767" fill="white" transform="translate(7.66016 6.79785)"/>
</clipPath>
</defs>
</svg>
