<svg width="50" height="49" viewBox="0 0 50 49" fill="none" xmlns="http://www.w3.org/2000/svg">
<rect x="0.88023" y="0.37144" width="48.0297" height="48.0297" rx="7.77946" fill="white" fill-opacity="0.12"/>
<rect x="0.88023" y="0.37144" width="48.0297" height="48.0297" rx="7.77946" stroke="url(#paint0_radial_3295_14206)" stroke-width="0.676475"/>
<path fill-rule="evenodd" clip-rule="evenodd" d="M15.8424 27.5762C16.1247 28.2016 16.1787 28.9061 15.995 29.5671C15.8114 30.2282 15.4016 30.8038 14.8372 31.1939C14.2728 31.5839 13.5895 31.7637 12.9062 31.7018C12.2229 31.6399 11.583 31.3403 11.0978 30.8551C10.6127 30.37 10.3131 29.7301 10.2512 29.0468C10.1893 28.3635 10.369 27.6802 10.7591 27.1158C11.1492 26.5513 11.7248 26.1416 12.3859 25.9579C13.0469 25.7743 13.7514 25.8283 14.3767 26.1105L17.827 22.6603C17.6255 22.2138 17.5392 21.724 17.5757 21.2356C17.6123 20.7472 17.7708 20.2757 18.0365 19.8642C18.3022 19.4528 18.6668 19.1145 19.097 18.8802C19.5271 18.646 20.0091 18.5232 20.4989 18.5232C20.9887 18.5232 21.4707 18.646 21.9009 18.8802C22.3311 19.1145 22.6957 19.4528 22.9614 19.8642C23.2271 20.2757 23.3855 20.7472 23.4221 21.2356C23.4587 21.724 23.3724 22.2138 23.1709 22.6603L26.6212 26.1105C27.0003 25.9394 27.4115 25.8509 27.8274 25.8509C28.2434 25.8509 28.6546 25.9394 29.0337 26.1105L33.9496 21.1946C33.6673 20.5693 33.6133 19.8648 33.797 19.2037C33.9807 18.5427 34.3904 17.967 34.9548 17.577C35.5192 17.1869 36.2026 17.0072 36.8859 17.0691C37.5692 17.131 38.2091 17.4306 38.6942 17.9157C39.1793 18.4008 39.4789 19.0408 39.5408 19.7241C39.6027 20.4073 39.423 21.0907 39.033 21.6551C38.6429 22.2195 38.0672 22.6292 37.4062 22.8129C36.7452 22.9966 36.0406 22.9426 35.4153 22.6603L30.4994 27.5762C30.7008 28.0227 30.7872 28.5125 30.7506 29.001C30.714 29.4894 30.5556 29.9609 30.2899 30.3723C30.0241 30.7838 29.6595 31.1221 29.2294 31.3563C28.7992 31.5906 28.3172 31.7133 27.8274 31.7133C27.3376 31.7133 26.8556 31.5906 26.4255 31.3563C25.9953 31.1221 25.6307 30.7838 25.365 30.3723C25.0992 29.9609 24.9408 29.4894 24.9042 29.001C24.8676 28.5125 24.954 28.0227 25.1555 27.5762L21.7052 24.126C21.3261 24.2972 20.9149 24.3857 20.4989 24.3857C20.083 24.3857 19.6718 24.2972 19.2927 24.126L15.8424 27.5762Z" fill="url(#paint1_linear_3295_14206)"/>
<defs>
<radialGradient id="paint0_radial_3295_14206" cx="0" cy="0" r="1" gradientUnits="userSpaceOnUse" gradientTransform="translate(24.8951 24.3863) rotate(90) scale(27.7355 649.628)">
<stop stop-color="white"/>
<stop offset="1" stop-color="#01041A"/>
</radialGradient>
<linearGradient id="paint1_linear_3295_14206" x1="37.4217" y1="28.9869" x2="9.24501" y2="17.0571" gradientUnits="userSpaceOnUse">
<stop stop-color="#4C73FF"/>
<stop offset="1" stop-color="#81F0FF"/>
</linearGradient>
</defs>
</svg>
