<svg width="24" height="25" viewBox="0 0 24 25" fill="none" xmlns="http://www.w3.org/2000/svg">
<path d="M17.2315 7.26856V4.65284L12 2.03711L6.76856 4.65284V5.9607L1.53711 8.57643V15.1157L17.2315 22.9629L22.4629 20.3472V9.88429L17.2315 7.26856ZM6.76856 16.2667L2.84497 14.3049V9.98892L6.76856 11.9899V16.2667ZM6.76856 10.5251L3.70816 8.95571L6.76856 7.42551V10.5251ZM12 18.8824L8.07643 16.9206V6.05225L12 8.06636V18.8824ZM8.93962 5.03212L12 3.50192L15.0604 5.03212L12 6.60155L8.93962 5.03212ZM17.2315 21.4981L13.3079 19.5363V11.2837L17.2315 13.2978V21.4981ZM17.2315 11.833L14.1711 10.2636L17.2315 8.73337L20.2919 10.2636L17.2315 11.833Z" fill="url(#paint0_linear_461_358)"/>
<defs>
<linearGradient id="paint0_linear_461_358" x1="3.77916" y1="3.15814" x2="19.2867" y2="22.4024" gradientUnits="userSpaceOnUse">
<stop stop-color="#3FADFF"/>
<stop offset="0.49489" stop-color="#336CDC"/>
<stop offset="1" stop-color="#47B4B4"/>
</linearGradient>
</defs>
</svg>
