<svg width="34" height="34" viewBox="0 0 34 34" fill="none" xmlns="http://www.w3.org/2000/svg">
<path d="M30.3344 3.69849H3.66563C2.97566 3.70004 2.31436 4.00479 1.82649 4.546C1.33861 5.08722 1.0639 5.82082 1.0625 6.58622V10.8353V27.4133C1.0639 28.1787 1.33861 28.9123 1.82649 29.4535C2.31436 29.9947 2.97566 30.2994 3.66563 30.301H30.3344C31.0243 30.2994 31.6856 29.9947 32.1735 29.4535C32.6614 28.9123 32.9361 28.1787 32.9375 27.4133V6.58622C32.9361 5.82082 32.6614 5.08722 32.1735 4.546C31.6856 4.00479 31.0243 3.70004 30.3344 3.69849ZM3.4 7.47611C3.42565 7.40429 3.46561 7.33982 3.51688 7.28753C3.53968 7.25755 3.56657 7.2317 3.59656 7.21091L3.68688 7.15787L3.78781 7.12251C3.85646 7.11068 3.92635 7.11068 3.995 7.12251L4.09594 7.15787L4.18625 7.21091L4.26594 7.28753C4.36488 7.39795 4.42042 7.54731 4.42042 7.70301C4.42042 7.8587 4.36488 8.00807 4.26594 8.11849C4.2178 8.17679 4.15765 8.22127 4.09062 8.24814C4.02703 8.27932 3.95828 8.29542 3.88875 8.29542C3.81923 8.29542 3.75047 8.27932 3.68688 8.24814C3.55922 8.18481 3.45708 8.07151 3.4 7.9299C3.37278 7.85905 3.35834 7.78297 3.3575 7.70595C3.35764 7.62695 3.37209 7.54879 3.4 7.47611ZM10.795 7.70595C10.7958 7.78257 10.7832 7.85864 10.7578 7.9299C10.7303 8.00063 10.6906 8.0647 10.6409 8.11849C10.5928 8.17679 10.5326 8.22127 10.4656 8.24814C10.4014 8.27632 10.3328 8.29033 10.2638 8.28939C10.1947 8.29033 10.1261 8.27632 10.0619 8.24814C9.99622 8.21834 9.93661 8.17426 9.88656 8.11849C9.78842 8.00872 9.73309 7.86056 9.7325 7.70595C9.73383 7.62709 9.74823 7.54918 9.775 7.47611C9.80089 7.40587 9.83878 7.34183 9.88656 7.28753L9.97156 7.21091L10.0619 7.15787L10.1628 7.12251C10.2315 7.11068 10.3013 7.11068 10.37 7.12251L10.4656 7.15787L10.5612 7.21091L10.6409 7.28753C10.6888 7.343 10.7283 7.40668 10.7578 7.47611C10.783 7.54949 10.7956 7.62744 10.795 7.70595ZM7.6075 7.70595C7.60835 7.78257 7.59571 7.85864 7.57031 7.9299C7.54284 8.00063 7.50313 8.0647 7.45344 8.11849C7.4053 8.17679 7.34515 8.22127 7.27812 8.24814C7.21389 8.27632 7.14532 8.29033 7.07625 8.28939C6.93688 8.28874 6.80333 8.22736 6.70437 8.11849C6.60428 8.00968 6.547 7.8614 6.545 7.70595C6.54514 7.62695 6.55959 7.54879 6.5875 7.47611C6.61315 7.40429 6.65311 7.33982 6.70437 7.28753C6.7657 7.21854 6.84142 7.16739 6.92481 7.13861C7.00821 7.10983 7.09672 7.1043 7.1825 7.12251L7.27812 7.15787L7.37375 7.21091L7.45344 7.28753C7.50129 7.343 7.54076 7.40668 7.57031 7.47611C7.5955 7.54949 7.60811 7.62744 7.6075 7.70595ZM31.875 27.4133C31.875 27.8665 31.7127 28.3012 31.4238 28.6218C31.1348 28.9423 30.743 29.1223 30.3344 29.1223H3.66563C3.25703 29.1223 2.86516 28.9423 2.57624 28.6218C2.28732 28.3012 2.125 27.8665 2.125 27.4133V11.4305H31.875V27.4133Z" fill="#407AFF"/>
<path d="M15.2998 20.9956H18.5829V25.6513H15.2998V20.9956Z" fill="#407AFF"/>
<path d="M20.8499 19.1865H24.133V25.6515H20.8499V19.1865Z" fill="#6D6D6D"/>
<path d="M26.3994 16.7524H29.6825V25.6514H26.3994V16.7524Z" fill="#407AFF"/>
<path d="M4.02686 14.2363H6.68311C6.824 14.2363 6.95913 14.1742 7.05876 14.0637C7.15838 13.9532 7.21436 13.8033 7.21436 13.647C7.21436 13.4906 7.15838 13.3408 7.05876 13.2302C6.95913 13.1197 6.824 13.0576 6.68311 13.0576H4.02686C3.88596 13.0576 3.75083 13.1197 3.65121 13.2302C3.55158 13.3408 3.49561 13.4906 3.49561 13.647C3.49561 13.8033 3.55158 13.9532 3.65121 14.0637C3.75083 14.1742 3.88596 14.2363 4.02686 14.2363Z" fill="#407AFF"/>
<path d="M4.02686 17.0883H13.8125C13.9534 17.0883 14.0885 17.0262 14.1881 16.9157C14.2878 16.8052 14.3437 16.6553 14.3437 16.499C14.3437 16.3427 14.2878 16.1928 14.1881 16.0823C14.0885 15.9718 13.9534 15.9097 13.8125 15.9097H4.02686C3.88596 15.9097 3.75083 15.9718 3.65121 16.0823C3.55158 16.1928 3.49561 16.3427 3.49561 16.499C3.49561 16.6553 3.55158 16.8052 3.65121 16.9157C3.75083 17.0262 3.88596 17.0883 4.02686 17.0883Z" fill="#838383"/>
<path d="M4.02686 19.9467H6.68311C6.824 19.9467 6.95913 19.8846 7.05876 19.7741C7.15838 19.6636 7.21436 19.5137 7.21436 19.3574C7.21436 19.2011 7.15838 19.0512 7.05876 18.9407C6.95913 18.8302 6.824 18.7681 6.68311 18.7681H4.02686C3.88596 18.7681 3.75083 18.8302 3.65121 18.9407C3.55158 19.0512 3.49561 19.2011 3.49561 19.3574C3.49561 19.5137 3.55158 19.6636 3.65121 19.7741C3.75083 19.8846 3.88596 19.9467 4.02686 19.9467Z" fill="#838383"/>
<path d="M9.29672 18.7681H8.70703C8.56613 18.7681 8.43101 18.8302 8.33138 18.9407C8.23175 19.0512 8.17578 19.2011 8.17578 19.3574C8.17578 19.5137 8.23175 19.6636 8.33138 19.7741C8.43101 19.8846 8.56613 19.9467 8.70703 19.9467H9.29672C9.43761 19.9467 9.57274 19.8846 9.67237 19.7741C9.772 19.6636 9.82797 19.5137 9.82797 19.3574C9.82797 19.2011 9.772 19.0512 9.67237 18.9407C9.57274 18.8302 9.43761 18.7681 9.29672 18.7681Z" fill="#838383"/>
</svg>
