<svg width="14" height="8" viewBox="0 0 14 8" fill="none" xmlns="http://www.w3.org/2000/svg">
<path d="M0.0179625 6.7293C0.118122 6.42601 0.580412 5.98282 0.524223 5.39068C0.468035 4.79876 -0.0274162 3.44645 0.101175 2.86924C0.229768 2.29202 0.874584 0.594975 2.54177 0.338321C4.20823 0.0817753 5.40514 0.507641 6.04433 0.480312C6.68306 0.452877 6.79927 -0.00587923 7.50534 5.71122e-05C8.41674 0.0080792 8.57366 0.367415 9.21802 0.560159C9.6905 0.701615 11.1703 0.699904 11.1703 0.699904C11.1703 0.699904 11.5937 0.175152 11.7227 0.367415C11.8518 0.559785 12.0175 1.04967 12.0175 1.04967C12.0175 1.04967 12.8096 1.31199 12.8829 1.45227C12.9564 1.59255 13.0571 1.82 13.0571 1.82C13.0571 1.82 13.896 2.02948 13.988 2.22185C14.0799 2.41412 13.6194 2.86875 13.4722 3.02663C13.325 3.18445 11.6123 3.219 11.3409 3.40896C11.0695 3.59919 10.3097 3.74193 9.88536 3.81114C9.08898 3.94136 8.73896 5.44406 8.53655 7.10607C8.77606 7.29876 9.19955 7.46937 9.22247 8H6.6262C6.6262 8 6.59169 7.64574 6.54766 7.20704C6.50431 6.76834 5.71896 5.10777 5.71896 5.10777C5.71896 5.10777 5.14835 5.52765 4.76139 5.54567C4.79776 5.87784 4.6346 6.23124 4.6346 6.23124C4.6346 6.23124 4.3004 6.6125 3.97554 6.91424C4.57025 7.1472 4.55291 7.55809 4.55291 7.55809L2.349 7.57435C2.349 7.57435 2.12813 7.13736 2.12813 6.78717C1.83277 7.18988 1.26216 7.34722 1.26216 7.34722L1.61708 8H0.270361C0.269516 7.99957 -0.0822535 7.03232 0.0179625 6.7293ZM12.3964 1.9114C12.4933 1.9114 12.5713 1.83679 12.5713 1.74518C12.5713 1.65378 12.4933 1.57886 12.3964 1.57886C12.3001 1.57886 12.2213 1.65335 12.2213 1.74518C12.2213 1.83765 12.3005 1.9114 12.3964 1.9114Z" fill="white"/>
</svg>
