<svg width="17" height="10" viewBox="0 0 17 10" fill="none" xmlns="http://www.w3.org/2000/svg">
<path d="M16.0816 8.11999C15.9729 7.77329 15.4709 7.26665 15.5319 6.58975C15.5929 5.9131 16.1309 4.36721 15.9913 3.70737C15.8516 3.04753 15.1514 1.10756 13.3411 0.814168C11.5315 0.520899 10.2318 1.00773 9.53774 0.976485C8.84415 0.945122 8.71797 0.420697 7.95126 0.427483C6.96159 0.436653 6.7912 0.847427 6.0915 1.06776C5.57844 1.22947 3.97154 1.22751 3.97154 1.22751C3.97154 1.22751 3.5118 0.627642 3.37168 0.847427C3.23155 1.06733 3.05157 1.62734 3.05157 1.62734C3.05157 1.62734 2.19151 1.92721 2.11185 2.08757C2.03213 2.24793 1.92269 2.50794 1.92269 2.50794C1.92269 2.50794 1.01183 2.74741 0.911929 2.96732C0.812094 3.1871 1.31213 3.70682 1.472 3.88729C1.63187 4.06771 3.49163 4.1072 3.78636 4.32436C4.08098 4.54182 4.90607 4.70499 5.36685 4.7841C6.23162 4.93297 6.61171 6.65077 6.83149 8.55069C6.57142 8.77097 6.11155 8.96599 6.08667 9.57258H8.9059C8.9059 9.57258 8.94337 9.16762 8.99118 8.66612C9.03826 8.16462 9.89104 6.26634 9.89104 6.26634C9.89104 6.26634 10.5107 6.74632 10.9308 6.76693C10.8914 7.14664 11.0685 7.55063 11.0685 7.55063C11.0685 7.55063 11.4314 7.98647 11.7842 8.3314C11.1384 8.59771 11.1572 9.06742 11.1572 9.06742L13.5504 9.086C13.5504 9.086 13.7902 8.58646 13.7902 8.18614C14.111 8.64649 14.7306 8.82636 14.7306 8.82636L14.3452 9.57258H15.8075C15.8085 9.57209 16.1904 8.46639 16.0816 8.11999ZM2.64018 2.61242C2.53497 2.61242 2.45023 2.52714 2.45023 2.42241C2.45023 2.31793 2.53497 2.23228 2.64018 2.23228C2.74479 2.23228 2.83032 2.31744 2.83032 2.42241C2.83032 2.52812 2.7443 2.61242 2.64018 2.61242Z" fill="#FF1D1D"/>
</svg>
