<svg width="43" height="43" viewBox="0 0 43 43" fill="none" xmlns="http://www.w3.org/2000/svg">
<rect x="0.122192" y="0.122223" width="42" height="42" rx="21" fill="url(#paint0_linear_1_3880)"/>
<g clip-path="url(#clip0_1_3880)">
<circle cx="21.3055" cy="21.3055" r="18.2947" fill="url(#paint1_linear_1_3880)"/>
<path d="M18.1194 23.3114H16.4966C16.3845 23.3114 16.277 23.356 16.1978 23.4352C16.1185 23.5145 16.074 23.622 16.074 23.734V28.3826C16.074 28.4947 16.0295 28.6022 15.9502 28.6814C15.871 28.7607 15.7635 28.8052 15.6514 28.8052H12.2706C12.1586 28.8052 12.0511 28.7607 11.9718 28.6814C11.8926 28.6022 11.848 28.4947 11.848 28.3826V23.734C11.848 23.622 11.8035 23.5145 11.7243 23.4352C11.645 23.356 11.5375 23.3114 11.4254 23.3114H9.80437C9.70775 23.3137 9.61271 23.2867 9.53177 23.2338C9.45083 23.181 9.38778 23.105 9.35092 23.0156C9.31356 22.9293 9.30305 22.8337 9.32076 22.7413C9.33847 22.6489 9.38358 22.5639 9.45023 22.4975L13.6166 18.3814C13.7088 18.291 13.8328 18.2404 13.9619 18.2404C14.091 18.2404 14.2149 18.291 14.3071 18.3814L18.187 22.2127V23.303C18.1646 23.3072 18.142 23.31 18.1194 23.3114ZM23.2581 17.8177V28.3826C23.2581 28.4947 23.2136 28.6022 23.1343 28.6814C23.0551 28.7607 22.9476 28.8052 22.8355 28.8052H19.4548C19.3427 28.8052 19.2352 28.7607 19.1559 28.6814C19.0767 28.6022 19.0322 28.4947 19.0322 28.3826V17.8177C19.0322 17.7056 18.9876 17.5981 18.9084 17.5189C18.8291 17.4396 18.7216 17.3951 18.6096 17.3951H16.9881C16.8915 17.3972 16.7966 17.3701 16.7158 17.3173C16.6349 17.2645 16.5719 17.1885 16.535 17.0993C16.4975 17.0127 16.4869 16.9169 16.5047 16.8242C16.5225 16.7315 16.5679 16.6464 16.6348 16.5799L20.7982 12.4647C20.8912 12.3753 21.0151 12.3254 21.1441 12.3254C21.273 12.3254 21.397 12.3753 21.49 12.4647L25.6517 16.5782C25.7197 16.6448 25.766 16.7304 25.7845 16.8238C25.803 16.9171 25.7928 17.0139 25.7552 17.1014C25.7184 17.1906 25.6554 17.2666 25.5745 17.3194C25.4937 17.3722 25.3987 17.3993 25.3022 17.3972H23.6807C23.569 17.3972 23.4618 17.4414 23.3826 17.5202C23.3034 17.599 23.2587 17.706 23.2581 17.8177ZM32.9389 23.0156C32.9022 23.1049 32.8393 23.1809 32.7585 23.2338C32.6777 23.2866 32.5828 23.3136 32.4863 23.3114H30.8648C30.7528 23.3114 30.6453 23.356 30.566 23.4352C30.4868 23.5145 30.4422 23.622 30.4422 23.734V28.3826C30.4422 28.4947 30.3977 28.6022 30.3185 28.6814C30.2392 28.7607 30.1317 28.8052 30.0196 28.8052H26.6389C26.5268 28.8052 26.4193 28.7607 26.3401 28.6814C26.2608 28.6022 26.2163 28.4947 26.2163 28.3826V23.734C26.2163 23.622 26.1718 23.5145 26.0925 23.4352C26.0133 23.356 25.9058 23.3114 25.7937 23.3114H24.1709C24.1482 23.31 24.1257 23.3072 24.1033 23.303V22.2127L27.9836 18.3806C28.0757 18.2904 28.1995 18.2398 28.3284 18.2398C28.4574 18.2398 28.5812 18.2904 28.6733 18.3806L32.8358 22.4929C32.9039 22.5593 32.9502 22.6449 32.9686 22.7382C32.987 22.8316 32.9767 22.9283 32.9389 23.0156Z" fill="white"/>
</g>
<defs>
<linearGradient id="paint0_linear_1_3880" x1="-51.665" y1="-5.68569" x2="67.3971" y2="41.7456" gradientUnits="userSpaceOnUse">
<stop stop-color="#3F72FF"/>
<stop offset="0.49489" stop-color="#0036B2"/>
<stop offset="1" stop-color="#47B4B4"/>
</linearGradient>
<linearGradient id="paint1_linear_1_3880" x1="62.7093" y1="42.9703" x2="-8.42338" y2="5.29768" gradientUnits="userSpaceOnUse">
<stop stop-color="#3F72FF"/>
<stop offset="0.49489" stop-color="#0036B2"/>
<stop offset="1" stop-color="#47B4B4"/>
</linearGradient>
<clipPath id="clip0_1_3880">
<rect x="3.0108" y="3.01084" width="36.5894" height="36.5894" rx="18.2947" fill="white"/>
</clipPath>
</defs>
</svg>
