<svg width="34" height="35" viewBox="0 0 34 35" fill="none" xmlns="http://www.w3.org/2000/svg">
<path d="M5.6665 16.0664C5.0797 16.0664 4.604 16.5421 4.604 17.1289C4.604 17.7157 5.0797 18.1914 5.6665 18.1914V16.0664ZM26.2511 17.8802C26.6661 17.4653 26.6661 16.7925 26.2511 16.3776L19.4894 9.6159C19.0745 9.20096 18.4018 9.20096 17.9868 9.6159C17.5719 10.0308 17.5719 10.7036 17.9868 11.1185L23.9972 17.1289L17.9868 23.1393C17.5719 23.5542 17.5719 24.227 17.9868 24.6419C18.4018 25.0568 19.0745 25.0568 19.4894 24.6419L26.2511 17.8802ZM5.6665 17.1289V18.1914H25.4998V17.1289V16.0664H5.6665V17.1289Z" fill="black"/>
</svg>
