<svg width="16" height="12" viewBox="0 0 16 12" fill="none" xmlns="http://www.w3.org/2000/svg">
<path d="M1.60799 7.384L2.51314 6.85257C2.51314 6.85257 2.29349 6.42503 2.22641 5.89136C0.34499 7.17051 0.398992 3.97529 0.398992 3.97529L0.728429 4.50719C0.74562 6.67795 2.03861 5.61181 2.21164 5.45934C2.26051 4.73282 2.71916 3.97025 4.36952 3.84739C4.36952 3.84739 5.56768 3.72555 6.69071 2.55226C6.69071 2.55226 9.96602 -1.55353 12.9226 2.20974C12.9226 2.20974 13.6432 3.05257 13.8022 3.51683C13.8022 3.51683 14.8778 3.39509 15.4392 4.28716C15.4392 4.28716 14.682 4.06704 14.5477 4.20102C14.5477 4.20102 15.6593 4.72638 15.5988 5.83857C15.5988 5.83857 14.8538 4.75076 14.1201 4.83644C14.1201 4.83644 13.9978 5.28845 13.7659 5.60612V6.04589C13.7659 6.04589 13.7782 6.30217 12.9598 6.35113C12.9598 6.35113 12.5687 6.31441 12.5198 5.28789C12.5198 5.28789 12.4219 4.84812 11.9944 5.09281C11.9944 5.09281 10.8076 6.07046 11.9944 6.47324C12.5175 6.65066 14.0717 6.75428 13.9251 7.54853L12.7149 7.96373C12.7149 7.96373 12.7755 7.52396 12.4464 7.24348C12.4464 7.24348 11.2861 7.38409 10.6993 7.23666C10.6993 7.23666 12.6415 7.87843 12.4774 9.03276H11.1945C11.1945 9.03276 11.5063 8.26364 10.7548 8.20843C10.7548 8.20843 9.34387 7.73231 8.64697 6.3942C8.64697 6.3942 6.66745 6.06458 4.78033 8.29999C4.78033 8.29999 4.59721 9.25344 5.88011 9.6381C5.88011 9.6381 7.05323 9.91343 7.05323 10.8652H5.69689C5.69689 10.8652 6.08211 10.2058 5.20133 10.1695C5.20133 10.1695 3.14931 9.96753 3.35019 9.36276C3.35019 9.36276 3.29497 8.62998 2.92798 8.62998C2.92798 8.62998 2.03029 8.77611 1.51708 10.6456C1.51708 10.6456 2.04898 10.9386 2.04898 11.3784H0.710303C0.710303 11.3784 0.0873079 10.1319 1.42542 8.04287L1.60799 7.384Z" fill="black" fill-opacity="0.75"/>
</svg>
