<svg width="49" height="51" viewBox="0 0 49 51" fill="none" xmlns="http://www.w3.org/2000/svg">
<ellipse cx="24.5245" cy="25.8488" rx="24.169" ry="24.8595" fill="black"/>
<path d="M19.2061 17.842C19.0798 17.8408 18.9546 17.8647 18.8376 17.9123C18.7207 17.96 18.6144 18.0304 18.525 18.1196C18.4355 18.2087 18.3647 18.3147 18.3167 18.4315C18.2686 18.5483 18.2443 18.6734 18.2451 18.7997C18.2459 18.926 18.2718 19.0508 18.3214 19.167C18.3709 19.2831 18.443 19.3882 18.5336 19.4762C18.6242 19.5642 18.7313 19.6333 18.8489 19.6794C18.9664 19.7256 19.092 19.7479 19.2182 19.7451L29.0867 19.6865L17.1927 31.5805C17.0142 31.759 16.9139 32.001 16.9139 32.2534C16.9139 32.5058 17.0142 32.7479 17.1927 32.9264C17.3711 33.1048 17.6132 33.2051 17.8656 33.2051C18.118 33.2051 18.3601 33.1048 18.5385 32.9264L30.4312 21.0337L30.372 30.8988C30.3744 31.1486 30.4749 31.3873 30.6518 31.5636C30.8287 31.7399 31.0678 31.8396 31.3175 31.8411C31.5673 31.8427 31.8076 31.7461 31.9867 31.5721C32.1658 31.3981 32.2694 31.1606 32.275 30.911L32.3477 18.9665C32.3486 18.8091 32.3183 18.6531 32.2585 18.5075C32.1987 18.362 32.1106 18.2297 31.9993 18.1184C31.888 18.0071 31.7557 17.919 31.6102 17.8592C31.4646 17.7994 31.3086 17.7691 31.1512 17.77L19.2061 17.842Z" fill="white"/>
</svg>
