<svg width="17" height="17" viewBox="0 0 17 17" fill="none" xmlns="http://www.w3.org/2000/svg">
<path d="M3.20608 0.842024C3.07981 0.840785 2.95457 0.864687 2.83763 0.912334C2.7207 0.959982 2.61442 1.03042 2.52498 1.11956C2.43554 1.20869 2.36473 1.31473 2.31668 1.4315C2.26863 1.54827 2.2443 1.67343 2.2451 1.7997C2.2459 1.92597 2.27183 2.05081 2.32136 2.16696C2.37089 2.28311 2.44305 2.38824 2.53361 2.47622C2.62418 2.56421 2.73135 2.63329 2.84888 2.67945C2.96641 2.7256 3.09195 2.74791 3.21819 2.74506L13.0867 2.68652L1.19268 14.5805C1.01421 14.759 0.913942 15.001 0.913943 15.2534C0.913942 15.5058 1.01421 15.7479 1.19268 15.9264C1.37115 16.1048 1.61321 16.2051 1.86561 16.2051C2.118 16.2051 2.36006 16.1048 2.53853 15.9264L14.4312 4.03372L14.372 13.8988C14.3744 14.1486 14.4749 14.3873 14.6518 14.5636C14.8287 14.7399 15.0678 14.8396 15.3175 14.8411C15.5673 14.8427 15.8076 14.7461 15.9867 14.5721C16.1658 14.3981 16.2694 14.1606 16.275 13.911L16.3477 1.96649C16.3486 1.80911 16.3183 1.65311 16.2585 1.50754C16.1987 1.36197 16.1106 1.22971 15.9993 1.11842C15.888 1.00714 15.7557 0.919041 15.6102 0.859236C15.4646 0.799431 15.3086 0.769108 15.1512 0.770021L3.20608 0.842024Z" fill="white"/>
</svg>
