<svg width="17" height="17" viewBox="0 0 17 17" fill="none" xmlns="http://www.w3.org/2000/svg">
<path d="M3.27444 0.842024C3.14817 0.840785 3.02293 0.864687 2.90599 0.912334C2.78906 0.959982 2.68278 1.03042 2.59334 1.11956C2.5039 1.20869 2.43309 1.31473 2.38504 1.4315C2.33699 1.54827 2.31266 1.67343 2.31346 1.7997C2.31426 1.92597 2.34019 2.05081 2.38972 2.16696C2.43925 2.28311 2.5114 2.38824 2.60197 2.47622C2.69254 2.56421 2.79971 2.63329 2.91724 2.67945C3.03477 2.7256 3.16031 2.74791 3.28655 2.74506L13.155 2.68652L1.26104 14.5805C1.08257 14.759 0.982302 15.001 0.982302 15.2534C0.982302 15.5058 1.08257 15.7479 1.26104 15.9264C1.43951 16.1048 1.68157 16.2051 1.93397 16.2051C2.18636 16.2051 2.42842 16.1048 2.60689 15.9264L14.4995 4.03372L14.4403 13.8988C14.4428 14.1486 14.5433 14.3873 14.7202 14.5636C14.8971 14.7399 15.1362 14.8396 15.3859 14.8411C15.6356 14.8427 15.876 14.7461 16.0551 14.5721C16.2342 14.3981 16.3377 14.1606 16.3434 13.911L16.416 1.96649C16.417 1.80911 16.3866 1.65311 16.3268 1.50754C16.267 1.36197 16.1789 1.22971 16.0676 1.11842C15.9564 1.00714 15.8241 0.919041 15.6785 0.859236C15.5329 0.799431 15.377 0.769108 15.2196 0.770021L3.27444 0.842024Z" fill="black"/>
</svg>
