<svg width="49" height="51" viewBox="0 0 49 51" fill="none" xmlns="http://www.w3.org/2000/svg">
<ellipse cx="24.5928" cy="25.8488" rx="24.169" ry="24.8595" fill="white"/>
<path d="M19.2744 17.842C19.1482 17.8408 19.0229 17.8647 18.906 17.9123C18.7891 17.96 18.6828 18.0304 18.5933 18.1196C18.5039 18.2087 18.4331 18.3147 18.385 18.4315C18.337 18.5483 18.3127 18.6734 18.3135 18.7997C18.3143 18.926 18.3402 19.0508 18.3897 19.167C18.4393 19.2831 18.5114 19.3882 18.602 19.4762C18.6925 19.5642 18.7997 19.6333 18.9172 19.6794C19.0348 19.7256 19.1603 19.7479 19.2866 19.7451L29.155 19.6865L17.261 31.5805C17.0826 31.759 16.9823 32.001 16.9823 32.2534C16.9823 32.5058 17.0826 32.7479 17.261 32.9264C17.4395 33.1048 17.6816 33.2051 17.934 33.2051C18.1864 33.2051 18.4284 33.1048 18.6069 32.9264L30.4995 21.0337L30.4403 30.8988C30.4428 31.1486 30.5433 31.3873 30.7202 31.5636C30.8971 31.7399 31.1362 31.8396 31.3859 31.8411C31.6356 31.8427 31.876 31.7461 32.0551 31.5721C32.2342 31.3981 32.3377 31.1606 32.3434 30.911L32.416 18.9665C32.417 18.8091 32.3866 18.6531 32.3268 18.5075C32.267 18.362 32.1789 18.2297 32.0676 18.1184C31.9564 18.0071 31.8241 17.919 31.6785 17.8592C31.5329 17.7994 31.377 17.7691 31.2196 17.77L19.2744 17.842Z" fill="black"/>
</svg>
