<svg width="21" height="20" viewBox="0 0 21 20" fill="none" xmlns="http://www.w3.org/2000/svg">
<rect x="0.375732" width="20" height="20" rx="10" fill="#407AFF" fill-opacity="0.32"/>
<path d="M7.93034 9.45003C8.58488 10.7364 9.63943 11.7864 10.9258 12.4455L11.9258 11.4455C12.0485 11.3228 12.2303 11.2818 12.3894 11.3364C12.8985 11.5046 13.4485 11.5955 14.0122 11.5955C14.2622 11.5955 14.4667 11.8 14.4667 12.05V13.6364C14.4667 13.8864 14.2622 14.0909 14.0122 14.0909C9.74397 14.0909 6.28488 10.6318 6.28488 6.36366C6.28488 6.11366 6.48943 5.90912 6.73943 5.90912H8.33034C8.58034 5.90912 8.78488 6.11366 8.78488 6.36366C8.78488 6.93185 8.87579 7.4773 9.04397 7.98639C9.09397 8.14548 9.05761 8.32275 8.93034 8.45003L7.93034 9.45003Z" fill="white"/>
</svg>
