<svg width="26" height="27" viewBox="0 0 26 27" fill="none" xmlns="http://www.w3.org/2000/svg">
<path d="M25.5938 13.8994C25.5938 20.8548 19.9554 26.4932 13 26.4932C6.04464 26.4932 0.40625 20.8548 0.40625 13.8994C0.40625 6.94406 6.04464 1.30566 13 1.30566C19.9554 1.30566 25.5938 6.94406 25.5938 13.8994ZM11.5433 20.5677L20.887 11.224C21.2043 10.9067 21.2043 10.3922 20.887 10.0749L19.738 8.9259C19.4207 8.60857 18.9063 8.60857 18.5889 8.9259L10.9688 16.546L7.41107 12.9883C7.09378 12.6711 6.57932 12.6711 6.26199 12.9883L5.11296 14.1374C4.79568 14.4547 4.79568 14.9691 5.11296 15.2864L10.3942 20.5677C10.7115 20.885 11.226 20.885 11.5433 20.5677Z" fill="url(#paint0_linear_3295_16000)"/>
<defs>
<linearGradient id="paint0_linear_3295_16000" x1="33.6613" y1="26.5322" x2="6.57336" y2="-4.77037" gradientUnits="userSpaceOnUse">
<stop stop-color="#007AFF"/>
<stop offset="1" stop-color="#81F0FF"/>
</linearGradient>
</defs>
</svg>
