<svg width="22" height="23" viewBox="0 0 22 23" fill="none" xmlns="http://www.w3.org/2000/svg">
<path d="M21.6562 11.2896C21.6562 17.1749 16.8853 21.9458 11 21.9458C5.1147 21.9458 0.34375 17.1749 0.34375 11.2896C0.34375 5.40425 5.1147 0.633301 11 0.633301C16.8853 0.633301 21.6562 5.40425 21.6562 11.2896ZM9.7674 16.9319L17.6736 9.0257C17.9421 8.75723 17.9421 8.32191 17.6736 8.05345L16.7014 7.08119C16.4329 6.81268 15.9976 6.81268 15.7291 7.08119L9.28125 13.529L6.2709 10.5186C6.00243 10.2502 5.56712 10.2502 5.29861 10.5186L4.32635 11.4909C4.05788 11.7594 4.05788 12.1947 4.32635 12.4632L8.7951 16.9319C9.06361 17.2004 9.49889 17.2004 9.7674 16.9319Z" fill="url(#paint0_linear_44_2971)"/>
<defs>
<linearGradient id="paint0_linear_44_2971" x1="8.34699" y1="15.2856" x2="24.2159" y2="15.56" gradientUnits="userSpaceOnUse">
<stop stop-color="#3E57DA"/>
<stop offset="1" stop-color="#212E74"/>
</linearGradient>
</defs>
</svg>
