<svg width="98" height="104" viewBox="0 0 98 104" fill="none" xmlns="http://www.w3.org/2000/svg">
<g filter="url(#filter0_d_337_490)">
<rect x="22" y="18" width="60" height="60" rx="30" fill="#EEF3FF"/>
<path d="M52 55.2321C51.1919 55.2323 50.4134 54.9281 49.8196 54.38C49.2257 53.832 48.86 53.0804 48.7954 52.275C46.6517 51.5162 44.8451 50.0245 43.6943 48.0632C42.5436 46.1019 42.1227 43.7971 42.506 41.5557C42.8893 39.3143 44.0522 37.2804 45.7893 35.8129C47.5264 34.3455 49.7261 33.539 52 33.5356C54.4186 33.5353 56.749 34.4438 58.5291 36.0811C60.3093 37.7183 61.4092 39.9648 61.6107 42.3749C61.6175 42.4795 61.6023 42.5843 61.5664 42.6827C61.5304 42.7811 61.4744 42.8709 61.4018 42.9465C61.3293 43.022 61.2418 43.0817 61.145 43.1216C61.0481 43.1616 60.944 43.181 60.8393 43.1785C60.624 43.1731 60.4185 43.0879 60.2625 42.9394C60.1066 42.7909 60.0114 42.5897 59.9956 42.3749C59.8524 40.954 59.3332 39.5968 58.4912 38.4432C57.6493 37.2896 56.5152 36.3812 55.2055 35.8115C53.8959 35.2418 52.4581 35.0315 51.0401 35.2022C49.6222 35.3728 48.2753 35.9183 47.1383 36.7824C46.0012 37.6465 45.1149 38.7981 44.5707 40.1185C44.0266 41.4389 43.8442 42.8806 44.0422 44.2949C44.2403 45.7093 44.8118 47.0453 45.6978 48.1654C46.5838 49.2856 47.7523 50.1493 49.083 50.6678C49.3252 50.1446 49.7036 49.6962 50.1786 49.3695C50.6536 49.0427 51.2077 48.8498 51.7829 48.8109C52.3581 48.7719 52.9332 48.8884 53.4479 49.1481C53.9627 49.4078 54.3981 49.8011 54.7085 50.2869C55.019 50.7727 55.1931 51.333 55.2125 51.9092C55.232 52.4854 55.0962 53.0562 54.8192 53.5619C54.5423 54.0675 54.1344 54.4894 53.6384 54.7832C53.1424 55.0771 52.5765 55.2321 52 55.2321ZM43.9788 51.2142H44.125C45.0738 52.145 46.18 52.9002 47.3923 53.445C47.7486 54.6205 48.5401 55.6157 49.6053 56.2275C50.6705 56.8392 51.929 57.0213 53.1239 56.7366C54.3188 56.452 55.36 55.722 56.0349 54.6957C56.7098 53.6694 56.9676 52.4241 56.7556 51.2142H60.0357C60.8882 51.2142 61.7058 51.5529 62.3086 52.1557C62.9114 52.7585 63.25 53.576 63.25 54.4285C63.25 57.1462 61.9113 59.1953 59.8188 60.5309C57.7584 61.8439 54.9813 62.4643 52 62.4643C49.0188 62.4643 46.2416 61.8439 44.1813 60.5309C42.0888 59.1969 40.75 57.1446 40.75 54.4285C40.75 52.6398 42.2013 51.2142 43.9788 51.2142ZM58.4286 43.1785C58.4289 44.266 58.1534 45.3357 57.6278 46.2877C57.1022 47.2397 56.3437 48.0428 55.4232 48.6219C54.975 48.1701 54.4417 47.8116 53.8541 47.5669C53.2666 47.3222 52.6365 47.1963 52 47.1964C51.3636 47.1963 50.7334 47.3222 50.1459 47.5669C49.5583 47.8116 49.0251 48.1701 48.5768 48.6219C47.356 47.8542 46.4289 46.6984 45.9443 45.3401C45.6971 44.6463 45.571 43.9151 45.5714 43.1785C45.5714 41.4735 46.2487 39.8384 47.4543 38.6328C48.6599 37.4272 50.295 36.7499 52 36.7499C53.705 36.7499 55.3401 37.4272 56.5457 38.6328C57.7513 39.8384 58.4286 41.4735 58.4286 43.1785Z" fill="#407AFF"/>
</g>
<defs>
<filter id="filter0_d_337_490" x="0.57143" y="0.857144" width="102.857" height="102.857" filterUnits="userSpaceOnUse" color-interpolation-filters="sRGB">
<feFlood flood-opacity="0" result="BackgroundImageFix"/>
<feColorMatrix in="SourceAlpha" type="matrix" values="0 0 0 0 0 0 0 0 0 0 0 0 0 0 0 0 0 0 127 0" result="hardAlpha"/>
<feOffset dy="4.28571"/>
<feGaussianBlur stdDeviation="10.7143"/>
<feComposite in2="hardAlpha" operator="out"/>
<feColorMatrix type="matrix" values="0 0 0 0 0 0 0 0 0 0 0 0 0 0 0 0 0 0 0.25 0"/>
<feBlend mode="normal" in2="BackgroundImageFix" result="effect1_dropShadow_337_490"/>
<feBlend mode="normal" in="SourceGraphic" in2="effect1_dropShadow_337_490" result="shape"/>
</filter>
</defs>
</svg>
