<svg width="21" height="28" viewBox="0 0 21 28" fill="none" xmlns="http://www.w3.org/2000/svg">
<path d="M10.5 20.75C9.7458 20.7502 9.0192 20.4662 8.46492 19.9548C7.91064 19.4433 7.56934 18.7418 7.50901 17.99C5.50829 17.2818 3.82208 15.8896 2.74804 14.0591C1.674 12.2285 1.28118 10.0774 1.63894 7.98541C1.9967 5.89342 3.08202 3.99507 4.70332 2.62547C6.32462 1.25588 8.37765 0.503091 10.5 0.5C12.7574 0.499673 14.9324 1.34763 16.5939 2.87574C18.2553 4.40385 19.2819 6.50052 19.47 8.75001C19.4763 8.84758 19.4622 8.94539 19.4286 9.03723C19.3951 9.12906 19.3428 9.2129 19.2751 9.28344C19.2073 9.35397 19.1257 9.40965 19.0353 9.44693C18.9449 9.48422 18.8478 9.50229 18.75 9.50001C18.5491 9.49498 18.3572 9.41542 18.2117 9.27682C18.0662 9.13821 17.9773 8.95044 17.9625 8.75001C17.8289 7.42376 17.3443 6.15708 16.5585 5.08036C15.7727 4.00365 14.7141 3.15581 13.4918 2.62413C12.2695 2.09245 10.9275 1.89615 9.60412 2.05542C8.28071 2.21469 7.02365 2.72379 5.96237 3.5303C4.90109 4.33681 4.07392 5.4116 3.56603 6.64401C3.05814 7.87642 2.88788 9.22192 3.07277 10.542C3.25766 11.8621 3.79102 13.109 4.61795 14.1545C5.44488 15.1999 6.53549 16.0061 7.77751 16.49C8.0035 16.0017 8.35668 15.5831 8.80002 15.2782C9.24336 14.9733 9.76056 14.7932 10.2974 14.7569C10.8343 14.7205 11.371 14.8292 11.8514 15.0716C12.3318 15.314 12.7382 15.6811 13.028 16.1345C13.3177 16.5879 13.4802 17.1109 13.4984 17.6487C13.5166 18.1864 13.3898 18.7192 13.1313 19.1911C12.8728 19.6631 12.4922 20.0568 12.0292 20.3311C11.5663 20.6053 11.0381 20.75 10.5 20.75ZM3.0135 17H3.15C4.03554 17.8687 5.068 18.5736 6.19951 19.082C6.53204 20.1792 7.2708 21.1081 8.26496 21.679C9.25912 22.25 10.4337 22.42 11.549 22.1543C12.6642 21.8886 13.636 21.2072 14.2659 20.2493C14.8958 19.2915 15.1364 18.1293 14.9385 17H18C18.7957 17 19.5587 17.3161 20.1213 17.8787C20.684 18.4413 21 19.2044 21 20C21 22.5365 19.7505 24.449 17.7975 25.6955C15.8745 26.921 13.2825 27.5 10.5 27.5C7.71751 27.5 5.12551 26.921 3.2025 25.6955C1.2495 24.4505 0 22.535 0 20C0 18.3305 1.3545 17 3.0135 17ZM16.5 9.50001C16.5003 10.515 16.2432 11.5134 15.7526 12.402C15.2621 13.2905 14.5541 14.0401 13.695 14.5805C13.2766 14.1588 12.7789 13.8242 12.2305 13.5958C11.6822 13.3675 11.094 13.2499 10.5 13.25C9.906 13.2499 9.31785 13.3675 8.76948 13.5958C8.22112 13.8242 7.72339 14.1588 7.30501 14.5805C6.16564 13.864 5.30027 12.7852 4.84801 11.5175C4.61728 10.8699 4.49957 10.1875 4.50001 9.50001C4.50001 7.90871 5.13215 6.38258 6.25737 5.25736C7.38259 4.13215 8.90871 3.5 10.5 3.5C12.0913 3.5 13.6174 4.13215 14.7427 5.25736C15.8679 6.38258 16.5 7.90871 16.5 9.50001Z" fill="#407AFF"/>
</svg>
