<svg width="40" height="40" viewBox="0 0 40 40" fill="none" xmlns="http://www.w3.org/2000/svg">
<rect width="40" height="40" rx="11.1193" fill="#407AFF" fill-opacity="0.16"/>
<path d="M20 25C19.4413 25.0001 18.9031 24.7898 18.4925 24.4109C18.0819 24.0321 17.8291 23.5125 17.7844 22.9556C16.3024 22.431 15.0533 21.3997 14.2578 20.0438C13.4622 18.6878 13.1712 17.0944 13.4362 15.5448C13.7012 13.9951 14.5051 12.5889 15.7061 11.5744C16.9071 10.5599 18.4278 10.0023 20 10C21.6721 9.99976 23.2832 10.6279 24.5139 11.7598C25.7446 12.8917 26.5051 14.4448 26.6444 16.1111C26.6491 16.1834 26.6386 16.2558 26.6137 16.3239C26.5889 16.3919 26.5501 16.454 26.5 16.5063C26.4498 16.5585 26.3894 16.5997 26.3224 16.6274C26.2554 16.655 26.1835 16.6684 26.1111 16.6667C25.9622 16.6629 25.8201 16.604 25.7123 16.5013C25.6045 16.3987 25.5387 16.2596 25.5277 16.1111C25.4288 15.1287 25.0698 14.1904 24.4877 13.3929C23.9057 12.5953 23.1215 11.9673 22.2161 11.5734C21.3107 11.1796 20.3166 11.0342 19.3363 11.1522C18.356 11.2701 17.4249 11.6473 16.6387 12.2447C15.8526 12.8421 15.2399 13.6382 14.8637 14.5511C14.4875 15.464 14.3613 16.4607 14.4983 17.4385C14.6352 18.4164 15.0303 19.34 15.6429 20.1144C16.2554 20.8888 17.0633 21.486 17.9833 21.8445C18.1507 21.4827 18.4123 21.1727 18.7407 20.9468C19.0691 20.721 19.4522 20.5876 19.8499 20.5606C20.2476 20.5337 20.6451 20.6142 21.001 20.7938C21.3569 20.9733 21.6579 21.2453 21.8725 21.5811C22.0871 21.917 22.2075 22.3044 22.221 22.7027C22.2344 23.1011 22.1405 23.4957 21.949 23.8453C21.7576 24.1949 21.4756 24.4865 21.1327 24.6897C20.7898 24.8928 20.3985 25 20 25ZM14.4544 22.2222H14.5555C15.2115 22.8657 15.9762 23.3879 16.8144 23.7645C17.0607 24.5772 17.6079 25.2652 18.3444 25.6882C19.0808 26.1111 19.9509 26.237 20.777 26.0402C21.6031 25.8434 22.3229 25.3387 22.7895 24.6291C23.2561 23.9196 23.4343 23.0587 23.2877 22.2222H25.5555C26.1449 22.2222 26.7101 22.4564 27.1269 22.8731C27.5436 23.2899 27.7777 23.8551 27.7777 24.4445C27.7777 26.3234 26.8522 27.74 25.4055 28.6634C23.9811 29.5711 22.0611 30 20 30C17.9388 30 16.0188 29.5711 14.5944 28.6634C13.1477 27.7411 12.2222 26.3222 12.2222 24.4445C12.2222 23.2078 13.2255 22.2222 14.4544 22.2222ZM24.4444 16.6667C24.4446 17.4185 24.2542 18.1581 23.8908 18.8163C23.5274 19.4744 23.003 20.0297 22.3666 20.43C22.0567 20.1177 21.688 19.8698 21.2818 19.7006C20.8756 19.5315 20.44 19.4444 20 19.4445C19.5599 19.4444 19.1243 19.5315 18.7181 19.7006C18.3119 19.8698 17.9432 20.1177 17.6333 20.43C16.7893 19.8993 16.1483 19.1002 15.8133 18.1611C15.6424 17.6814 15.5552 17.1759 15.5555 16.6667C15.5555 15.4879 16.0238 14.3575 16.8573 13.524C17.6908 12.6905 18.8212 12.2222 20 12.2222C21.1787 12.2222 22.3092 12.6905 23.1427 13.524C23.9762 14.3575 24.4444 15.4879 24.4444 16.6667Z" fill="#407AFF"/>
</svg>
