<svg width="24" height="25" viewBox="0 0 24 25" fill="none" xmlns="http://www.w3.org/2000/svg">
<path d="M15.8442 16.9302C16.0014 16.8081 16.1443 16.6652 16.429 16.3805L19.9837 12.8249C20.0699 12.7396 20.0304 12.5914 19.9163 12.5509C19.3596 12.358 18.8545 12.0403 18.4395 11.6221C18.0213 11.2071 17.7035 10.7019 17.5106 10.1453C17.4702 10.0312 17.322 9.99164 17.2366 10.0779L13.6802 13.6325C13.3954 13.9173 13.2526 14.0601 13.1304 14.2173C12.9849 14.4036 12.8615 14.603 12.7603 14.8156C12.675 14.9953 12.6112 15.1875 12.4836 15.5702L12.3183 16.0643L12.056 16.8503L11.8108 17.5869C11.7802 17.6792 11.7759 17.7782 11.7983 17.8729C11.8208 17.9675 11.8691 18.054 11.9378 18.1228C12.0066 18.1916 12.0931 18.2399 12.1878 18.2623C12.2824 18.2848 12.3814 18.2804 12.4737 18.2499L13.2104 18.0046L13.9964 17.7423L14.4905 17.577C14.8731 17.4495 15.0654 17.3866 15.245 17.3003C15.4576 17.1985 15.658 17.0752 15.8442 16.9302ZM21.0976 11.7119C21.462 11.3474 21.6666 10.853 21.6666 10.3376C21.6665 9.8222 21.4616 9.32792 21.0971 8.96352C20.7326 8.59912 20.2383 8.39445 19.7228 8.39453C19.2074 8.39462 18.7131 8.59945 18.3487 8.96397L18.2355 9.07895C18.1809 9.13239 18.1402 9.19842 18.117 9.27125C18.0938 9.34407 18.0889 9.42148 18.1026 9.49667C18.1206 9.59279 18.152 9.73472 18.2104 9.90271C18.3272 10.2396 18.5482 10.6815 18.9641 11.0975C19.38 11.5134 19.822 11.7344 20.1588 11.8512C20.3277 11.9095 20.4688 11.941 20.5649 11.959C20.6401 11.9719 20.7172 11.9665 20.7899 11.9434C20.8626 11.9203 20.9287 11.88 20.9826 11.826L21.0976 11.7119Z" fill="url(#paint0_linear_461_364)"/>
<path fill-rule="evenodd" clip-rule="evenodd" d="M4.14392 3.89636C3 5.0393 3 6.88011 3 10.5607V14.4649C3 18.1455 3 19.9863 4.14392 21.1293C5.28783 22.2722 7.12766 22.2732 10.8083 22.2732H12.7604C16.441 22.2732 18.2818 22.2732 19.4248 21.1293C20.5501 20.0049 20.5687 18.2051 20.5687 14.6406L17.8182 17.3911C17.5547 17.6546 17.339 17.8703 17.0959 18.0606C16.8109 18.2839 16.5018 18.4747 16.1746 18.6296C15.875 18.7644 15.5673 18.8801 15.2532 18.9761L12.9966 19.7287C12.6384 19.8481 12.2539 19.8655 11.8864 19.7787C11.5189 19.692 11.1828 19.5046 10.9158 19.2376C10.6488 18.9706 10.4614 18.6345 10.3746 18.267C10.2879 17.8994 10.3053 17.515 10.4247 17.1568L10.6922 16.3565L11.1558 14.9646L11.1763 14.9002C11.2944 14.5469 11.391 14.258 11.5237 13.9788C11.6799 13.6509 11.8696 13.3441 12.0928 13.0584C12.2831 12.8144 12.4988 12.5997 12.7623 12.3362L16.6723 8.42517L17.7577 7.33982L17.8816 7.21586C18.2133 6.88318 18.6075 6.61939 19.0415 6.43965C19.4755 6.25991 19.9408 6.16779 20.4106 6.16857C20.2632 5.16325 19.9772 4.44782 19.4248 3.89636C18.2818 2.75244 16.441 2.75244 12.7604 2.75244H10.8083C7.12766 2.75244 5.28686 2.75244 4.14392 3.89636ZM7.14816 9.58471C7.14816 9.39056 7.22529 9.20437 7.36257 9.06708C7.49985 8.9298 7.68604 8.85268 7.88019 8.85268H14.2244C14.4186 8.85268 14.6048 8.9298 14.7421 9.06708C14.8793 9.20437 14.9565 9.39056 14.9565 9.58471C14.9565 9.77885 14.8793 9.96505 14.7421 10.1023C14.6048 10.2396 14.4186 10.3167 14.2244 10.3167H7.88019C7.68604 10.3167 7.49985 10.2396 7.36257 10.1023C7.22529 9.96505 7.14816 9.77885 7.14816 9.58471ZM7.14816 13.4889C7.14816 13.2947 7.22529 13.1085 7.36257 12.9712C7.49985 12.834 7.68604 12.7568 7.88019 12.7568H10.3203C10.5144 12.7568 10.7006 12.834 10.8379 12.9712C10.9752 13.1085 11.0523 13.2947 11.0523 13.4889C11.0523 13.683 10.9752 13.8692 10.8379 14.0065C10.7006 14.1438 10.5144 14.2209 10.3203 14.2209H7.88019C7.68604 14.2209 7.49985 14.1438 7.36257 14.0065C7.22529 13.8692 7.14816 13.683 7.14816 13.4889ZM7.14816 17.393C7.14816 17.1989 7.22529 17.0127 7.36257 16.8754C7.49985 16.7381 7.68604 16.661 7.88019 16.661H9.34425C9.53839 16.661 9.72459 16.7381 9.86187 16.8754C9.99915 17.0127 10.0763 17.1989 10.0763 17.393C10.0763 17.5872 9.99915 17.7733 9.86187 17.9106C9.72459 18.0479 9.53839 18.125 9.34425 18.125H7.88019C7.68604 18.125 7.49985 18.0479 7.36257 17.9106C7.22529 17.7733 7.14816 17.5872 7.14816 17.393Z" fill="url(#paint1_linear_461_364)"/>
<defs>
<linearGradient id="paint0_linear_461_364" x1="12.843" y1="8.92392" x2="20.1662" y2="18.0121" gradientUnits="userSpaceOnUse">
<stop stop-color="#3FADFF"/>
<stop offset="0.49489" stop-color="#336CDC"/>
<stop offset="1" stop-color="#47B4B4"/>
</linearGradient>
<linearGradient id="paint1_linear_461_364" x1="4.88236" y1="3.7982" x2="19.5971" y2="20.2326" gradientUnits="userSpaceOnUse">
<stop stop-color="#3FADFF"/>
<stop offset="0.49489" stop-color="#336CDC"/>
<stop offset="1" stop-color="#47B4B4"/>
</linearGradient>
</defs>
</svg>
