<svg width="51" height="52" viewBox="0 0 51 52" fill="none" xmlns="http://www.w3.org/2000/svg">
<g clip-path="url(#clip0_3295_14402)">
<path d="M17.7518 5.03442H33.4041C33.8306 5.03442 34.1979 5.03442 34.5296 5.0747C35.7184 5.22276 36.8226 5.76687 37.6642 6.61928C38.5059 7.4717 39.036 8.58274 39.1689 9.77326H41.0787C41.581 9.76852 42.6828 9.75904 43.5926 10.368C44.7702 11.1523 45.1257 12.5005 45.1257 13.9197C45.1257 20.3788 41.6829 24.6911 37.2876 27.0866C34.8353 31.5506 30.305 34.6521 25.578 34.6521C21.9788 34.6521 18.5645 32.7045 16.1074 30.0104C15.291 29.1197 14.5743 28.1425 13.9702 27.0961C9.57729 24.7124 6.03027 20.4048 6.03027 13.9197C6.03027 12.4981 6.38569 11.1523 7.56092 10.368C8.47314 9.75904 9.57492 9.76852 10.0772 9.77326H11.987L11.9941 9.70691C12.1406 8.52941 12.6757 7.43443 13.5148 6.59539C14.3538 5.75634 15.4488 5.2212 16.6263 5.0747C16.958 5.03442 17.3253 5.03442 17.7518 5.03442ZM15.5079 11.5503V11.5574L15.4842 19.8433V19.8456C15.4842 21.554 15.9723 23.3003 16.8182 24.8996L16.8514 24.9589C17.3608 25.9114 17.9982 26.807 18.7351 27.6126C20.7301 29.8019 23.2559 31.098 25.5803 31.098C28.9496 31.098 32.5014 28.6622 34.3472 25.0702C35.1857 23.4553 35.6244 21.6629 35.6267 19.8433L35.6219 19.8385L35.6504 10.9272C35.6504 10.3538 35.6456 10.2282 35.6361 10.1453C35.5871 9.75327 35.4088 9.38882 35.1294 9.10948C34.8501 8.83015 34.4856 8.65185 34.0936 8.60277C33.8333 8.58727 33.5725 8.58253 33.3117 8.58855H17.8466C17.2708 8.58855 17.1476 8.59092 17.0646 8.60277C16.6727 8.65185 16.3082 8.83015 16.0289 9.10948C15.7495 9.38882 15.5712 9.75327 15.5222 10.1453C15.5067 10.4056 15.5019 10.6664 15.5079 10.9272V11.5503ZM39.1974 13.3274L39.176 19.8433V19.8456M39.1216 21.1228C40.6332 19.3031 41.5739 16.9289 41.5739 13.9197C41.5739 13.6401 41.5502 13.4553 41.5289 13.3392C41.3467 13.3283 41.1641 13.3243 40.9815 13.3274H39.1974M11.9775 20.9853C11.9418 20.6057 11.9244 20.2246 11.9254 19.8433V19.8385L11.9467 13.3274H10.1768C9.91849 13.3274 9.755 13.3274 9.62942 13.3392C9.59612 13.5309 9.58104 13.7252 9.5844 13.9197C9.5844 16.8507 10.5037 19.1798 11.9775 20.9853ZM25.578 35.8368C26.0493 35.8368 26.5013 36.0241 26.8345 36.3573C27.1678 36.6906 27.355 37.1426 27.355 37.6139V42.9451H35.0556C35.5269 42.9451 35.9789 43.1323 36.3122 43.4656C36.6455 43.7988 36.8327 44.2508 36.8327 44.7222C36.8327 45.1935 36.6455 45.6455 36.3122 45.9787C35.9789 46.312 35.5269 46.4992 35.0556 46.4992H16.1003C15.629 46.4992 15.177 46.312 14.8437 45.9787C14.5105 45.6455 14.3232 45.1935 14.3232 44.7222C14.3232 44.2508 14.5105 43.7988 14.8437 43.4656C15.177 43.1323 15.629 42.9451 16.1003 42.9451H23.8009V37.6139C23.8009 37.1426 23.9881 36.6906 24.3214 36.3573C24.6547 36.0241 25.1067 35.8368 25.578 35.8368Z" fill="white"/>
<path d="M25.0323 12.8651C25.0778 12.7582 25.1538 12.6671 25.2507 12.6031C25.3475 12.539 25.4611 12.5049 25.5773 12.5049C25.6934 12.5049 25.807 12.539 25.9039 12.6031C26.0008 12.6671 26.0767 12.7582 26.1222 12.8651L27.3188 15.7368C27.3605 15.837 27.429 15.9239 27.5168 15.9878C27.6045 16.0517 27.7082 16.0903 27.8164 16.0993L30.9179 16.3481C31.0346 16.3574 31.1459 16.401 31.2378 16.4734C31.3298 16.5458 31.3982 16.6439 31.4344 16.7552C31.4707 16.8664 31.4731 16.986 31.4415 17.0986C31.4099 17.2113 31.3456 17.3121 31.2568 17.3883L28.8945 19.4118C28.8119 19.4828 28.7505 19.5753 28.7171 19.6789C28.6836 19.7826 28.6794 19.8935 28.7049 19.9994L29.4252 23.0228C29.453 23.1369 29.4462 23.2566 29.4058 23.3669C29.3653 23.4771 29.293 23.5729 29.1981 23.6419C29.1031 23.711 28.9897 23.7503 28.8724 23.7548C28.7551 23.7593 28.639 23.7288 28.539 23.6673L25.8853 22.0466C25.7925 21.9901 25.6859 21.9602 25.5773 21.9602C25.4686 21.9602 25.3621 21.9901 25.2693 22.0466L22.6155 23.6673C22.5155 23.7288 22.3995 23.7593 22.2821 23.7548C22.1648 23.7503 22.0515 23.711 21.9565 23.6419C21.8615 23.5729 21.7892 23.4771 21.7488 23.3669C21.7083 23.2566 21.7016 23.1369 21.7293 23.0228L22.452 19.9994C22.4775 19.8935 22.4733 19.7826 22.4399 19.6789C22.4064 19.5753 22.345 19.4828 22.2625 19.4118L19.8978 17.3883C19.8081 17.3123 19.7431 17.2113 19.711 17.0983C19.6789 16.9852 19.6812 16.8651 19.7175 16.7534C19.7538 16.6416 19.8226 16.5431 19.915 16.4706C20.0075 16.398 20.1194 16.3545 20.2366 16.3458L23.3358 16.0993C23.4444 16.0907 23.5486 16.0523 23.6368 15.9884C23.725 15.9244 23.7938 15.8374 23.8358 15.7368L25.0323 12.8651Z" fill="white"/>
</g>
<defs>
<clipPath id="clip0_3295_14402">
<rect width="40" height="42" fill="white" transform="translate(6 5)"/>
</clipPath>
</defs>
</svg>
