<svg width="38" height="29" viewBox="0 0 38 29" fill="none" xmlns="http://www.w3.org/2000/svg">
<path fill-rule="evenodd" clip-rule="evenodd" d="M18.6178 18.4025C13.8667 16.2931 9.11576 14.1837 4.36463 12.0742C4.34572 14.9441 4.36943 17.7706 4.35053 20.6402C4.6925 20.6402 4.9918 20.6402 5.33402 20.6546C5.31512 22.3841 5.29596 24.0993 5.27699 25.8287C4.6877 26.4558 4.05597 27.0972 3.46686 27.7241C2.80163 27.0782 2.17927 26.4604 1.51398 25.8143C1.51398 24.066 1.51398 22.3177 1.51398 20.5692C1.83723 20.5692 2.16005 20.5692 2.48312 20.5692C2.48312 17.4338 2.48312 14.298 2.48312 11.1624C1.68506 10.6869 0.886806 10.2119 0.0887451 9.73669C6.30297 6.80998 12.5174 3.88359 18.7316 0.95694C24.965 3.92171 31.1981 6.88623 37.4313 9.85093C31.1602 12.7014 24.8891 15.5521 18.6178 18.4025ZM6.62194 23.649C11.8697 22.1694 15.64 25.4362 17.8172 28.1427H19.7797C22.1148 25.3813 25.9716 21.9071 30.7708 24.0886C30.7518 21.7132 30.7328 16.3609 30.7139 13.9854C26.267 16.0759 23.1554 17.3056 18.7084 19.3961C14.6795 17.4578 10.6507 15.905 6.62168 13.9667C6.62193 16.2661 6.62194 21.3495 6.62194 23.649Z" fill="#2160FC"/>
</svg>
