<svg width="32" height="32" viewBox="0 0 32 32" fill="none" xmlns="http://www.w3.org/2000/svg">
<path d="M22.2222 21.5579H13.3333C12.8618 21.5579 12.4097 21.3627 12.0763 21.0152C11.7429 20.6678 11.5556 20.1966 11.5556 19.7052V8.58945C11.5556 8.0981 11.7429 7.62688 12.0763 7.27944C12.4097 6.932 12.8618 6.73682 13.3333 6.73682H14.2222V11.3684L16 9.97892L17.7778 11.3684V6.73682H22.2222C22.6937 6.73682 23.1459 6.932 23.4793 7.27944C23.8127 7.62688 24 8.0981 24 8.58945V19.7052C24 20.1966 23.8127 20.6678 23.4793 21.0152C23.1459 21.3627 22.6937 21.5579 22.2222 21.5579ZM20.4444 23.4105V25.2631H9.77778C9.30628 25.2631 8.8541 25.0679 8.5207 24.7205C8.1873 24.3731 8 23.9018 8 23.4105V10.4421H9.77778V23.4105H20.4444Z" fill="black" fill-opacity="0.5"/>
</svg>
