<svg width="300" height="34" viewBox="0 0 300 34" fill="none" xmlns="http://www.w3.org/2000/svg">
<path fill-rule="evenodd" clip-rule="evenodd" d="M299.334 16.976C299.334 25.8112 292.172 32.9734 283.336 32.9734C274.501 32.9734 267.339 25.8112 267.339 16.976C267.339 8.14084 274.501 0.978649 283.336 0.978649C292.172 0.978649 299.334 8.14084 299.334 16.976Z" fill="#FFCB15" fill-opacity="0.16"/>
<path d="M275.587 21.7774C275.587 23.0255 276.541 23.9798 277.789 23.9798H288.067C289.315 23.9798 290.269 23.0255 290.269 21.7774V15.9044H275.587V21.7774ZM288.067 10.7656H286.599V10.0314C286.599 9.59096 286.305 9.29731 285.865 9.29731C285.424 9.29731 285.131 9.59096 285.131 10.0314V10.7656H280.726V10.0314C280.726 9.59096 280.432 9.29731 279.992 9.29731C279.551 9.29731 279.258 9.59096 279.258 10.0314V10.7656H277.789C276.541 10.7656 275.587 11.7199 275.587 12.9679V14.4362H290.269V12.9679C290.269 11.7199 289.315 10.7656 288.067 10.7656Z" fill="#E7BB23"/>
</svg>
