<svg width="21" height="16" viewBox="0 0 21 16" fill="none" xmlns="http://www.w3.org/2000/svg">
<path d="M1.5 6H19.5M5.5 11H5.51M9.5 11H11.5M1.5 4C1.5 3.20435 1.81607 2.44129 2.37868 1.87868C2.94129 1.31607 3.70435 1 4.5 1H16.5C17.2957 1 18.0587 1.31607 18.6213 1.87868C19.1839 2.44129 19.5 3.20435 19.5 4V12C19.5 12.7956 19.1839 13.5587 18.6213 14.1213C18.0587 14.6839 17.2957 15 16.5 15H4.5C3.70435 15 2.94129 14.6839 2.37868 14.1213C1.81607 13.5587 1.5 12.7956 1.5 12V4Z" stroke="#C4F7FF" stroke-width="1.55556" stroke-linecap="round" stroke-linejoin="round"/>
</svg>
