<svg width="32" height="32" viewBox="0 0 32 32" fill="none" xmlns="http://www.w3.org/2000/svg">
<g clip-path="url(#clip0_461_5648)">
<path d="M15.0768 16.5577L20.3268 21.8077C19.6473 22.5 18.854 23.0385 17.9469 23.4231C17.0399 23.8077 16.0832 24 15.0768 24C13.737 24 12.5014 23.6699 11.37 23.0096C10.2386 22.3494 9.34278 21.4535 8.68252 20.3221C8.02227 19.1907 7.69214 17.9551 7.69214 16.6154C7.69214 15.2756 8.02227 14.0401 8.68252 12.9087C9.34278 11.7772 10.2386 10.8814 11.37 10.2212C12.5014 9.5609 13.737 9.23077 15.0768 9.23077V16.5577ZM16.8748 16.6154H24.3075C24.3075 17.6218 24.1152 18.5785 23.7306 19.4856C23.346 20.3926 22.8075 21.1859 22.1152 21.8654L16.8748 16.6154ZM23.6921 15.3846H16.3075V8C17.6473 8 18.8828 8.33013 20.0143 8.99038C21.1457 9.65064 22.0415 10.5465 22.7018 11.6779C23.362 12.8093 23.6921 14.0449 23.6921 15.3846Z" fill="black" fill-opacity="0.5"/>
</g>
<defs>
<clipPath id="clip0_461_5648">
<rect width="16.6215" height="16" fill="white" transform="translate(7.68921 8)"/>
</clipPath>
</defs>
</svg>
