<svg width="19" height="19" viewBox="0 0 19 19" fill="none" xmlns="http://www.w3.org/2000/svg">
<path d="M8.02754 5.83289L8.1132 5.82066C8.14175 5.81658 8.1703 5.81658 8.19886 5.8125C8.25596 5.80842 8.30899 5.80026 8.36201 5.79618C8.41504 5.7921 8.46399 5.78802 8.51294 5.78395C8.53741 5.78395 8.56188 5.77987 8.58636 5.77987C8.61083 5.77987 8.63123 5.77579 8.65162 5.77579C8.69241 5.77579 8.7332 5.77171 8.76991 5.77171C8.80662 5.77171 8.83925 5.76763 8.87188 5.76763H8.97794H9.07175C9.13294 5.76763 9.18189 5.7146 9.17781 5.65342L9.0432 3.56907C9.03912 3.50788 8.9861 3.46302 8.92491 3.47117C8.89636 3.47525 8.86781 3.47933 8.83109 3.48341C8.79846 3.48749 8.76175 3.49157 8.72096 3.49565C8.67609 3.50381 8.62307 3.51196 8.57004 3.51604C8.51701 3.5242 8.45991 3.53236 8.39872 3.54052C8.36609 3.5446 8.33754 3.54867 8.30899 3.55683C8.28043 3.56091 8.2478 3.56907 8.21925 3.57315C8.15807 3.58538 8.0928 3.59762 8.02346 3.60986C7.9582 3.62617 7.88885 3.64249 7.81951 3.65881C7.7828 3.66696 7.75017 3.67512 7.71346 3.68328C7.67675 3.69144 7.64004 3.70367 7.60333 3.71183C7.5299 3.73223 7.45648 3.75262 7.37898 3.77302C7.30556 3.79749 7.22806 3.81789 7.15056 3.84236C7.11385 3.8546 7.07306 3.86683 7.03227 3.87907C6.99556 3.89131 6.95477 3.90354 6.91398 3.91986C6.87319 3.9321 6.83648 3.94841 6.79569 3.96065C6.7549 3.97289 6.71819 3.9892 6.6774 4.00144C6.5999 4.02999 6.5224 4.06262 6.4449 4.09118C6.3674 4.11973 6.2899 4.15644 6.2124 4.18907C6.17569 4.20539 6.1349 4.2217 6.09819 4.23802C6.06148 4.25433 6.02477 4.27065 5.98398 4.29105C5.94727 4.30736 5.91056 4.32368 5.87385 4.34407C5.83714 4.36039 5.80042 4.3767 5.76371 4.3971C5.69029 4.43381 5.62095 4.47052 5.55161 4.50315C5.48227 4.53986 5.417 4.57657 5.35174 4.61328C5.28647 4.64999 5.22121 4.68263 5.16003 4.71934C5.09884 4.75605 5.03766 4.79276 4.98055 4.82539C4.92345 4.85802 4.87042 4.89473 4.81739 4.92736C4.76437 4.96 4.71542 4.99263 4.66647 5.02118C4.6216 5.05381 4.57673 5.08236 4.53595 5.11092C4.49516 5.13947 4.45437 5.16802 4.42173 5.1925C4.38502 5.21697 4.35239 5.24144 4.32384 5.26184C4.28305 5.29039 4.25042 5.31487 4.22187 5.33526C4.177 5.36789 4.16476 5.43316 4.19739 5.47802L5.06213 6.75066C5.09476 6.79553 5.15187 6.81185 5.20082 6.78329C5.22121 6.77106 5.24976 6.75474 5.27832 6.73842C5.30279 6.72211 5.33134 6.70579 5.36398 6.68948C5.39661 6.67316 5.42924 6.65684 5.46595 6.63645C5.50266 6.61606 5.53937 6.59566 5.58016 6.57527C5.62095 6.55487 5.66582 6.53448 5.71069 6.51408C5.75556 6.49369 5.8045 6.46921 5.85345 6.44882C5.9024 6.42842 5.95543 6.40395 6.00845 6.37948C6.06148 6.355 6.1145 6.33461 6.17161 6.31013C6.22872 6.28974 6.28582 6.26526 6.34293 6.24487C6.40003 6.22447 6.46122 6.20408 6.5224 6.17961C6.55095 6.16737 6.58359 6.15921 6.61214 6.14697C6.64477 6.13882 6.67332 6.12658 6.70595 6.11842C6.73859 6.11026 6.76714 6.09803 6.79977 6.08987C6.8324 6.08171 6.86503 6.07355 6.89359 6.06132C6.95885 6.045 7.02003 6.02461 7.0853 6.00829C7.15056 5.99197 7.21175 5.97566 7.27701 5.95934C7.30964 5.95118 7.34227 5.94303 7.3749 5.93895C7.40754 5.93079 7.44017 5.92671 7.46872 5.91855C7.50135 5.91039 7.5299 5.90632 7.56254 5.89816C7.59517 5.89 7.62372 5.88592 7.65635 5.88184C7.71754 5.8696 7.77872 5.86145 7.83991 5.84921C7.90925 5.84921 7.97043 5.84105 8.02754 5.83289Z" fill="#E01212" fill-opacity="0.72"/>
<path d="M2.12912 7.47629C2.10465 7.50892 2.08425 7.54156 2.05978 7.57419C2.0353 7.60682 2.01491 7.63945 1.99044 7.67208C1.96596 7.70471 1.94557 7.73735 1.92517 7.76998C1.8803 7.83524 1.83543 7.90458 1.79464 7.96985C1.75386 8.03919 1.70899 8.10853 1.6682 8.17379L1.63557 8.22274L1.60701 8.27577C1.58662 8.3084 1.56622 8.34511 1.54991 8.37774C1.46833 8.51235 1.39899 8.65103 1.32964 8.78564C1.29701 8.8509 1.26438 8.92025 1.23175 8.98551C1.21543 9.01814 1.19912 9.05077 1.18688 9.0834C1.17056 9.11604 1.15833 9.14867 1.14609 9.17722C1.11754 9.2384 1.08898 9.29959 1.06451 9.36077C1.04004 9.42196 1.01556 9.47906 0.995168 9.53209C0.974773 9.5892 0.950299 9.63814 0.929905 9.69117C0.90951 9.74012 0.893194 9.78907 0.876878 9.83393C0.860562 9.8788 0.844246 9.91959 0.82793 9.96038C0.815693 10.0012 0.803457 10.0379 0.79122 10.0705C0.774904 10.1154 0.762667 10.1521 0.754509 10.1806C0.738193 10.2337 0.762667 10.2908 0.815694 10.3112L1.61925 10.6212C1.67228 10.6416 1.72938 10.6171 1.75386 10.5681C1.76609 10.5437 1.77833 10.5151 1.79464 10.4825C1.80688 10.4539 1.8232 10.4254 1.83951 10.3887C1.85583 10.356 1.87622 10.3193 1.89662 10.2826C1.91701 10.2459 1.93741 10.2051 1.9578 10.1603C1.9782 10.1195 2.00675 10.0746 2.03122 10.0297C2.0557 9.98486 2.08425 9.93591 2.1128 9.88696C2.14136 9.83801 2.17399 9.78906 2.20254 9.73604C2.21886 9.71156 2.23517 9.68301 2.25149 9.65854C2.2678 9.63406 2.28412 9.60551 2.30044 9.58104C2.33307 9.52801 2.36978 9.47498 2.40649 9.41788C2.48399 9.31183 2.55741 9.19761 2.63899 9.08748C2.65939 9.05893 2.67978 9.03038 2.70018 9.0059L2.73281 8.96511L2.76544 8.92432C2.81031 8.8713 2.8511 8.81419 2.89597 8.76117C2.94083 8.70814 2.9857 8.65511 3.03057 8.60209C3.05505 8.57761 3.07544 8.54906 3.09583 8.52459C3.12031 8.50011 3.1407 8.47564 3.16518 8.44709C3.18965 8.42261 3.21005 8.39814 3.23452 8.37366C3.25491 8.34919 3.27939 8.32472 3.30386 8.30024C3.34873 8.2513 3.39768 8.20643 3.44255 8.15748C3.48742 8.11261 3.53228 8.06774 3.57715 8.02287C3.62202 7.978 3.66281 7.93721 3.70768 7.89643C3.75255 7.85564 3.79334 7.81892 3.83413 7.78221C3.87492 7.7455 3.91571 7.71287 3.9565 7.67616C3.99729 7.64353 4.034 7.6109 4.06663 7.58235C4.10334 7.55379 4.13597 7.52932 4.16452 7.50485C4.19715 7.48037 4.22571 7.4559 4.25018 7.4355C4.26242 7.42734 4.27873 7.41511 4.29505 7.40287C4.31137 7.39063 4.3236 7.38248 4.33584 7.37024C4.36439 7.34984 4.38887 7.32945 4.40926 7.31313C4.45821 7.27642 4.46637 7.20708 4.42558 7.16221L3.50781 6.08129C3.46702 6.03642 3.39768 6.03234 3.35281 6.07313C3.33241 6.09352 3.31202 6.11392 3.28347 6.13839C3.27123 6.15063 3.25899 6.16287 3.24676 6.1751C3.23452 6.18734 3.22228 6.19958 3.20597 6.21589C3.17334 6.24852 3.1407 6.28116 3.10399 6.31787C3.06728 6.35458 3.03057 6.39537 2.98978 6.43616C2.95307 6.47695 2.91228 6.52181 2.87149 6.56668C2.8307 6.61155 2.78583 6.65642 2.74504 6.70537C2.70425 6.75432 2.65939 6.80734 2.61452 6.86037C2.56965 6.9134 2.52478 6.96642 2.47991 7.02353C2.43504 7.08063 2.3861 7.13774 2.34123 7.19892C2.29636 7.26011 2.24741 7.32129 2.20254 7.38248C2.17399 7.41103 2.14952 7.44366 2.12912 7.47629Z" fill="#E01212" fill-opacity="0.48"/>
<path d="M0.460814 11.2422C0.456735 11.2667 0.448577 11.2993 0.440419 11.336C0.432261 11.3686 0.428182 11.4054 0.420024 11.4421C0.411866 11.4829 0.403709 11.5277 0.395551 11.5767C0.387393 11.6256 0.379235 11.6746 0.371077 11.7317C0.366998 11.7602 0.362919 11.7847 0.35884 11.8133C0.354761 11.8418 0.350682 11.8704 0.346603 11.8989C0.330287 12.0172 0.309892 12.1396 0.301734 12.2742C0.293576 12.3394 0.289498 12.4088 0.28134 12.4781C0.277261 12.5475 0.273182 12.6209 0.265024 12.6943C0.252787 12.8412 0.252787 12.9921 0.244629 13.143V13.2001V13.2572V13.3714V13.4856V13.5427L0.248708 13.5998C0.252787 13.6773 0.256866 13.7548 0.256866 13.8323L0.260945 13.8894V13.9098V13.9221L0.265024 13.9506C0.269103 13.9873 0.269103 14.0241 0.273182 14.0608C0.277261 14.0975 0.277261 14.1342 0.28134 14.1709C0.285419 14.2076 0.289498 14.2484 0.293576 14.2851C0.297655 14.3218 0.301734 14.3585 0.305813 14.3952C0.305813 14.4156 0.309892 14.4319 0.309892 14.4523C0.313971 14.4687 0.313971 14.4891 0.31805 14.5054C0.326208 14.5788 0.334366 14.6481 0.346603 14.7175C0.35884 14.7868 0.366998 14.8521 0.379235 14.9173C0.387393 14.9826 0.39963 15.0438 0.411866 15.105C0.411866 15.1091 0.411866 15.1131 0.415945 15.1213C0.424103 15.1702 0.468972 15.207 0.51792 15.207H0.803447C0.864631 15.207 0.913579 15.1539 0.9095 15.0968C0.9095 15.0805 0.9095 15.0642 0.905421 15.0479C0.901342 14.9908 0.897263 14.9296 0.897263 14.8643C0.893184 14.8031 0.893184 14.7379 0.889105 14.6726C0.889105 14.6073 0.889105 14.538 0.889105 14.4727C0.889105 14.4564 0.889105 14.4401 0.889105 14.4197C0.889105 14.4034 0.889105 14.3871 0.889105 14.3708C0.889105 14.3381 0.889105 14.3014 0.893184 14.2688C0.893184 14.2362 0.893184 14.1994 0.897263 14.1668C0.897263 14.1301 0.901342 14.0934 0.901342 14.0567C0.901342 14.02 0.905421 13.9833 0.905421 13.9466V13.918V13.9058C0.905421 13.9017 0.905421 13.9098 0.905421 13.9098V13.9058V13.8976L0.9095 13.8446C0.913579 13.7712 0.921737 13.7018 0.925816 13.6284L0.929895 13.5754L0.938053 13.5223C0.942132 13.4856 0.946211 13.4489 0.95029 13.4163C0.954369 13.3796 0.958448 13.3469 0.962527 13.3102L0.966606 13.2572L0.974763 13.2042C0.995158 13.0655 1.01555 12.9268 1.04003 12.7922C1.05226 12.7269 1.0645 12.6617 1.07674 12.5964C1.08897 12.5352 1.10529 12.47 1.11753 12.4129C1.142 12.2905 1.17463 12.1804 1.19911 12.0784C1.20726 12.0539 1.21134 12.0254 1.2195 12.0009C1.22766 11.9764 1.23174 11.9519 1.2399 11.9315C1.25213 11.8867 1.26845 11.8418 1.27661 11.801C1.28884 11.7602 1.30108 11.7235 1.30924 11.6868C1.32148 11.6501 1.33371 11.6134 1.34187 11.5848C1.35411 11.5522 1.36226 11.5196 1.37042 11.4951C1.39082 11.438 1.35819 11.3768 1.297 11.3605L0.587262 11.1688C0.534235 11.1484 0.473051 11.1851 0.460814 11.2422Z" fill="#E01212" fill-opacity="0.24"/>
<path d="M13.8886 8.7629C13.8489 8.73655 13.7968 8.72876 13.7437 8.7582L8.40248 11.8061C7.99645 12.0368 7.85626 12.553 8.0884 12.9565C8.15406 13.0716 8.24232 13.1655 8.34597 13.2356C8.60437 13.4123 8.95046 13.437 9.23877 13.2706C9.29532 13.238 9.34767 13.1979 9.39339 13.1573L13.9075 8.97977C13.9829 8.91172 13.9551 8.80818 13.8886 8.7629Z" fill="black"/>
<path d="M14.2315 7.92955L14.2968 7.99482C14.3212 8.01929 14.3416 8.04376 14.3702 8.07232C14.3947 8.10087 14.4232 8.12942 14.4518 8.15797C14.4803 8.19061 14.5089 8.22324 14.5415 8.25587C14.5701 8.29258 14.6068 8.32521 14.6353 8.366C14.668 8.40271 14.7006 8.4435 14.7332 8.48429C14.7659 8.52508 14.8026 8.56995 14.8352 8.61074C14.8678 8.65561 14.9045 8.70048 14.9413 8.74534C14.9739 8.79021 15.0106 8.83916 15.0432 8.88811C15.0595 8.91258 15.0799 8.93706 15.0963 8.96153C15.1126 8.986 15.1289 9.01048 15.1452 9.03495C15.1615 9.05943 15.1778 9.0839 15.1982 9.10837C15.2145 9.13285 15.2309 9.1614 15.2472 9.18587C15.2798 9.2389 15.3124 9.28785 15.3451 9.34087C15.3777 9.3939 15.4063 9.44693 15.4389 9.49995L15.4634 9.54074L15.4756 9.56114L18.9631 8.64337C18.959 8.63929 18.959 8.63521 18.955 8.63113C18.9346 8.5985 18.9142 8.56587 18.8978 8.52916C18.8775 8.49653 18.8571 8.4639 18.8367 8.42719C18.7959 8.35784 18.751 8.2885 18.7061 8.21916C18.6123 8.08047 18.5185 7.93771 18.4165 7.79903C18.3921 7.76231 18.3635 7.72968 18.339 7.69297L18.3023 7.63995L18.2615 7.58692C18.2085 7.51758 18.1555 7.44823 18.0984 7.37889C18.0453 7.30955 17.9882 7.24021 17.9311 7.17494C17.9026 7.14231 17.874 7.1056 17.8455 7.07297C17.8169 7.04034 17.7884 7.00771 17.7598 6.97507C17.7313 6.94244 17.7027 6.90981 17.6742 6.87718C17.6456 6.84455 17.6171 6.81192 17.5885 6.78336C17.5314 6.72218 17.4743 6.66099 17.4172 6.59981C17.3601 6.53863 17.303 6.48152 17.2459 6.42849C17.1888 6.37139 17.1357 6.31836 17.0786 6.26533C17.0215 6.21231 16.9685 6.16336 16.9195 6.11441C16.8665 6.06547 16.8135 6.0206 16.7645 5.97573C16.7156 5.93086 16.6667 5.89007 16.6218 5.85336C16.5769 5.81665 16.532 5.77994 16.4913 5.74323C16.4505 5.7106 16.4097 5.67796 16.377 5.64941C16.3403 5.62086 16.3077 5.59638 16.2751 5.57191C16.2302 5.53928 16.1935 5.51073 16.1649 5.48625C16.1201 5.45362 16.0548 5.4577 16.0181 5.50257L14.1785 7.72968C14.1418 7.77047 14.1459 7.83166 14.1866 7.87245C14.1948 7.89284 14.2111 7.90916 14.2315 7.92955Z" fill="#E01212"/>
<path d="M15.1493 4.81346C15.1248 4.80123 15.1004 4.78491 15.0677 4.76451C15.0555 4.75636 15.0392 4.7482 15.0229 4.74004C15.0066 4.73188 14.9862 4.71965 14.9698 4.71149C14.925 4.68702 14.8801 4.66254 14.8312 4.63399C14.7822 4.60544 14.7292 4.57688 14.6721 4.54833C14.6191 4.51978 14.562 4.4953 14.5048 4.46267C14.4477 4.43412 14.3866 4.40149 14.3213 4.37293C14.256 4.34438 14.1908 4.31175 14.1214 4.2832C14.0521 4.25057 13.9827 4.22201 13.9093 4.19346C13.8359 4.16491 13.7625 4.13228 13.6891 4.10372C13.6687 4.09556 13.6483 4.08741 13.6319 4.08333C12.5551 3.69583 11.674 3.5449 11.674 3.5449C11.6169 3.53675 11.5598 3.52859 11.5027 3.51635C11.466 3.51227 11.4252 3.50412 11.3885 3.50004C11.3518 3.49596 11.3151 3.49188 11.2784 3.4878C11.205 3.47964 11.1356 3.47148 11.0663 3.46333C10.9969 3.45925 10.9317 3.45109 10.8664 3.44701C10.8011 3.44293 10.74 3.43477 10.6829 3.43477C10.6258 3.43069 10.5686 3.43069 10.5156 3.42661C10.4626 3.42254 10.4136 3.42254 10.3688 3.41846C10.3239 3.41846 10.2831 3.41846 10.2464 3.41846C10.1934 3.41846 10.1485 3.41846 10.1118 3.41846C10.0547 3.41846 10.0098 3.46333 10.0057 3.52043L9.8997 5.73123C9.89562 5.78426 9.93641 5.8332 9.98943 5.84136C10.0139 5.84544 10.0384 5.84952 10.071 5.8536C10.0996 5.85768 10.1281 5.86176 10.1648 5.86584C10.1975 5.86991 10.2342 5.87807 10.275 5.88623C10.3117 5.89439 10.3565 5.89847 10.3973 5.90662C10.434 5.91478 10.4748 5.92294 10.5156 5.9311C10.5156 5.9311 12.1594 6.28189 12.9834 6.93045C13.0201 6.95492 13.0527 6.97939 13.0854 6.99979C13.1262 7.02426 13.1629 7.04874 13.1955 7.07321C13.2281 7.09768 13.2567 7.11808 13.2852 7.13847C13.3138 7.15887 13.3383 7.17518 13.3627 7.19558C13.375 7.20374 13.3913 7.21597 13.4035 7.22821C13.4198 7.24045 13.4321 7.2486 13.4443 7.26084C13.4729 7.28124 13.4973 7.30163 13.5218 7.31795C13.5708 7.35466 13.6401 7.34242 13.6727 7.28939L15.1901 4.97662C15.2187 4.91136 15.2023 4.84202 15.1493 4.81346Z" fill="#E01212" fill-opacity="0.88"/>
</svg>
