<svg width="20" height="20" viewBox="0 0 20 20" fill="none" xmlns="http://www.w3.org/2000/svg">
<path d="M8.45007 6.13986L8.54023 6.12698C8.57029 6.12269 8.60034 6.12269 8.6304 6.11839C8.69051 6.1141 8.74633 6.10551 8.80215 6.10122C8.85796 6.09693 8.90949 6.09263 8.96101 6.08834C8.98677 6.08834 9.01253 6.08405 9.0383 6.08405C9.06406 6.08405 9.08553 6.07975 9.107 6.07975C9.14993 6.07975 9.19287 6.07546 9.23151 6.07546C9.27015 6.07546 9.3045 6.07116 9.33885 6.07116H9.45049H9.54924C9.61364 6.07116 9.66517 6.01535 9.66088 5.95094L9.51918 3.75689C9.51489 3.69248 9.45907 3.64525 9.39467 3.65384C9.36461 3.65813 9.33456 3.66243 9.29592 3.66672C9.26157 3.67102 9.22292 3.67531 9.17999 3.6796C9.13276 3.68819 9.07694 3.69678 9.02112 3.70107C8.9653 3.70966 8.90519 3.71825 8.84079 3.72683C8.80644 3.73113 8.77638 3.73542 8.74633 3.74401C8.71627 3.7483 8.68192 3.75689 8.65187 3.76118C8.58746 3.77406 8.51876 3.78694 8.44577 3.79983C8.37707 3.817 8.30408 3.83417 8.23109 3.85135C8.19245 3.85994 8.1581 3.86852 8.11946 3.87711C8.08081 3.8857 8.04217 3.89858 8.00353 3.90717C7.92624 3.92863 7.84896 3.9501 7.76738 3.97157C7.69009 3.99733 7.60851 4.0188 7.52693 4.04456C7.48829 4.05744 7.44535 4.07032 7.40242 4.08321C7.36377 4.09609 7.32084 4.10897 7.2779 4.12614C7.23496 4.13902 7.19632 4.1562 7.15339 4.16908C7.11045 4.18196 7.07181 4.19913 7.02887 4.21202C6.94729 4.24207 6.86571 4.27642 6.78413 4.30648C6.70255 4.33653 6.62097 4.37517 6.53939 4.40952C6.50075 4.4267 6.45781 4.44387 6.41917 4.46105C6.38053 4.47822 6.34189 4.4954 6.29895 4.51686C6.26031 4.53404 6.22166 4.55121 6.18302 4.57268C6.14438 4.58986 6.10574 4.60703 6.06709 4.6285C5.98981 4.66714 5.91682 4.70578 5.84382 4.74013C5.77083 4.77878 5.70213 4.81742 5.63343 4.85606C5.56474 4.89471 5.49604 4.92905 5.43163 4.9677C5.36723 5.00634 5.30282 5.04498 5.24271 5.07933C5.1826 5.11368 5.12678 5.15232 5.07097 5.18667C5.01515 5.22102 4.96363 5.25537 4.9121 5.28543C4.86487 5.31978 4.81764 5.34983 4.7747 5.37989C4.73177 5.40994 4.68883 5.44 4.65448 5.46576C4.61584 5.49152 4.58149 5.51728 4.55144 5.53875C4.5085 5.56881 4.47415 5.59457 4.44409 5.61604C4.39686 5.65039 4.38398 5.71908 4.41833 5.76632L5.32859 7.10593C5.36293 7.15316 5.42305 7.17034 5.47457 7.14028C5.49604 7.1274 5.52609 7.11023 5.55615 7.09305C5.58191 7.07588 5.61197 7.0587 5.64632 7.04153C5.68066 7.02435 5.71501 7.00718 5.75366 6.98571C5.7923 6.96424 5.83094 6.94278 5.87388 6.92131C5.91682 6.89984 5.96405 6.87837 6.01128 6.8569C6.05851 6.83543 6.11003 6.80967 6.16155 6.7882C6.21308 6.76674 6.26889 6.74097 6.32471 6.71521C6.38053 6.68945 6.43635 6.66798 6.49646 6.64222C6.55657 6.62075 6.61668 6.59499 6.67679 6.57352C6.7369 6.55205 6.80131 6.53059 6.86571 6.50482C6.89577 6.49194 6.93012 6.48335 6.96017 6.47047C6.99452 6.46189 7.02458 6.44901 7.05892 6.44042C7.09327 6.43183 7.12333 6.41895 7.15768 6.41036C7.19203 6.40178 7.22638 6.39319 7.25643 6.38031C7.32513 6.36313 7.38954 6.34166 7.45823 6.32449C7.52693 6.30731 7.59134 6.29014 7.66004 6.27297C7.69438 6.26438 7.72873 6.25579 7.76308 6.2515C7.79743 6.24291 7.83178 6.23862 7.86184 6.23003C7.89619 6.22144 7.92624 6.21715 7.96059 6.20856C7.99494 6.19997 8.025 6.19568 8.05934 6.19139C8.12375 6.17851 8.18815 6.16992 8.25256 6.15704C8.32555 6.15704 8.38996 6.14845 8.45007 6.13986Z" fill="black" fill-opacity="0.72"/>
<path d="M2.24128 7.86999C2.21552 7.90434 2.19405 7.93869 2.16829 7.97303C2.14253 8.00738 2.12106 8.04173 2.0953 8.07608C2.06954 8.11043 2.04807 8.14478 2.0266 8.17913C1.97937 8.24783 1.93214 8.32082 1.8892 8.38952C1.84627 8.46251 1.79904 8.5355 1.7561 8.6042L1.72175 8.65572L1.6917 8.71154C1.67023 8.74589 1.64876 8.78453 1.63158 8.81888C1.54571 8.96057 1.47272 9.10656 1.39973 9.24825C1.36538 9.31695 1.33103 9.38994 1.29668 9.45864C1.2795 9.49298 1.26233 9.52733 1.24945 9.56168C1.23227 9.59603 1.21939 9.63038 1.20651 9.66044C1.17646 9.72484 1.1464 9.78925 1.12064 9.85365C1.09488 9.91806 1.06912 9.97817 1.04765 10.034C1.02618 10.0941 1.00042 10.1456 0.97895 10.2014C0.957481 10.253 0.940307 10.3045 0.923132 10.3517C0.905958 10.3989 0.888783 10.4419 0.871608 10.4848C0.858728 10.5278 0.845847 10.5664 0.832966 10.6007C0.815791 10.648 0.80291 10.6866 0.794323 10.7167C0.777148 10.7725 0.80291 10.8326 0.858728 10.8541L1.70458 11.1804C1.76039 11.2019 1.8205 11.1761 1.84627 11.1246C1.85915 11.0988 1.87203 11.0688 1.8892 11.0344C1.90208 11.0043 1.91926 10.9743 1.93643 10.9356C1.95361 10.9013 1.97508 10.8627 1.99654 10.824C2.01801 10.7854 2.03948 10.7424 2.06095 10.6952C2.08242 10.6523 2.11247 10.605 2.13823 10.5578C2.164 10.5106 2.19405 10.4591 2.22411 10.4075C2.25416 10.356 2.28851 10.3045 2.31857 10.2487C2.33574 10.2229 2.35292 10.1928 2.37009 10.1671C2.38727 10.1413 2.40444 10.1113 2.42162 10.0855C2.45596 10.0297 2.49461 9.97387 2.53325 9.91376C2.61483 9.80213 2.69211 9.68191 2.77799 9.56598C2.79946 9.53592 2.82092 9.50587 2.84239 9.4801L2.87674 9.43717L2.91109 9.39423C2.95832 9.33841 3.00126 9.2783 3.04849 9.22249C3.09572 9.16667 3.14295 9.11085 3.19018 9.05503C3.21594 9.02927 3.23741 8.99922 3.25888 8.97345C3.28464 8.94769 3.30611 8.92193 3.33187 8.89187C3.35763 8.86611 3.3791 8.84035 3.40486 8.81459C3.42633 8.78883 3.45209 8.76307 3.47785 8.7373C3.52508 8.68578 3.57661 8.63855 3.62384 8.58703C3.67107 8.5398 3.7183 8.49257 3.76553 8.44534C3.81276 8.39811 3.85569 8.35517 3.90292 8.31223C3.95015 8.2693 3.99309 8.23065 4.03603 8.19201C4.07896 8.15337 4.1219 8.11902 4.16484 8.08038C4.20777 8.04603 4.24641 8.01168 4.28076 7.98162C4.31941 7.95157 4.35376 7.9258 4.38381 7.90004C4.41816 7.87428 4.44822 7.84852 4.47398 7.82705C4.48686 7.81846 4.50403 7.80558 4.52121 7.7927C4.53838 7.77982 4.55126 7.77123 4.56414 7.75835C4.5942 7.73688 4.61996 7.71542 4.64143 7.69824C4.69295 7.6596 4.70154 7.58661 4.6586 7.53938L3.69253 6.40156C3.6496 6.35433 3.57661 6.35004 3.52938 6.39297C3.50791 6.41444 3.48644 6.43591 3.45638 6.46167C3.4435 6.47455 3.43062 6.48743 3.41774 6.50031C3.40486 6.51319 3.39198 6.52608 3.3748 6.54325C3.34046 6.5776 3.30611 6.61195 3.26746 6.65059C3.22882 6.68923 3.19018 6.73217 3.14724 6.77511C3.1086 6.81804 3.06566 6.86527 3.02273 6.9125C2.97979 6.95973 2.93256 7.00696 2.88962 7.05849C2.84669 7.11001 2.79946 7.16583 2.75223 7.22165C2.705 7.27746 2.65777 7.33328 2.61054 7.39339C2.56331 7.4535 2.51178 7.51361 2.46455 7.57802C2.41732 7.64242 2.3658 7.70683 2.31857 7.77123C2.28851 7.80129 2.26275 7.83564 2.24128 7.86999Z" fill="black" fill-opacity="0.48"/>
<path d="M0.485132 11.8338C0.480838 11.8595 0.472251 11.8939 0.463663 11.9325C0.455076 11.9669 0.450782 12.0055 0.442195 12.0442C0.433608 12.0871 0.425021 12.1343 0.416433 12.1858C0.407846 12.2374 0.399259 12.2889 0.390671 12.349C0.386378 12.3791 0.382084 12.4048 0.37779 12.4349C0.373497 12.4649 0.369203 12.495 0.36491 12.525C0.347735 12.6496 0.326267 12.7784 0.317679 12.9201C0.309092 12.9888 0.304798 13.0617 0.296211 13.1347C0.291918 13.2077 0.287624 13.285 0.279037 13.3623C0.266156 13.5169 0.266156 13.6757 0.257568 13.8346V13.8947V13.9548V14.075V14.1953V14.2554L0.261862 14.3155C0.266156 14.3971 0.270449 14.4787 0.270449 14.5602L0.274743 14.6203V14.6418V14.6547L0.279037 14.6847C0.28333 14.7234 0.28333 14.762 0.287624 14.8007C0.291918 14.8393 0.291918 14.878 0.296211 14.9166C0.300505 14.9552 0.304798 14.9982 0.309092 15.0368C0.313386 15.0755 0.317679 15.1141 0.321973 15.1528C0.321973 15.1742 0.326267 15.1914 0.326267 15.2129C0.33056 15.23 0.33056 15.2515 0.334854 15.2687C0.343441 15.346 0.352029 15.419 0.36491 15.492C0.37779 15.5649 0.386378 15.6336 0.399259 15.7023C0.407846 15.771 0.420727 15.8354 0.433608 15.8998C0.433608 15.9041 0.433608 15.9084 0.437901 15.917C0.446489 15.9685 0.493719 16.0072 0.545243 16.0072H0.845798C0.910203 16.0072 0.961726 15.9514 0.957433 15.8913C0.957433 15.8741 0.957433 15.8569 0.953139 15.8397C0.948845 15.7796 0.944552 15.7152 0.944552 15.6465C0.940258 15.5821 0.940258 15.5134 0.935964 15.4447C0.935964 15.376 0.935964 15.303 0.935964 15.2343C0.935964 15.2172 0.935964 15.2 0.935964 15.1785C0.935964 15.1613 0.935964 15.1442 0.935964 15.127C0.935964 15.0926 0.935964 15.054 0.940258 15.0197C0.940258 14.9853 0.940258 14.9467 0.944552 14.9123C0.944552 14.8737 0.948845 14.835 0.948845 14.7964C0.948845 14.7577 0.953139 14.7191 0.953139 14.6805V14.6504V14.6375C0.953139 14.6332 0.953139 14.6418 0.953139 14.6418V14.6375V14.6289L0.957433 14.5731C0.961726 14.4958 0.970314 14.4228 0.974607 14.3455L0.978901 14.2897L0.987488 14.2339C0.991782 14.1953 0.996076 14.1566 1.00037 14.1223C1.00466 14.0836 1.00896 14.0493 1.01325 14.0106L1.01754 13.9548L1.02613 13.899C1.0476 13.753 1.06907 13.607 1.09483 13.4654C1.10771 13.3967 1.12059 13.328 1.13347 13.2593C1.14635 13.1949 1.16353 13.1262 1.17641 13.066C1.20217 12.9372 1.23652 12.8213 1.26228 12.714C1.27087 12.6882 1.27516 12.6581 1.28375 12.6324C1.29234 12.6066 1.29663 12.5809 1.30522 12.5594C1.3181 12.5122 1.33527 12.4649 1.34386 12.422C1.35674 12.3791 1.36962 12.3404 1.37821 12.3018C1.39109 12.2631 1.40397 12.2245 1.41256 12.1944C1.42544 12.1601 1.43403 12.1257 1.44261 12.1C1.46408 12.0399 1.42973 11.9755 1.36533 11.9583L0.618235 11.7565C0.562417 11.735 0.498013 11.7737 0.485132 11.8338Z" fill="black" fill-opacity="0.24"/>
<path d="M14.6196 9.22408C14.5778 9.19634 14.5229 9.18814 14.4671 9.21913L8.84474 12.4275C8.41734 12.6703 8.26978 13.2137 8.51413 13.6384C8.58325 13.7596 8.67615 13.8584 8.78526 13.9322C9.05726 14.1182 9.42156 14.1442 9.72505 13.969C9.78458 13.9347 9.83968 13.8925 9.8878 13.8498L14.6395 9.45237C14.7188 9.38073 14.6896 9.27174 14.6196 9.22408Z" fill="black"/>
<path d="M14.9805 8.34687L15.0492 8.41557C15.075 8.44133 15.0964 8.46709 15.1265 8.49715C15.1522 8.5272 15.1823 8.55726 15.2124 8.58732C15.2424 8.62166 15.2725 8.65601 15.3068 8.69036C15.3369 8.72901 15.3755 8.76335 15.4056 8.80629C15.4399 8.84493 15.4743 8.88787 15.5086 8.93081C15.543 8.97374 15.5816 9.02097 15.616 9.06391C15.6503 9.11114 15.689 9.15837 15.7276 9.2056C15.7619 9.25283 15.8006 9.30435 15.8349 9.35588C15.8521 9.38164 15.8736 9.4074 15.8908 9.43316C15.9079 9.45893 15.9251 9.48469 15.9423 9.51045C15.9595 9.53621 15.9766 9.56197 15.9981 9.58773C16.0153 9.6135 16.0324 9.64355 16.0496 9.66931C16.084 9.72513 16.1183 9.77666 16.1527 9.83247C16.187 9.88829 16.2171 9.94411 16.2514 9.99993L16.2772 10.0429L16.2901 10.0643L19.9611 9.09826C19.9568 9.09397 19.9568 9.08967 19.9525 9.08538C19.9311 9.05103 19.9096 9.01668 19.8924 8.97804C19.871 8.94369 19.8495 8.90934 19.828 8.8707C19.7851 8.7977 19.7379 8.72471 19.6906 8.65172C19.5919 8.50574 19.4931 8.35546 19.3858 8.20947C19.36 8.17083 19.33 8.13648 19.3042 8.09784L19.2656 8.04202L19.2226 7.98621C19.1668 7.91321 19.111 7.84022 19.0509 7.76723C18.9951 7.69424 18.9349 7.62125 18.8748 7.55255C18.8448 7.5182 18.8147 7.47955 18.7847 7.44521C18.7546 7.41086 18.7246 7.37651 18.6945 7.34216C18.6644 7.30781 18.6344 7.27346 18.6043 7.23911C18.5743 7.20476 18.5442 7.17041 18.5142 7.14036C18.4541 7.07595 18.3939 7.01155 18.3338 6.94714C18.2737 6.88274 18.2136 6.82263 18.1535 6.76681C18.0934 6.7067 18.0376 6.65088 17.9775 6.59506C17.9174 6.53925 17.8615 6.48772 17.81 6.4362C17.7542 6.38467 17.6984 6.33745 17.6469 6.29021C17.5953 6.24298 17.5438 6.20005 17.4966 6.16141C17.4493 6.12276 17.4021 6.08412 17.3592 6.04548C17.3162 6.01113 17.2733 5.97678 17.239 5.94672C17.2003 5.91667 17.166 5.89091 17.1316 5.86514C17.0844 5.83079 17.0457 5.80074 17.0157 5.77498C16.9685 5.74063 16.8998 5.74492 16.8611 5.79215L14.9247 8.13648C14.886 8.17942 14.8903 8.24382 14.9333 8.28676C14.9419 8.30823 14.959 8.3254 14.9805 8.34687Z" fill="black"/>
<path d="M15.9466 5.06657C15.9209 5.05369 15.8951 5.03652 15.8608 5.01505C15.8479 5.00646 15.8307 4.99787 15.8135 4.98929C15.7964 4.9807 15.7749 4.96782 15.7577 4.95923C15.7105 4.93347 15.6632 4.90771 15.6117 4.87765C15.5602 4.8476 15.5044 4.81754 15.4443 4.78748C15.3885 4.75743 15.3283 4.73167 15.2682 4.69732C15.2081 4.66726 15.1437 4.63291 15.075 4.60286C15.0063 4.5728 14.9376 4.53845 14.8646 4.5084C14.7916 4.47405 14.7186 4.44399 14.6414 4.41394C14.5641 4.38388 14.4868 4.34953 14.4095 4.31948C14.388 4.31089 14.3666 4.3023 14.3494 4.29801C13.2159 3.89011 12.2884 3.73125 12.2884 3.73125C12.2283 3.72266 12.1682 3.71407 12.1081 3.70119C12.0695 3.6969 12.0265 3.68831 11.9879 3.68402C11.9492 3.67972 11.9106 3.67543 11.872 3.67114C11.7947 3.66255 11.7217 3.65396 11.6487 3.64537C11.5757 3.64108 11.507 3.63249 11.4383 3.6282C11.3696 3.62391 11.3052 3.61532 11.2451 3.61532C11.185 3.61103 11.1249 3.61103 11.069 3.60673C11.0132 3.60244 10.9617 3.60244 10.9145 3.59814C10.8672 3.59814 10.8243 3.59814 10.7857 3.59814C10.7298 3.59814 10.6826 3.59814 10.644 3.59814C10.5839 3.59814 10.5366 3.64537 10.5323 3.70549L10.4207 6.03264C10.4164 6.08846 10.4593 6.13998 10.5152 6.14857C10.5409 6.15286 10.5667 6.15716 10.601 6.16145C10.6311 6.16575 10.6612 6.17004 10.6998 6.17433C10.7341 6.17863 10.7728 6.18721 10.8157 6.1958C10.8544 6.20439 10.9016 6.20868 10.9445 6.21727C10.9832 6.22586 11.0261 6.23444 11.069 6.24303C11.069 6.24303 12.7994 6.61228 13.6667 7.29497C13.7053 7.32074 13.7397 7.3465 13.774 7.36797C13.817 7.39373 13.8556 7.41949 13.89 7.44525C13.9243 7.47101 13.9544 7.49248 13.9844 7.51395C14.0145 7.53542 14.0403 7.55259 14.066 7.57406C14.0789 7.58265 14.0961 7.59553 14.1089 7.60841C14.1261 7.62129 14.139 7.62988 14.1519 7.64276C14.1819 7.66423 14.2077 7.6857 14.2335 7.70287C14.285 7.74151 14.358 7.72863 14.3923 7.67282L15.9896 5.23832C16.0196 5.16962 16.0024 5.09663 15.9466 5.06657Z" fill="black" fill-opacity="0.88"/>
</svg>
