<svg width="26" height="27" viewBox="0 0 26 27" fill="none" xmlns="http://www.w3.org/2000/svg">
<path d="M21.45 21.6993H4.55C4.1925 21.6993 3.9 21.9918 3.9 22.3493V23.6493C3.9 24.0068 4.1925 24.2993 4.55 24.2993H21.45C21.8075 24.2993 22.1 24.0068 22.1 23.6493V22.3493C22.1 21.9918 21.8075 21.6993 21.45 21.6993ZM24.05 8.69927C22.9734 8.69927 22.1 9.57271 22.1 10.6493C22.1 10.9377 22.165 11.2058 22.2787 11.4536L19.3375 13.2168C18.7119 13.5905 17.9034 13.3793 17.5419 12.7455L14.2309 6.95239C14.6656 6.59489 14.95 6.05864 14.95 5.44927C14.95 4.37271 14.0766 3.49927 13 3.49927C11.9234 3.49927 11.05 4.37271 11.05 5.44927C11.05 6.05864 11.3344 6.59489 11.7691 6.95239L8.45812 12.7455C8.09656 13.3793 7.28406 13.5905 6.6625 13.2168L3.72531 11.4536C3.835 11.2099 3.90406 10.9377 3.90406 10.6493C3.90406 9.57271 3.03062 8.69927 1.95406 8.69927C0.8775 8.69927 0 9.57271 0 10.6493C0 11.7258 0.873437 12.5993 1.95 12.5993C2.05562 12.5993 2.16125 12.583 2.26281 12.5668L5.2 20.3993H20.8L23.7372 12.5668C23.8387 12.583 23.9444 12.5993 24.05 12.5993C25.1266 12.5993 26 11.7258 26 10.6493C26 9.57271 25.1266 8.69927 24.05 8.69927Z" fill="url(#paint0_linear_3295_15992)"/>
<defs>
<linearGradient id="paint0_linear_3295_15992" x1="34.3278" y1="24.3315" x2="13.1709" y2="-6.22931" gradientUnits="userSpaceOnUse">
<stop stop-color="#007AFF"/>
<stop offset="1" stop-color="#81F0FF"/>
</linearGradient>
</defs>
</svg>
