<svg width="22" height="23" viewBox="0 0 22 23" fill="none" xmlns="http://www.w3.org/2000/svg">
<path d="M18.15 17.8897H3.85C3.5475 17.8897 3.3 18.1372 3.3 18.4397V19.5397C3.3 19.8422 3.5475 20.0897 3.85 20.0897H18.15C18.4525 20.0897 18.7 19.8422 18.7 19.5397V18.4397C18.7 18.1372 18.4525 17.8897 18.15 17.8897ZM20.35 6.88975C19.4391 6.88975 18.7 7.62881 18.7 8.53975C18.7 8.78381 18.755 9.01068 18.8513 9.22037L16.3625 10.7122C15.8331 11.0285 15.1491 10.8497 14.8431 10.3135L12.0416 5.41162C12.4094 5.10912 12.65 4.65537 12.65 4.13975C12.65 3.22881 11.9109 2.48975 11 2.48975C10.0891 2.48975 9.35 3.22881 9.35 4.13975C9.35 4.65537 9.59063 5.10912 9.95844 5.41162L7.15688 10.3135C6.85094 10.8497 6.16344 11.0285 5.6375 10.7122L3.15219 9.22037C3.245 9.01412 3.30344 8.78381 3.30344 8.53975C3.30344 7.62881 2.56437 6.88975 1.65344 6.88975C0.7425 6.88975 0 7.62881 0 8.53975C0 9.45068 0.739062 10.1897 1.65 10.1897C1.73937 10.1897 1.82875 10.176 1.91469 10.1622L4.4 16.7897H17.6L20.0853 10.1622C20.1712 10.176 20.2606 10.1897 20.35 10.1897C21.2609 10.1897 22 9.45068 22 8.53975C22 7.62881 21.2609 6.88975 20.35 6.88975Z" fill="url(#paint0_linear_44_2963)"/>
<defs>
<linearGradient id="paint0_linear_44_2963" x1="8.26141" y1="14.5897" x2="24.6394" y2="14.9437" gradientUnits="userSpaceOnUse">
<stop stop-color="#3E57DA"/>
<stop offset="1" stop-color="#212E74"/>
</linearGradient>
</defs>
</svg>
