<svg width="32" height="32" viewBox="0 0 32 32" fill="none" xmlns="http://www.w3.org/2000/svg">
<path d="M12.2865 17.1918V23.0908C12.2865 23.4436 12.1446 23.7819 11.8919 24.0314C11.6393 24.2808 11.2966 24.4209 10.9393 24.4209H9.35596C9.17831 24.4221 9.00219 24.3885 8.83773 24.3222C8.67327 24.2558 8.52372 24.1581 8.3977 24.0344C8.27167 23.9108 8.17166 23.7638 8.10341 23.6018C8.03516 23.4399 8.00002 23.2662 8.00003 23.0908V17.1918C7.99887 17.0157 8.03315 16.8411 8.10088 16.6781C8.16861 16.5152 8.26844 16.3672 8.39458 16.2426C8.52072 16.1181 8.67066 16.0195 8.83569 15.9526C9.00073 15.8858 9.17757 15.8519 9.35596 15.8531H10.9393C11.117 15.8531 11.2929 15.8878 11.4569 15.9551C11.6209 16.0225 11.7698 16.1213 11.895 16.2457C12.0203 16.3701 12.1193 16.5178 12.1865 16.6801C12.2537 16.8425 12.2877 17.0164 12.2865 17.1918ZM18.1476 8.91759V23.0908C18.1476 23.2662 18.1125 23.4399 18.0443 23.6018C17.976 23.7638 17.876 23.9108 17.75 24.0344C17.6239 24.1581 17.4744 24.2558 17.3099 24.3222C17.1455 24.3885 16.9694 24.4221 16.7917 24.4209H15.2083C14.8502 24.4209 14.5067 24.2811 14.2526 24.0319C13.9986 23.7827 13.8547 23.4444 13.8524 23.0908V8.91759C13.8547 8.56323 13.9983 8.22404 14.2521 7.97346C14.5059 7.72289 14.8494 7.58112 15.2083 7.57886H16.7917C17.1513 7.57886 17.4962 7.7199 17.7505 7.97096C18.0048 8.22202 18.1476 8.56253 18.1476 8.91759ZM24 13.3915V23.0908C24 23.4436 23.8581 23.7819 23.6054 24.0314C23.3528 24.2808 23.0101 24.4209 22.6528 24.4209H21.0694C20.8918 24.4221 20.7157 24.3885 20.5512 24.3222C20.3868 24.2558 20.2372 24.1581 20.1112 24.0344C19.9852 23.9108 19.8851 23.7638 19.8169 23.6018C19.7486 23.4399 19.7135 23.2662 19.7135 23.0908V13.3915C19.7135 13.2157 19.7486 13.0416 19.8167 12.8792C19.8849 12.7168 19.9847 12.5692 20.1107 12.4449C20.2366 12.3206 20.386 12.222 20.5506 12.1547C20.7151 12.0874 20.8914 12.0528 21.0694 12.0528H22.6878C23.0398 12.064 23.3735 12.21 23.6184 12.4599C23.8633 12.7097 24.0002 13.0438 24 13.3915Z" fill="black" fill-opacity="0.5"/>
</svg>
