<svg width="40" height="40" viewBox="0 0 40 40" fill="none" xmlns="http://www.w3.org/2000/svg">
<rect width="40" height="40" rx="11.1193" fill="#FF0000" fill-opacity="0.1"/>
<path d="M13.8991 28.3395C13.3895 28.3395 12.9534 28.1582 12.5907 27.7956C12.2281 27.433 12.0465 26.9966 12.0459 26.4863V13.5139C12.0459 13.0042 12.2275 12.5681 12.5907 12.2055C12.954 11.8429 13.3901 11.6613 13.8991 11.6606H19.4587C19.7213 11.6606 19.9415 11.7496 20.1194 11.9275C20.2973 12.1054 20.386 12.3253 20.3853 12.5873C20.3847 12.8492 20.2958 13.0694 20.1185 13.2479C19.9412 13.4264 19.7213 13.5151 19.4587 13.5139H13.8991V26.4863H19.4587C19.7213 26.4863 19.9415 26.5753 20.1194 26.7532C20.2973 26.9311 20.386 27.151 20.3853 27.4129C20.3847 27.6749 20.2958 27.8951 20.1185 28.0736C19.9412 28.2521 19.7213 28.3408 19.4587 28.3395H13.8991ZM25.1805 20.9267H18.5321C18.2696 20.9267 18.0497 20.8377 17.8724 20.6598C17.6951 20.4819 17.6061 20.262 17.6055 20.0001C17.6049 19.7382 17.6939 19.5183 17.8724 19.3404C18.0509 19.1624 18.2708 19.0735 18.5321 19.0735H25.1805L23.4431 17.3361C23.2733 17.1662 23.1883 16.9577 23.1883 16.7106C23.1883 16.4636 23.2733 16.2473 23.4431 16.062C23.613 15.8767 23.8292 15.78 24.0918 15.772C24.3543 15.764 24.5782 15.8529 24.7636 16.0389L28.0762 19.3515C28.2615 19.5368 28.3542 19.753 28.3542 20.0001C28.3542 20.2472 28.2615 20.4634 28.0762 20.6487L24.7636 23.9613C24.5782 24.1467 24.3583 24.2356 24.1038 24.2282C23.8493 24.2208 23.6291 24.1241 23.4431 23.9382C23.2733 23.7528 23.1923 23.5329 23.2004 23.2784C23.2084 23.0239 23.2971 22.8114 23.4663 22.6409L25.1805 20.9267Z" fill="#FF4141"/>
</svg>
