<svg width="36" height="23" viewBox="0 0 36 23" fill="none" xmlns="http://www.w3.org/2000/svg">
<path d="M15.21 5.05185L15.3723 5.02867C15.4264 5.02094 15.4805 5.02094 15.5346 5.01321C15.6428 5.00548 15.7433 4.99002 15.8438 4.98229C15.9442 4.97456 16.037 4.96684 16.1297 4.95911C16.1761 4.95911 16.2225 4.95138 16.2688 4.95138C16.3152 4.95138 16.3539 4.94365 16.3925 4.94365C16.4698 4.94365 16.5471 4.93592 16.6166 4.93592C16.6862 4.93592 16.748 4.92819 16.8098 4.92819H17.0108H17.1885C17.3045 4.92819 17.3972 4.82772 17.3895 4.71179L17.1344 0.762497C17.1267 0.646569 17.0262 0.561555 16.9103 0.577012C16.8562 0.58474 16.8021 0.592469 16.7326 0.600198C16.6707 0.607926 16.6012 0.615655 16.5239 0.623384C16.4389 0.638841 16.3384 0.654298 16.2379 0.662026C16.1375 0.677484 16.0293 0.692941 15.9133 0.708398C15.8515 0.716126 15.7974 0.723855 15.7433 0.739312C15.6892 0.747041 15.6274 0.762497 15.5733 0.770226C15.4573 0.793412 15.3337 0.816597 15.2023 0.839783C15.0786 0.870697 14.9473 0.901612 14.8159 0.932526C14.7463 0.947983 14.6845 0.96344 14.6149 0.978898C14.5454 0.994355 14.4758 1.01754 14.4063 1.033C14.2671 1.07164 14.128 1.11028 13.9812 1.14893C13.8421 1.1953 13.6952 1.23394 13.5484 1.28031C13.4788 1.3035 13.4015 1.32668 13.3243 1.34987C13.2547 1.37305 13.1774 1.39624 13.1001 1.42715C13.0228 1.45034 12.9533 1.48125 12.876 1.50444C12.7987 1.52763 12.7292 1.55854 12.6519 1.58173C12.505 1.63583 12.3582 1.69765 12.2113 1.75175C12.0645 1.80585 11.9177 1.87541 11.7708 1.93724C11.7013 1.96815 11.624 1.99907 11.5544 2.02998C11.4849 2.0609 11.4153 2.09181 11.338 2.13045C11.2685 2.16137 11.1989 2.19228 11.1293 2.23093C11.0598 2.26184 10.9902 2.29275 10.9207 2.3314C10.7816 2.40095 10.6502 2.47051 10.5188 2.53234C10.3874 2.6019 10.2637 2.67145 10.1401 2.74101C10.0164 2.81057 9.89277 2.8724 9.77684 2.94195C9.66091 3.01151 9.54498 3.08107 9.43678 3.14289C9.32858 3.20472 9.22811 3.27428 9.12764 3.33611C9.02717 3.39794 8.93443 3.45977 8.84169 3.51387C8.75667 3.57569 8.67166 3.62979 8.59437 3.68389C8.51709 3.73799 8.4398 3.79209 8.37797 3.83847C8.30841 3.88484 8.24659 3.93121 8.19249 3.96985C8.1152 4.02395 8.05337 4.07032 7.99927 4.10897C7.91426 4.17079 7.89107 4.29445 7.9529 4.37946L9.59136 6.79078C9.65318 6.87579 9.76138 6.90671 9.85413 6.85261C9.89277 6.82942 9.94687 6.79851 10.001 6.76759C10.0473 6.73668 10.1014 6.70576 10.1633 6.67485C10.2251 6.64394 10.2869 6.61302 10.3565 6.57438C10.426 6.53574 10.4956 6.49709 10.5729 6.45845C10.6502 6.41981 10.7352 6.38116 10.8202 6.34252C10.9052 6.30388 10.998 6.25751 11.0907 6.21886C11.1834 6.18022 11.2839 6.13385 11.3844 6.08748C11.4849 6.04111 11.5853 6.00246 11.6935 5.95609C11.8017 5.91745 11.9099 5.87108 12.0181 5.83244C12.1263 5.79379 12.2423 5.75515 12.3582 5.70878C12.4123 5.68559 12.4741 5.67014 12.5282 5.64695C12.59 5.63149 12.6441 5.60831 12.706 5.59285C12.7678 5.57739 12.8219 5.55421 12.8837 5.53875C12.9456 5.52329 13.0074 5.50784 13.0615 5.48465C13.1851 5.45374 13.3011 5.41509 13.4247 5.38418C13.5484 5.35326 13.6643 5.32235 13.788 5.29144C13.8498 5.27598 13.9116 5.26052 13.9735 5.25279C14.0353 5.23734 14.0971 5.22961 14.1512 5.21415C14.213 5.19869 14.2671 5.19096 14.329 5.17551C14.3908 5.16005 14.4449 5.15232 14.5067 5.14459C14.6227 5.12141 14.7386 5.10595 14.8545 5.08276C14.9859 5.08276 15.1018 5.06731 15.21 5.05185Z" fill="#1F950C" fill-opacity="0.72"/>
<path d="M4.0344 8.16617C3.98803 8.228 3.94939 8.28983 3.90302 8.35166C3.85665 8.41349 3.81801 8.47531 3.77163 8.53714C3.72526 8.59897 3.68662 8.6608 3.64798 8.72263C3.56296 8.84629 3.47795 8.97767 3.40066 9.10133C3.32338 9.23271 3.23836 9.3641 3.16108 9.48776L3.09925 9.5805L3.04515 9.68097C3.00651 9.7428 2.96786 9.81236 2.93695 9.87418C2.78238 10.1292 2.65099 10.392 2.51961 10.647C2.45778 10.7707 2.39595 10.9021 2.33412 11.0257C2.30321 11.0876 2.27229 11.1494 2.24911 11.2112C2.21819 11.2731 2.19501 11.3349 2.17182 11.389C2.11772 11.5049 2.06362 11.6208 2.01725 11.7368C1.97088 11.8527 1.92451 11.9609 1.88586 12.0614C1.84722 12.1696 1.80085 12.2623 1.76221 12.3628C1.72356 12.4555 1.69265 12.5483 1.66174 12.6333C1.63082 12.7183 1.59991 12.7956 1.56899 12.8729C1.54581 12.9502 1.52262 13.0197 1.49944 13.0815C1.46852 13.1666 1.44534 13.2361 1.42988 13.2902C1.39896 13.3907 1.44534 13.4989 1.54581 13.5375L3.06833 14.1249C3.16881 14.1635 3.27701 14.1172 3.32338 14.0244C3.34656 13.9781 3.36975 13.924 3.40066 13.8621C3.42385 13.808 3.45476 13.7539 3.48568 13.6844C3.51659 13.6225 3.55523 13.553 3.59388 13.4834C3.63252 13.4139 3.67116 13.3366 3.70981 13.2516C3.74845 13.1743 3.80255 13.0893 3.84892 13.0043C3.89529 12.9192 3.94939 12.8265 4.00349 12.7338C4.05759 12.641 4.11942 12.5483 4.17352 12.4478C4.20443 12.4014 4.23535 12.3473 4.26626 12.301C4.29718 12.2546 4.32809 12.2005 4.359 12.1541C4.42083 12.0536 4.49039 11.9532 4.55995 11.845C4.70679 11.644 4.8459 11.4276 5.00048 11.219C5.03912 11.1649 5.07776 11.1108 5.1164 11.0644L5.17823 10.9871L5.24006 10.9098C5.32508 10.8093 5.40236 10.7011 5.48738 10.6007C5.57239 10.5002 5.6574 10.3997 5.74242 10.2993C5.78879 10.2529 5.82743 10.1988 5.86607 10.1524C5.91245 10.106 5.95109 10.0597 5.99746 10.0056C6.04383 9.9592 6.08247 9.91283 6.12885 9.86645C6.16749 9.82008 6.21386 9.77371 6.26023 9.72734C6.34525 9.6346 6.43799 9.54958 6.523 9.45684C6.60802 9.37183 6.69303 9.28681 6.77804 9.2018C6.86306 9.11678 6.94034 9.0395 7.02536 8.96221C7.11037 8.88493 7.18766 8.81537 7.26494 8.74581C7.34223 8.67626 7.41952 8.61443 7.4968 8.54487C7.57409 8.48304 7.64364 8.42121 7.70547 8.36711C7.77503 8.31301 7.83686 8.26664 7.89096 8.22027C7.95279 8.1739 8.00689 8.12753 8.05326 8.08889C8.07644 8.07343 8.10736 8.05024 8.13827 8.02706C8.16919 8.00387 8.19237 7.98841 8.21556 7.96523C8.26966 7.92659 8.31603 7.88794 8.35467 7.85703C8.44741 7.78747 8.46287 7.65609 8.38559 7.57107L6.64666 5.523C6.56937 5.43799 6.43799 5.43026 6.35297 5.50755C6.31433 5.54619 6.27569 5.58483 6.22159 5.6312C6.1984 5.65439 6.17522 5.67757 6.15203 5.70076C6.12885 5.72395 6.10566 5.74713 6.07475 5.77805C6.01292 5.83987 5.95109 5.9017 5.88153 5.97126C5.81197 6.04082 5.74242 6.1181 5.66513 6.19539C5.59558 6.27267 5.51829 6.35769 5.441 6.4427C5.36372 6.52772 5.2787 6.61273 5.20142 6.70547C5.12413 6.79822 5.03912 6.89869 4.9541 6.99916C4.86909 7.09963 4.78408 7.2001 4.69906 7.3083C4.61405 7.4165 4.5213 7.5247 4.43629 7.64063C4.35128 7.75656 4.25853 7.87249 4.17352 7.98841C4.11942 8.04251 4.07305 8.10434 4.0344 8.16617Z" fill="#1F950C" fill-opacity="0.48"/>
<path d="M0.873237 15.3008C0.865508 15.3472 0.850051 15.409 0.834594 15.4785C0.819137 15.5404 0.811408 15.6099 0.795951 15.6795C0.780494 15.7568 0.765037 15.8418 0.74958 15.9345C0.734123 16.0273 0.718666 16.12 0.703209 16.2282C0.69548 16.2823 0.687751 16.3287 0.680023 16.3828C0.672294 16.4369 0.664566 16.491 0.656837 16.5451C0.625923 16.7692 0.58728 17.0011 0.571823 17.2561C0.556366 17.3798 0.548637 17.5111 0.53318 17.6425C0.525452 17.7739 0.517723 17.913 0.502266 18.0521C0.47908 18.3304 0.47908 18.6163 0.463623 18.9023V19.0105V19.1187V19.3351V19.5515V19.6597L0.471352 19.7679C0.47908 19.9147 0.486809 20.0616 0.486809 20.2084L0.494537 20.3166V20.3553V20.3784L0.502266 20.4325C0.509994 20.5021 0.509994 20.5717 0.517723 20.6412C0.525452 20.7108 0.525452 20.7803 0.53318 20.8499C0.540909 20.9194 0.548637 20.9967 0.556366 21.0663C0.564094 21.1358 0.571823 21.2054 0.579551 21.275C0.579551 21.3136 0.58728 21.3445 0.58728 21.3832C0.595009 21.4141 0.595009 21.4527 0.602737 21.4836C0.618194 21.6227 0.633651 21.7541 0.656837 21.8855C0.680023 22.0169 0.69548 22.1406 0.718666 22.2642C0.734123 22.3879 0.757308 22.5038 0.780494 22.6197C0.780494 22.6275 0.780494 22.6352 0.788223 22.6506C0.80368 22.7434 0.888694 22.8129 0.981437 22.8129H1.52244C1.63836 22.8129 1.73111 22.7125 1.72338 22.6043C1.72338 22.5734 1.72338 22.5424 1.71565 22.5115C1.70792 22.4033 1.70019 22.2874 1.70019 22.1637C1.69246 22.0478 1.69246 21.9242 1.68474 21.8005C1.68474 21.6768 1.68474 21.5455 1.68474 21.4218C1.68474 21.3909 1.68474 21.36 1.68474 21.3213C1.68474 21.2904 1.68474 21.2595 1.68474 21.2286C1.68474 21.1668 1.68474 21.0972 1.69246 21.0354C1.69246 20.9735 1.69246 20.904 1.70019 20.8422C1.70019 20.7726 1.70792 20.703 1.70792 20.6335C1.70792 20.5639 1.71565 20.4944 1.71565 20.4248V20.3707V20.3475C1.71565 20.3398 1.71565 20.3553 1.71565 20.3553V20.3475V20.3321L1.72338 20.2316C1.73111 20.0925 1.74656 19.9611 1.75429 19.822L1.76202 19.7215L1.77748 19.621C1.78521 19.5515 1.79294 19.4819 1.80066 19.4201C1.80839 19.3505 1.81612 19.2887 1.82385 19.2192L1.83158 19.1187L1.84704 19.0182C1.88568 18.7554 1.92432 18.4927 1.97069 18.2376C1.99388 18.114 2.01706 17.9903 2.04025 17.8667C2.06344 17.7507 2.09435 17.6271 2.11754 17.5189C2.16391 17.287 2.22574 17.0783 2.27211 16.8851C2.28756 16.8388 2.29529 16.7847 2.31075 16.7383C2.32621 16.6919 2.33394 16.6455 2.34939 16.6069C2.37258 16.5219 2.40349 16.4369 2.41895 16.3596C2.44214 16.2823 2.46532 16.2127 2.48078 16.1432C2.50396 16.0736 2.52715 16.0041 2.54261 15.95C2.56579 15.8882 2.58125 15.8263 2.59671 15.7799C2.63535 15.6717 2.57352 15.5558 2.45759 15.5249L1.11282 15.1617C1.01235 15.123 0.896423 15.1926 0.873237 15.3008Z" fill="#1F950C" fill-opacity="0.24"/>
<path d="M9.56741 12.5969C9.5471 12.6848 9.56799 12.7825 9.65554 12.857L18.6188 20.3021C19.2983 20.8688 20.3075 20.7736 20.8686 20.0932C21.0291 19.9001 21.1368 19.681 21.1922 19.4504C21.3335 18.8744 21.147 18.244 20.6597 17.8435C20.5643 17.7648 20.4582 17.6987 20.3559 17.6446L9.93949 12.4189C9.76861 12.3306 9.60342 12.4487 9.56741 12.5969Z" fill="black"/>
<path d="M26.9648 9.02447L27.0885 9.14812C27.1348 9.19449 27.1735 9.24087 27.2276 9.29497C27.2739 9.34907 27.328 9.40317 27.3821 9.45727C27.4362 9.51909 27.4903 9.58092 27.5522 9.64275C27.6063 9.71231 27.6758 9.77414 27.7299 9.85142C27.7918 9.92098 27.8536 9.99826 27.9154 10.0756C27.9772 10.1528 28.0468 10.2378 28.1086 10.3151C28.1705 10.4001 28.24 10.4852 28.3096 10.5702C28.3714 10.6552 28.441 10.7479 28.5028 10.8407C28.5337 10.887 28.5723 10.9334 28.6033 10.9798C28.6342 11.0262 28.6651 11.0725 28.696 11.1189C28.7269 11.1653 28.7578 11.2116 28.7965 11.258C28.8274 11.3044 28.8583 11.3585 28.8892 11.4049C28.951 11.5053 29.0129 11.5981 29.0747 11.6985C29.1365 11.799 29.1906 11.8995 29.2525 12L29.2988 12.0772L29.322 12.1159L35.9299 10.377C35.9222 10.3692 35.9222 10.3615 35.9145 10.3538C35.8758 10.2919 35.8372 10.2301 35.8063 10.1606C35.7676 10.0987 35.729 10.0369 35.6904 9.96735C35.6131 9.83596 35.5281 9.70458 35.443 9.57319C35.2653 9.31042 35.0875 9.03992 34.8943 8.77715C34.8479 8.70759 34.7938 8.64577 34.7475 8.57621L34.6779 8.47574L34.6006 8.37527C34.5002 8.24388 34.3997 8.1125 34.2915 7.98111C34.191 7.84972 34.0828 7.71834 33.9746 7.59468C33.9205 7.53285 33.8664 7.4633 33.8123 7.40147C33.7582 7.33964 33.7041 7.27781 33.65 7.21598C33.5959 7.15415 33.5418 7.09232 33.4877 7.0305C33.4336 6.96867 33.3795 6.90684 33.3254 6.85274C33.2172 6.73681 33.109 6.62088 33.0008 6.50495C32.8926 6.38903 32.7844 6.28083 32.6762 6.18035C32.568 6.07215 32.4675 5.97168 32.3593 5.87121C32.2511 5.77074 32.1507 5.678 32.0579 5.58526C31.9575 5.49251 31.857 5.4075 31.7642 5.32248C31.6715 5.23747 31.5788 5.16018 31.4937 5.09063C31.4087 5.02107 31.3237 4.95151 31.2464 4.88196C31.1691 4.82013 31.0919 4.7583 31.03 4.7042C30.9605 4.6501 30.8986 4.60373 30.8368 4.55736C30.7518 4.49553 30.6822 4.44143 30.6281 4.39506C30.5431 4.33323 30.4195 4.34096 30.3499 4.42597L26.8643 8.64577C26.7948 8.72305 26.8025 8.83898 26.8798 8.91627C26.8952 8.95491 26.9262 8.98582 26.9648 9.02447Z" fill="#1F950C"/>
<path d="M28.704 3.12022C28.6577 3.09703 28.6113 3.06612 28.5495 3.02748C28.5263 3.01202 28.4954 2.99656 28.4644 2.98111C28.4335 2.96565 28.3949 2.94246 28.364 2.92701C28.279 2.88063 28.1939 2.83426 28.1012 2.78016C28.0085 2.72606 27.908 2.67196 27.7998 2.61786C27.6993 2.56376 27.5911 2.51739 27.4829 2.45556C27.3747 2.40146 27.2588 2.33963 27.1351 2.28553C27.0115 2.23143 26.8878 2.16961 26.7564 2.11551C26.625 2.05368 26.4937 1.99958 26.3545 1.94548C26.2154 1.89138 26.0763 1.82955 25.9372 1.77545C25.8986 1.75999 25.8599 1.74453 25.829 1.73681C23.7887 1.00259 22.1193 0.716636 22.1193 0.716636C22.0111 0.701179 21.9029 0.685722 21.7947 0.662536C21.7251 0.654808 21.6479 0.639351 21.5783 0.631622C21.5087 0.623893 21.4392 0.616165 21.3696 0.608436C21.2305 0.592979 21.0991 0.577522 20.9677 0.562065C20.8364 0.554336 20.7127 0.538879 20.589 0.53115C20.4654 0.523422 20.3495 0.507965 20.2413 0.507965C20.1331 0.500237 20.0249 0.500236 19.9244 0.492508C19.8239 0.484779 19.7312 0.484779 19.6462 0.477051C19.5611 0.477051 19.4839 0.477051 19.4143 0.477051C19.3138 0.477051 19.2288 0.477051 19.1593 0.477051C19.0511 0.477051 18.966 0.562065 18.9583 0.670265L18.7574 4.85915C18.7496 4.95962 18.8269 5.05236 18.9274 5.06782C18.9738 5.07555 19.0201 5.08328 19.082 5.091C19.1361 5.09873 19.1902 5.10646 19.2597 5.11419C19.3216 5.12192 19.3911 5.13737 19.4684 5.15283C19.538 5.16829 19.623 5.17602 19.7003 5.19147C19.7698 5.20693 19.8471 5.22239 19.9244 5.23785C19.9244 5.23785 23.039 5.9025 24.6002 7.13134C24.6697 7.17772 24.7315 7.22409 24.7934 7.26273C24.8707 7.3091 24.9402 7.35547 25.002 7.40184C25.0639 7.44822 25.118 7.48686 25.1721 7.5255C25.2262 7.56414 25.2725 7.59506 25.3189 7.6337C25.3421 7.64916 25.373 7.67234 25.3962 7.69553C25.4271 7.71872 25.4503 7.73417 25.4735 7.75736C25.5276 7.796 25.574 7.83464 25.6203 7.86556C25.7131 7.93511 25.8445 7.91193 25.9063 7.81146L28.7813 3.42936C28.8354 3.30571 28.8045 3.17432 28.704 3.12022Z" fill="#1F950C" fill-opacity="0.88"/>
</svg>
