<svg width="19" height="13" viewBox="0 0 19 13" fill="none" xmlns="http://www.w3.org/2000/svg">
<path d="M8.02754 2.83289L8.1132 2.82066C8.14175 2.81658 8.1703 2.81658 8.19886 2.8125C8.25596 2.80842 8.30899 2.80026 8.36201 2.79618C8.41504 2.7921 8.46399 2.78802 8.51294 2.78395C8.53741 2.78395 8.56188 2.77987 8.58636 2.77987C8.61083 2.77987 8.63123 2.77579 8.65162 2.77579C8.69241 2.77579 8.7332 2.77171 8.76991 2.77171C8.80662 2.77171 8.83925 2.76763 8.87189 2.76763H8.97794H9.07175C9.13294 2.76763 9.18189 2.7146 9.17781 2.65342L9.0432 0.569069C9.03912 0.507884 8.9861 0.463016 8.92491 0.471174C8.89636 0.475253 8.86781 0.479332 8.8311 0.483411C8.79846 0.48749 8.76175 0.491569 8.72096 0.495648C8.6761 0.503806 8.62307 0.511963 8.57004 0.516042C8.51702 0.5242 8.45991 0.532358 8.39873 0.540516C8.36609 0.544595 8.33754 0.548674 8.30899 0.556832C8.28044 0.560911 8.2478 0.569069 8.21925 0.573148C8.15807 0.585385 8.0928 0.597622 8.02346 0.609858C7.9582 0.626174 7.88885 0.64249 7.81951 0.658806C7.7828 0.666964 7.75017 0.675122 7.71346 0.68328C7.67675 0.691438 7.64004 0.703675 7.60333 0.711833C7.52991 0.732227 7.45648 0.752622 7.37898 0.773017C7.30556 0.797491 7.22806 0.817886 7.15056 0.84236C7.11385 0.854596 7.07306 0.866833 7.03227 0.87907C6.99556 0.891307 6.95477 0.903544 6.91398 0.91986C6.87319 0.932097 6.83648 0.948412 6.79569 0.960649C6.7549 0.972886 6.71819 0.989202 6.6774 1.00144C6.5999 1.02999 6.5224 1.06262 6.4449 1.09118C6.3674 1.11973 6.2899 1.15644 6.2124 1.18907C6.17569 1.20539 6.1349 1.2217 6.09819 1.23802C6.06148 1.25433 6.02477 1.27065 5.98398 1.29105C5.94727 1.30736 5.91056 1.32368 5.87385 1.34407C5.83714 1.36039 5.80042 1.3767 5.76371 1.3971C5.69029 1.43381 5.62095 1.47052 5.55161 1.50315C5.48227 1.53986 5.417 1.57657 5.35174 1.61328C5.28647 1.64999 5.22121 1.68263 5.16003 1.71934C5.09884 1.75605 5.03766 1.79276 4.98055 1.82539C4.92345 1.85802 4.87042 1.89473 4.81739 1.92736C4.76437 1.96 4.71542 1.99263 4.66647 2.02118C4.6216 2.05381 4.57673 2.08236 4.53595 2.11092C4.49516 2.13947 4.45437 2.16802 4.42173 2.1925C4.38502 2.21697 4.35239 2.24144 4.32384 2.26184C4.28305 2.29039 4.25042 2.31487 4.22187 2.33526C4.177 2.36789 4.16476 2.43316 4.19739 2.47802L5.06213 3.75066C5.09476 3.79553 5.15187 3.81185 5.20082 3.78329C5.22121 3.77106 5.24976 3.75474 5.27832 3.73842C5.30279 3.72211 5.33134 3.70579 5.36398 3.68948C5.39661 3.67316 5.42924 3.65684 5.46595 3.63645C5.50266 3.61606 5.53937 3.59566 5.58016 3.57527C5.62095 3.55487 5.66582 3.53448 5.71069 3.51408C5.75556 3.49369 5.8045 3.46921 5.85345 3.44882C5.9024 3.42842 5.95543 3.40395 6.00845 3.37948C6.06148 3.355 6.11451 3.33461 6.17161 3.31013C6.22872 3.28974 6.28582 3.26526 6.34293 3.24487C6.40003 3.22447 6.46122 3.20408 6.5224 3.17961C6.55095 3.16737 6.58359 3.15921 6.61214 3.14697C6.64477 3.13882 6.67332 3.12658 6.70595 3.11842C6.73859 3.11026 6.76714 3.09803 6.79977 3.08987C6.8324 3.08171 6.86503 3.07355 6.89359 3.06132C6.95885 3.045 7.02004 3.02461 7.0853 3.00829C7.15056 2.99197 7.21175 2.97566 7.27701 2.95934C7.30964 2.95118 7.34227 2.94303 7.37491 2.93895C7.40754 2.93079 7.44017 2.92671 7.46872 2.91855C7.50135 2.91039 7.52991 2.90632 7.56254 2.89816C7.59517 2.89 7.62372 2.88592 7.65635 2.88184C7.71754 2.8696 7.77872 2.86145 7.83991 2.84921C7.90925 2.84921 7.97043 2.84105 8.02754 2.83289Z" fill="#1F950C" fill-opacity="0.72"/>
<path d="M2.12936 4.47678C2.10489 4.50941 2.0845 4.54204 2.06002 4.57468C2.03555 4.60731 2.01515 4.63994 1.99068 4.67257C1.96621 4.7052 1.94581 4.73783 1.92542 4.77047C1.88055 4.83573 1.83568 4.90507 1.79489 4.97033C1.7541 5.03968 1.70923 5.10902 1.66844 5.17428L1.63581 5.22323L1.60726 5.27626C1.58686 5.30889 1.56647 5.3456 1.55015 5.37823C1.46857 5.51284 1.39923 5.65152 1.32989 5.78613C1.29726 5.85139 1.26462 5.92073 1.23199 5.986C1.21568 6.01863 1.19936 6.05126 1.18712 6.08389C1.17081 6.11652 1.15857 6.14916 1.14633 6.17771C1.11778 6.23889 1.08923 6.30008 1.06475 6.36126C1.04028 6.42245 1.01581 6.47955 0.995412 6.53258C0.975017 6.58968 0.950543 6.63863 0.930149 6.69166C0.909754 6.74061 0.893438 6.78955 0.877122 6.83442C0.860806 6.87929 0.84449 6.92008 0.828175 6.96087C0.815938 7.00166 0.803701 7.03837 0.791464 7.071C0.775148 7.11587 0.762911 7.15258 0.754753 7.18113C0.738437 7.23416 0.762911 7.29127 0.815938 7.31166L1.61949 7.62166C1.67252 7.64206 1.72963 7.61758 1.7541 7.56864C1.76634 7.54416 1.77857 7.51561 1.79489 7.48298C1.80713 7.45442 1.82344 7.42587 1.83976 7.38916C1.85607 7.35653 1.87647 7.31982 1.89686 7.28311C1.91726 7.2464 1.93765 7.20561 1.95805 7.16074C1.97844 7.11995 2.007 7.07508 2.03147 7.03021C2.05594 6.98534 2.0845 6.9364 2.11305 6.88745C2.1416 6.8385 2.17423 6.78955 2.20279 6.73653C2.2191 6.71205 2.23542 6.6835 2.25173 6.65903C2.26805 6.63455 2.28437 6.606 2.30068 6.58153C2.33331 6.5285 2.37002 6.47547 2.40673 6.41837C2.48423 6.31231 2.55766 6.1981 2.63923 6.08797C2.65963 6.05942 2.68002 6.03087 2.70042 6.00639L2.73305 5.9656L2.76568 5.92481C2.81055 5.87179 2.85134 5.81468 2.89621 5.76165C2.94108 5.70863 2.98595 5.6556 3.03082 5.60257C3.05529 5.5781 3.07568 5.54955 3.09608 5.52507C3.12055 5.5006 3.14095 5.47613 3.16542 5.44757C3.18989 5.4231 3.21029 5.39863 3.23476 5.37415C3.25516 5.34968 3.27963 5.32521 3.30411 5.30073C3.34897 5.25178 3.39792 5.20692 3.44279 5.15797C3.48766 5.1131 3.53253 5.06823 3.5774 5.02336C3.62227 4.97849 3.66305 4.9377 3.70792 4.89691C3.75279 4.85612 3.79358 4.81941 3.83437 4.7827C3.87516 4.74599 3.91595 4.71336 3.95674 4.67665C3.99753 4.64402 4.03424 4.61139 4.06687 4.58283C4.10358 4.55428 4.13621 4.52981 4.16477 4.50533C4.1974 4.48086 4.22595 4.45639 4.25043 4.43599C4.26266 4.42783 4.27898 4.4156 4.29529 4.40336C4.31161 4.39112 4.32385 4.38296 4.33608 4.37073C4.36464 4.35033 4.38911 4.32994 4.40951 4.31362C4.45845 4.27691 4.46661 4.20757 4.42582 4.1627L3.50805 3.08177C3.46726 3.03691 3.39792 3.03283 3.35305 3.07362C3.33266 3.09401 3.31226 3.11441 3.28371 3.13888C3.27147 3.15112 3.25924 3.16335 3.247 3.17559C3.23476 3.18783 3.22253 3.20006 3.20621 3.21638C3.17358 3.24901 3.14095 3.28164 3.10424 3.31835C3.06753 3.35507 3.03082 3.39585 2.99003 3.43664C2.95332 3.47743 2.91253 3.5223 2.87174 3.56717C2.83095 3.61204 2.78608 3.65691 2.74529 3.70586C2.7045 3.7548 2.65963 3.80783 2.61476 3.86086C2.56989 3.91388 2.52502 3.96691 2.48016 4.02402C2.43529 4.08112 2.38634 4.13823 2.34147 4.19941C2.2966 4.2606 2.24765 4.32178 2.20279 4.38296C2.17423 4.41152 2.14976 4.44415 2.12936 4.47678Z" fill="#1F950C" fill-opacity="0.48"/>
<path d="M0.460814 8.2422C0.456735 8.26667 0.448577 8.29931 0.440419 8.33602C0.432261 8.36865 0.428182 8.40536 0.420024 8.44207C0.411866 8.48286 0.403708 8.52773 0.395551 8.57667C0.387393 8.62562 0.379235 8.67457 0.371077 8.73168C0.366998 8.76023 0.362919 8.7847 0.35884 8.81326C0.354761 8.84181 0.350682 8.87036 0.346603 8.89891C0.330287 9.0172 0.309892 9.13957 0.301734 9.27418C0.293576 9.33944 0.289498 9.40878 0.28134 9.47813C0.277261 9.54747 0.273182 9.62089 0.265024 9.69431C0.252787 9.84115 0.252787 9.99208 0.244629 10.143V10.2001V10.2572V10.3714V10.4856V10.5427L0.248708 10.5998C0.252787 10.6773 0.256866 10.7548 0.256866 10.8323L0.260945 10.8894V10.9098V10.9221L0.265024 10.9506C0.269103 10.9873 0.269103 11.0241 0.273182 11.0608C0.277261 11.0975 0.277261 11.1342 0.28134 11.1709C0.285419 11.2076 0.289497 11.2484 0.293576 11.2851C0.297655 11.3218 0.301734 11.3585 0.305813 11.3952C0.305813 11.4156 0.309892 11.4319 0.309892 11.4523C0.313971 11.4687 0.313971 11.4891 0.31805 11.5054C0.326208 11.5788 0.334366 11.6481 0.346603 11.7175C0.35884 11.7868 0.366998 11.8521 0.379235 11.9173C0.387393 11.9826 0.39963 12.0438 0.411866 12.105C0.411866 12.1091 0.411866 12.1131 0.415945 12.1213C0.424103 12.1702 0.468972 12.207 0.517919 12.207H0.803447C0.864631 12.207 0.913579 12.1539 0.9095 12.0968C0.9095 12.0805 0.9095 12.0642 0.905421 12.0479C0.901342 11.9908 0.897263 11.9296 0.897263 11.8643C0.893184 11.8031 0.893184 11.7379 0.889105 11.6726C0.889105 11.6073 0.889105 11.538 0.889105 11.4727C0.889105 11.4564 0.889105 11.4401 0.889105 11.4197C0.889105 11.4034 0.889105 11.3871 0.889105 11.3708C0.889105 11.3381 0.889105 11.3014 0.893184 11.2688C0.893184 11.2362 0.893184 11.1994 0.897263 11.1668C0.897263 11.1301 0.901342 11.0934 0.901342 11.0567C0.901342 11.02 0.905421 10.9833 0.905421 10.9466V10.918V10.9058C0.905421 10.9017 0.905421 10.9098 0.905421 10.9098V10.9058V10.8976L0.9095 10.8446C0.913579 10.7712 0.921737 10.7018 0.925816 10.6284L0.929895 10.5754L0.938053 10.5223C0.942132 10.4856 0.946211 10.4489 0.95029 10.4163C0.954369 10.3796 0.958448 10.3469 0.962527 10.3102L0.966606 10.2572L0.974763 10.2042C0.995158 10.0655 1.01555 9.92681 1.04003 9.79221C1.05226 9.72694 1.0645 9.66168 1.07674 9.59642C1.08897 9.53523 1.10529 9.46997 1.11753 9.41286C1.142 9.29049 1.17463 9.18036 1.19911 9.07839C1.20726 9.05391 1.21134 9.02536 1.2195 9.00089C1.22766 8.97641 1.23174 8.95194 1.2399 8.93155C1.25213 8.88668 1.26845 8.84181 1.27661 8.80102C1.28884 8.76023 1.30108 8.72352 1.30924 8.68681C1.32148 8.6501 1.33371 8.61339 1.34187 8.58483C1.35411 8.5522 1.36226 8.51957 1.37042 8.4951C1.39082 8.43799 1.35819 8.37681 1.297 8.36049L0.587262 8.16878C0.534235 8.14838 0.473051 8.18509 0.460814 8.2422Z" fill="#1F950C" fill-opacity="0.24"/>
<path d="M5.04953 6.81515C5.03881 6.86158 5.04984 6.91313 5.09605 6.95244L9.82668 10.8818C10.1853 11.1809 10.7179 11.1307 11.014 10.7716C11.0988 10.6696 11.1556 10.554 11.1849 10.4323C11.2594 10.1283 11.161 9.7956 10.9038 9.58418C10.8534 9.54268 10.7975 9.50778 10.7435 9.47923L5.24591 6.7212C5.15572 6.67459 5.06854 6.73696 5.04953 6.81515Z" fill="black"/>
<path d="M14.2315 4.92955L14.2968 4.99482C14.3212 5.01929 14.3416 5.04376 14.3702 5.07232C14.3947 5.10087 14.4232 5.12942 14.4518 5.15797C14.4803 5.19061 14.5089 5.22324 14.5415 5.25587C14.5701 5.29258 14.6068 5.32521 14.6353 5.366C14.668 5.40271 14.7006 5.4435 14.7332 5.48429C14.7659 5.52508 14.8026 5.56995 14.8352 5.61074C14.8678 5.65561 14.9045 5.70048 14.9413 5.74534C14.9739 5.79021 15.0106 5.83916 15.0432 5.88811C15.0595 5.91258 15.0799 5.93706 15.0963 5.96153C15.1126 5.986 15.1289 6.01048 15.1452 6.03495C15.1615 6.05943 15.1778 6.0839 15.1982 6.10837C15.2145 6.13285 15.2309 6.1614 15.2472 6.18587C15.2798 6.2389 15.3124 6.28785 15.3451 6.34087C15.3777 6.3939 15.4063 6.44693 15.4389 6.49995L15.4634 6.54074L15.4756 6.56114L18.9631 5.64337C18.959 5.63929 18.959 5.63521 18.955 5.63113C18.9346 5.5985 18.9142 5.56587 18.8978 5.52916C18.8775 5.49653 18.8571 5.4639 18.8367 5.42719C18.7959 5.35784 18.751 5.2885 18.7061 5.21916C18.6123 5.08047 18.5185 4.93771 18.4165 4.79903C18.3921 4.76231 18.3635 4.72968 18.339 4.69297L18.3023 4.63995L18.2615 4.58692C18.2085 4.51758 18.1555 4.44823 18.0984 4.37889C18.0453 4.30955 17.9882 4.24021 17.9311 4.17494C17.9026 4.14231 17.874 4.1056 17.8455 4.07297C17.8169 4.04034 17.7884 4.00771 17.7598 3.97507C17.7313 3.94244 17.7027 3.90981 17.6742 3.87718C17.6456 3.84455 17.6171 3.81192 17.5885 3.78336C17.5314 3.72218 17.4743 3.66099 17.4172 3.59981C17.3601 3.53863 17.303 3.48152 17.2459 3.42849C17.1888 3.37139 17.1357 3.31836 17.0786 3.26533C17.0215 3.21231 16.9685 3.16336 16.9195 3.11441C16.8665 3.06547 16.8135 3.0206 16.7645 2.97573C16.7156 2.93086 16.6667 2.89007 16.6218 2.85336C16.5769 2.81665 16.532 2.77994 16.4913 2.74323C16.4505 2.7106 16.4097 2.67796 16.377 2.64941C16.3403 2.62086 16.3077 2.59638 16.2751 2.57191C16.2302 2.53928 16.1935 2.51073 16.1649 2.48625C16.1201 2.45362 16.0548 2.4577 16.0181 2.50257L14.1785 4.72968C14.1418 4.77047 14.1459 4.83166 14.1866 4.87245C14.1948 4.89284 14.2111 4.90916 14.2315 4.92955Z" fill="#1F950C"/>
<path d="M15.1493 1.81346C15.1248 1.80123 15.1004 1.78491 15.0677 1.76452C15.0555 1.75636 15.0392 1.7482 15.0229 1.74004C15.0066 1.73188 14.9862 1.71965 14.9698 1.71149C14.925 1.68702 14.8801 1.66254 14.8312 1.63399C14.7822 1.60544 14.7292 1.57688 14.6721 1.54833C14.6191 1.51978 14.562 1.4953 14.5048 1.46267C14.4477 1.43412 14.3866 1.40149 14.3213 1.37293C14.256 1.34438 14.1908 1.31175 14.1214 1.2832C14.0521 1.25057 13.9827 1.22201 13.9093 1.19346C13.8359 1.16491 13.7625 1.13228 13.6891 1.10372C13.6687 1.09556 13.6483 1.08741 13.6319 1.08333C12.5551 0.695826 11.674 0.544905 11.674 0.544905C11.6169 0.536747 11.5598 0.528589 11.5027 0.516352C11.466 0.512273 11.4252 0.504115 11.3885 0.500036C11.3518 0.495957 11.3151 0.491878 11.2784 0.487799C11.205 0.479641 11.1356 0.471484 11.0663 0.463326C10.9969 0.459247 10.9317 0.451089 10.8664 0.44701C10.8011 0.442931 10.74 0.434773 10.6829 0.434773C10.6258 0.430694 10.5686 0.430694 10.5156 0.426615C10.4626 0.422536 10.4136 0.422536 10.3688 0.418457C10.3239 0.418457 10.2831 0.418457 10.2464 0.418457C10.1934 0.418457 10.1485 0.418457 10.1118 0.418457C10.0547 0.418457 10.0098 0.463326 10.0057 0.520431L9.8997 2.73123C9.89562 2.78426 9.93641 2.8332 9.98943 2.84136C10.0139 2.84544 10.0384 2.84952 10.071 2.8536C10.0996 2.85768 10.1281 2.86176 10.1648 2.86584C10.1975 2.86991 10.2342 2.87807 10.275 2.88623C10.3117 2.89439 10.3565 2.89847 10.3973 2.90663C10.434 2.91478 10.4748 2.92294 10.5156 2.9311C10.5156 2.9311 12.1594 3.28189 12.9834 3.93045C13.0201 3.95492 13.0527 3.97939 13.0854 3.99979C13.1262 4.02426 13.1629 4.04874 13.1955 4.07321C13.2281 4.09768 13.2567 4.11808 13.2852 4.13847C13.3138 4.15887 13.3383 4.17518 13.3627 4.19558C13.375 4.20374 13.3913 4.21597 13.4035 4.22821C13.4198 4.24045 13.4321 4.24861 13.4443 4.26084C13.4729 4.28124 13.4973 4.30163 13.5218 4.31795C13.5708 4.35466 13.6401 4.34242 13.6727 4.28939L15.1901 1.97662C15.2187 1.91136 15.2023 1.84202 15.1493 1.81346Z" fill="#1F950C" fill-opacity="0.88"/>
</svg>
