<svg width="32" height="32" viewBox="0 0 32 32" fill="none" xmlns="http://www.w3.org/2000/svg">
<path d="M27.6662 16.0004L29.1382 13.4564C29.3151 13.1503 29.3632 12.7865 29.2719 12.445C29.1807 12.1034 28.9575 11.8121 28.6515 11.6351L26.1048 10.1631V7.22973C26.1048 6.87611 25.9643 6.53697 25.7143 6.28693C25.4642 6.03688 25.1251 5.8964 24.7715 5.8964H21.8395L20.3688 3.35107C20.1921 3.04484 19.901 2.82135 19.5595 2.72974C19.3903 2.6844 19.2139 2.67285 19.0402 2.69573C18.8666 2.7186 18.6991 2.77547 18.5475 2.86307L16.0008 4.33507L13.4542 2.86174C13.1479 2.68493 12.784 2.63702 12.4424 2.72854C12.1009 2.82005 11.8096 3.0435 11.6328 3.34974L10.1608 5.8964H7.22882C6.8752 5.8964 6.53606 6.03688 6.28601 6.28693C6.03596 6.53697 5.89549 6.87611 5.89549 7.22973V10.1617L3.34882 11.6337C3.19713 11.7214 3.0642 11.8381 2.95763 11.9772C2.85106 12.1162 2.77294 12.2749 2.72775 12.4442C2.68255 12.6135 2.67116 12.79 2.69422 12.9637C2.71728 13.1374 2.77435 13.3048 2.86216 13.4564L4.33416 16.0004L2.86216 18.5444C2.68614 18.8508 2.63838 19.2143 2.7293 19.5557C2.82022 19.8972 3.04243 20.1888 3.34749 20.3671L5.89416 21.8391V24.7711C5.89416 25.1247 6.03463 25.4638 6.28468 25.7139C6.53473 25.9639 6.87387 26.1044 7.22749 26.1044H10.1608L11.6328 28.6511C11.7509 28.8529 11.9194 29.0204 12.1219 29.1373C12.3243 29.2542 12.5537 29.3164 12.7875 29.3177C13.0195 29.3177 13.2502 29.2564 13.4555 29.1377L15.9995 27.6657L18.5462 29.1377C18.8522 29.3146 19.216 29.3628 19.5576 29.2715C19.8991 29.1802 20.1904 28.9571 20.3675 28.6511L21.8382 26.1044H24.7702C25.1238 26.1044 25.4629 25.9639 25.713 25.7139C25.963 25.4638 26.1035 25.1247 26.1035 24.7711V21.8391L28.6502 20.3671C28.8018 20.2794 28.9348 20.1627 29.0413 20.0236C29.1479 19.8846 29.226 19.7259 29.2712 19.5566C29.3164 19.3873 29.3278 19.2108 29.3048 19.0371C29.2817 18.8634 29.2246 18.696 29.1368 18.5444L27.6662 16.0004ZM12.6662 9.3204C13.1968 9.32058 13.7056 9.53153 14.0806 9.90685C14.4557 10.2822 14.6663 10.7911 14.6662 11.3217C14.666 11.8523 14.455 12.3612 14.0797 12.7362C13.7044 13.1113 13.1954 13.3219 12.6648 13.3217C12.1342 13.3216 11.6254 13.1106 11.2503 12.7353C10.8753 12.36 10.6646 11.851 10.6648 11.3204C10.665 10.7898 10.876 10.281 11.2513 9.90591C11.6266 9.53084 12.1355 9.32022 12.6662 9.3204ZM13.0662 22.1204L10.9328 20.5217L18.9328 9.85507L21.0662 11.4537L13.0662 22.1204ZM19.3328 22.6537C19.0701 22.6536 18.8099 22.6018 18.5673 22.5012C18.3246 22.4006 18.104 22.2531 17.9183 22.0673C17.7326 21.8814 17.5853 21.6608 17.4849 21.4181C17.3844 21.1753 17.3327 20.9151 17.3328 20.6524C17.3329 20.3897 17.3847 20.1295 17.4854 19.8868C17.586 19.6441 17.7334 19.4236 17.9193 19.2379C18.1051 19.0522 18.3257 18.9049 18.5685 18.8044C18.8112 18.704 19.0714 18.6523 19.3342 18.6524C19.8648 18.6526 20.3736 18.8635 20.7486 19.2389C21.1237 19.6142 21.3343 20.1231 21.3342 20.6537C21.334 21.1843 21.123 21.6932 20.7477 22.0682C20.3724 22.4433 19.8634 22.6539 19.3328 22.6537Z" fill="white"/>
</svg>
