<svg width="75" height="76" viewBox="0 0 75 76" fill="none" xmlns="http://www.w3.org/2000/svg">
<path d="M34.5 43.0693H14.5V58.0693C14.5 59.3954 15.0268 60.6672 15.9645 61.6049C16.9021 62.5425 18.1739 63.0693 19.5 63.0693H54.5C55.8261 63.0693 57.0979 62.5425 58.0355 61.6049C58.9732 60.6672 59.5 59.3954 59.5 58.0693V43.0693H39.5V48.0693H34.5V43.0693ZM34.5 40.5693H12V25.5693C12 22.8193 14.25 20.5693 17 20.5693H27V18.0693C27 16.7433 27.5268 15.4715 28.4645 14.5338C29.4021 13.5961 30.6739 13.0693 32 13.0693H42C43.3261 13.0693 44.5979 13.5961 45.5355 14.5338C46.4732 15.4715 47 16.7433 47 18.0693V20.5693H57C58.3261 20.5693 59.5979 21.0961 60.5355 22.0338C61.4732 22.9715 62 24.2433 62 25.5693V40.5693H39.5V35.5693H34.5V40.5693ZM42 20.5693V18.0693H32V20.5693H42Z" fill="white"/>
</svg>
