<svg width="36" height="35" viewBox="0 0 36 35" fill="none" xmlns="http://www.w3.org/2000/svg">
<path d="M11.1001 0.445252C8.40734 0.444702 5.8247 1.51388 3.92025 3.41759C2.01586 5.32125 0.945649 7.90346 0.945099 10.5962C0.944549 13.289 2.01372 15.8716 3.91744 17.7761C5.82109 19.6804 8.40331 20.7507 11.0961 20.7512C13.7888 20.7518 16.3715 19.6826 18.2759 17.7789C20.1803 15.8752 21.2505 13.293 21.2511 10.6002C21.2516 7.90749 20.1824 5.32485 18.2787 3.4204C16.3751 1.51602 13.7928 0.445801 11.1001 0.445252ZM11.1001 2.85274C12.1174 2.85274 13.1248 3.05312 14.0646 3.44251C15.0045 3.8319 15.8585 4.40261 16.5777 5.12203C17.297 5.84151 17.8675 6.69559 18.2566 7.63554C18.6457 8.57549 18.8459 9.58292 18.8456 10.6002C18.8459 11.6175 18.6457 12.6248 18.2565 13.5646C17.8674 14.5045 17.2969 15.3584 16.5776 16.0777C15.8583 16.797 15.0043 17.3676 14.0645 17.7567C13.1246 18.1458 12.1173 18.346 11.1001 18.3457C9.04559 18.3457 7.07525 17.5296 5.62249 16.0769C4.16972 14.6241 3.35357 12.6538 3.35357 10.5992C3.35357 8.54471 4.16972 6.57437 5.62249 5.1216C7.07525 3.6689 9.04559 2.85274 11.1001 2.85274ZM11.1001 3.92113C10.2225 3.91978 9.35327 4.09164 8.54224 4.4268C7.73116 4.76195 6.99421 5.25388 6.37354 5.87431C5.75293 6.49479 5.26082 7.23155 4.92542 8.04252C4.59002 8.85349 4.41792 9.72265 4.41896 10.6002C4.41896 12.3714 5.12256 14.07 6.37495 15.3224C7.62733 16.5748 9.32591 17.2783 11.097 17.2783C12.8682 17.2783 14.5668 16.5748 15.8192 15.3224C17.0716 14.07 17.7752 12.3714 17.7752 10.6002C17.7752 6.90421 14.7881 3.92113 11.1001 3.92113ZM29.2591 5.15519C29.1179 5.15727 28.9832 5.21516 28.8844 5.31618C28.7857 5.41719 28.7309 5.55319 28.732 5.69445V7.30008C28.732 8.01101 29.8024 8.01101 29.8024 7.30008V5.69647C29.8024 5.39752 29.56 5.1511 29.2591 5.15519ZM11.1021 6.05593C11.3647 6.05795 11.6353 6.23774 11.6353 6.59116V7.11424C12.5704 7.35058 13.1339 8.01101 13.3985 8.84915C13.5803 9.54799 12.6048 9.82873 12.3765 9.16831C12.1624 8.4917 11.7383 8.14836 11.0839 8.1221C10.3548 8.12814 9.79134 8.67345 9.79134 9.36826C9.79134 9.69743 9.9125 9.80046 10.0701 9.87924C10.2821 9.9822 10.6962 10.0469 11.1587 10.0953C11.6191 10.1418 12.1281 10.1761 12.6048 10.4104C13.0834 10.6426 13.4813 11.0991 13.4813 11.8767C13.476 12.4077 13.2904 12.9211 12.955 13.3329C12.6196 13.7446 12.1543 14.0302 11.6353 14.1428V14.6073C11.6353 15.3021 10.5649 15.3303 10.5649 14.6073V14.1367C9.86609 13.957 9.15106 13.4662 8.80772 12.3998C8.61388 11.7171 9.59542 11.4061 9.82767 12.0787C10.0296 12.7492 10.5103 13.1249 11.1223 13.137C11.4605 13.1408 11.7864 13.0101 12.0284 12.7738C12.2703 12.5376 12.4086 12.2149 12.4129 11.8767C12.4129 11.5131 12.2675 11.4425 12.1362 11.3697C11.9221 11.2647 11.5081 11.2041 11.0456 11.1557C10.5871 11.1072 10.0761 11.0749 9.59945 10.8406C9.12077 10.6063 8.72289 10.1559 8.72289 9.36826C8.72289 8.24931 9.51865 7.33641 10.5669 7.10214V6.59116C10.5669 6.23163 10.8416 6.05392 11.1021 6.05593ZM25.2965 8.2978L26.684 9.0996C27.3021 9.4551 27.8352 8.52804 27.2172 8.1726L25.8277 7.37281C25.2076 7.0153 24.6805 7.94236 25.2965 8.2978ZM32.7046 7.37281L31.3152 8.1726C30.6971 8.53005 31.2344 9.45711 31.8527 9.10162C32.1617 8.91987 32.7773 8.56639 33.2402 8.29981C33.8601 7.94236 33.3208 7.01732 32.7046 7.37074V7.37281ZM28.8855 9.60454L23.5414 15.0496C23.4676 15.1248 23.4176 15.2201 23.398 15.3236C23.3782 15.4271 23.3897 15.5341 23.4307 15.6311C23.4717 15.7281 23.5406 15.8107 23.6286 15.8687C23.7166 15.9266 23.8198 15.9571 23.9251 15.9564H27.1304L24.9956 30.3306C24.9511 30.6437 25.2096 30.9183 25.5247 30.9183H33.0075C33.3245 30.9183 33.5871 30.6437 33.5407 30.3326L31.4061 15.9564H34.6094C34.7145 15.9566 34.8177 15.9256 34.9056 15.8674C34.993 15.8093 35.062 15.7264 35.1029 15.6294C35.1438 15.5324 35.1554 15.4254 35.1359 15.3219C35.1163 15.2185 35.0662 15.123 34.9929 15.0476L29.6449 9.60656C29.5434 9.50408 29.4054 9.44594 29.2611 9.44496C29.119 9.44753 28.9835 9.50554 28.8834 9.60656L28.8855 9.60454ZM11.092 22.3468C11.0214 22.3478 10.9518 22.3628 10.887 22.3907C10.8223 22.4187 10.7636 22.4592 10.7145 22.5098C10.6653 22.5605 10.6267 22.6202 10.6007 22.6858C10.5746 22.7514 10.5618 22.8215 10.5628 22.8921V30.9062C10.5628 31.6192 11.6333 31.6192 11.6333 30.9062V22.8901C11.6341 22.8185 11.6207 22.7476 11.5938 22.6814C11.5669 22.6151 11.5272 22.5548 11.4768 22.5041C11.4264 22.4533 11.3665 22.4131 11.3004 22.3858C11.2343 22.3584 11.1635 22.3465 11.092 22.3468ZM4.67546 26.0872C4.5342 26.0915 4.40027 26.151 4.30243 26.2529C4.20459 26.3549 4.15073 26.4912 4.15238 26.6326V34.1094C4.15238 34.8244 5.22278 34.8244 5.22278 34.1094V26.6326C5.22278 26.3296 4.98045 26.0811 4.67747 26.0872H4.67546ZM17.5005 26.0872C17.3589 26.0909 17.2244 26.1502 17.1262 26.2523C17.0279 26.3543 16.9737 26.4909 16.9754 26.6326V34.1094C16.9754 34.8244 18.0458 34.8244 18.0458 34.1094V26.6326C18.0458 26.3296 17.8035 26.0811 17.5005 26.0872Z" fill="#2160FC"/>
</svg>
