<svg width="17" height="18" viewBox="0 0 17 18" fill="none" xmlns="http://www.w3.org/2000/svg">
<g clip-path="url(#clip0_740_335)">
<path fill-rule="evenodd" clip-rule="evenodd" d="M8.5 0.5L8.25265 0.92806L5.86194 5.06382H7.07132V8.91092C7.60652 9.5073 8.08461 10.1526 8.49932 10.8382C8.91583 10.1538 9.39429 9.50916 9.92868 8.91228V5.06382H11.1381L8.5 0.5ZM5.2513 6.33916L0 6.79969L0.28322 7.20463L3.01988 11.1204L3.44658 10.2063C4.65987 11.1617 6.34236 13.0312 6.72469 16.24C6.79966 15.4598 6.93532 14.6855 7.15054 13.9314C7.3831 13.0938 7.7095 12.2859 8.11359 11.5187C7.05024 9.63427 5.6559 8.3642 4.65341 7.62045L5.2513 6.33916ZM11.7487 6.33916L12.3466 7.62045C10.5182 8.9762 7.38531 12.0778 7.33856 17.4752L10.1954 17.5C10.2299 13.5091 12.1892 11.2806 13.5536 10.2063L13.9803 11.1204L17 6.79969L16.5077 6.75651L11.7487 6.33916Z" fill="white"/>
</g>
<defs>
<clipPath id="clip0_740_335">
<rect width="17" height="17" fill="white" transform="translate(0 0.5)"/>
</clipPath>
</defs>
</svg>
