<svg width="51" height="52" viewBox="0 0 51 52" fill="none" xmlns="http://www.w3.org/2000/svg">
<path d="M31.9326 5.64014V8.81799C31.9326 11.8137 31.9326 13.3115 32.8648 14.2415C33.7927 15.1737 35.2906 15.1737 38.2883 15.1737H41.4662" stroke="white" stroke-width="3.17786" stroke-linecap="round" stroke-linejoin="round"/>
<path d="M17.1022 23.6479H34.0508M17.1022 30.0037H34.0508M17.1022 36.3594H25.9367M8.62793 34.2408V17.2922C8.62793 11.3009 8.62793 8.30314 10.4902 6.44303C12.3503 4.58081 15.348 4.58081 21.3394 4.58081H30.178C31.0424 4.58081 31.4767 4.58081 31.8665 4.74182C32.2542 4.90283 32.5614 5.20791 33.1737 5.82229L41.2836 13.9322C41.898 14.5466 42.203 14.8516 42.3641 15.2415C42.5251 15.6292 42.5251 16.0635 42.5251 16.9278V34.2408C42.5251 40.2321 42.5251 43.2299 40.6628 45.09C38.8027 46.9522 35.805 46.9522 29.8136 46.9522H21.3394C15.348 46.9522 12.3503 46.9522 10.4902 45.09C8.62793 43.2299 8.62793 40.2321 8.62793 34.2408Z" stroke="white" stroke-width="3.17786" stroke-linecap="round" stroke-linejoin="round"/>
</svg>
