<svg width="108" height="40" viewBox="0 0 108 40" fill="none" xmlns="http://www.w3.org/2000/svg">
<g clip-path="url(#clip0_1638_14793)">
<path fill-rule="evenodd" clip-rule="evenodd" d="M8.91842 20.8668C13.5064 20.8668 15.6654 18.7364 15.6654 15.7074C15.6654 13.2182 14.2558 11.3578 9.3376 10.4591C5.10851 9.73848 4.20986 8.63025 4.20986 7.03967C4.20986 5.23951 5.70856 4.13128 8.10878 4.13128C11.1981 4.13128 12.3982 5.75056 12.9982 8.53838L15.1286 8.1192C14.4079 4.73133 12.579 2.21053 8.20065 2.21053C4.27015 2.2134 2.01923 4.19444 2.01923 7.10284C2.01923 9.68106 3.63852 11.5415 8.55667 12.3799C12.1857 12.9799 13.4748 13.9102 13.4748 15.7993C13.4748 17.6885 11.9761 18.9173 9.00743 18.9173C5.55927 18.9173 3.60981 16.9994 3.09876 13.8786L1 14.2978C1.47947 18.0761 3.9084 20.8065 8.91842 20.8668ZM69.7708 21.0476C73.219 21.0476 75.2891 19.3394 76.0097 16.4884L74.1492 15.9486C73.6382 17.7488 72.5299 19.1872 69.7708 19.1872C66.7706 19.1872 65.002 17.4186 64.7637 14.3896H76.0384C76.0671 13.8212 76.0987 13.2814 76.0987 12.9196C76.0987 9.0523 73.7904 6.44249 69.7106 6.44249C65.6308 6.44249 62.6936 9.20159 62.6936 13.7896C62.6936 18.3775 65.4527 21.0476 69.7708 21.0476ZM64.824 12.6813C65.1542 9.77294 66.9227 8.27424 69.6531 8.27424C72.5328 8.27424 74.0028 9.89352 74.1521 12.6813H64.8269H64.824ZM50.5806 2.15311H52.6506V12.71H52.7999L59.5785 6.59179H62.1883V6.65208L54.4824 13.5197L62.7597 20.4763V20.5366H60.0896L52.8028 14.358H52.6535V20.5366H50.5835V2.15311H50.5806ZM41.5511 20.3586C40.4112 22.9971 39.3604 23.3876 37.7124 23.3876C37.1124 23.3876 36.5726 23.2986 35.9438 23.178L35.6453 25.1562C36.2137 25.2452 36.8138 25.337 37.6837 25.337C40.3538 25.337 42.0334 23.9876 43.4431 20.7175L49.5011 6.59179H47.2817L45.361 11.5702C44.6403 13.3991 43.5321 16.0979 42.6622 18.3775C41.7032 16.1869 40.5031 13.3388 39.7538 11.5099L37.7153 6.59179H35.407L41.5539 20.3557L41.5511 20.3586ZM29.0734 6.59179H27.0033V20.5366H29.0734V12.8881C29.0734 9.97965 30.3941 8.83984 33.1819 8.83984H34.3217V6.59179H33.3628C31.0544 6.59179 29.6447 7.7919 29.1337 10.64H29.0734V6.59179ZM16.7478 8.42353H18.9959V16.4597C18.9959 19.0695 20.2563 20.8668 23.0441 20.8668C24.2126 20.8668 24.962 20.6859 25.9238 20.416L25.6252 18.5268C24.8156 18.768 24.2155 18.8857 23.4059 18.8857C21.7263 18.8857 21.0659 17.9871 21.0659 16.2759V8.41779H25.7745V6.58892H21.0659V2.60387H18.9959V6.59179H16.7478V8.42066V8.42353Z" fill="black"/>
<path fill-rule="evenodd" clip-rule="evenodd" d="M80.4888 24.8576H84.1523L86.696 19.7385L77.7957 2.04693L77.0205 0.505165H78.7432H84.8758H85.5218L85.8203 1.08799L89.0417 7.38426L87.0319 11.4985L86.6731 7.44455L84.2298 2.63263H80.4658L87.876 17.3641L95.9524 1.09948L96.2452 0.505165H96.9027H102.923H104.623L103.877 2.03258L99.2024 11.5875L98.0081 9.21026L101.224 2.63263H97.5602L95.0882 7.60533L103.994 25.3026L104.769 26.8444H103.047H96.9113H96.2653L95.9696 26.2616L92.7626 19.9481L94.7551 15.8453L95.1542 19.9739L97.5573 24.7169H101.324L93.911 9.98258L85.7601 26.3908L85.4672 26.9851H84.8097H78.7891H77.0894L77.8359 25.4577L82.51 15.9027L83.7044 18.28L80.4888 24.8576Z" fill="#4376EE"/>
</g>
<path d="M5.78158 37.4968H2.67123L1.90525 39.4466H0.791096L3.64612 32.4831H4.8299L7.68492 39.4466H6.53595L5.78158 37.4968ZM4.26122 33.5276H4.19159C3.92465 34.2588 3.6113 35.0828 3.32115 35.8256L3.0194 36.6148H5.4334L5.12005 35.8256C4.84151 35.0828 4.50494 34.2356 4.26122 33.5276ZM12.8844 39.5858C10.8766 39.5626 9.98296 38.4949 9.79726 37.079L10.8302 36.8701C11.0159 37.9843 11.7354 38.6458 12.9424 38.6458C13.9753 38.6458 14.4976 38.228 14.4976 37.578C14.4976 36.9281 14.045 36.6032 12.6871 36.3827C10.7605 36.0577 10.157 35.3149 10.157 34.2936C10.157 33.1214 11.0507 32.3438 12.6407 32.3438C14.3931 32.3438 15.1359 33.3303 15.3912 34.6186L14.3467 34.8275C14.1146 33.8178 13.6968 33.2607 12.5943 33.2607C11.7238 33.2607 11.2248 33.6553 11.2248 34.2704C11.2248 34.8275 11.5381 35.1989 13.1165 35.4774C15.0547 35.8024 15.5769 36.58 15.5769 37.5316C15.5769 38.7502 14.7413 39.5858 12.8844 39.5858ZM16.08 34.8971V34.0267H16.8808V32.5295H17.8905V34.0267H19.6197V34.8971H17.8905V37.6941C17.8905 38.2976 18.1226 38.611 18.7261 38.611C19.0162 38.611 19.2716 38.5529 19.5501 38.4717L19.6778 39.4002C19.3064 39.5278 19.0162 39.5858 18.5172 39.5858C17.3914 39.5858 16.8808 38.8431 16.8808 37.8334V34.8971H16.08ZM22.7945 39.5858C21.0652 39.5858 20.0323 38.4833 20.0323 36.7192C20.0323 34.9319 21.1464 33.8874 22.7945 33.8874C24.4077 33.8874 25.5334 34.9319 25.5334 36.7192C25.5334 38.4833 24.5005 39.5858 22.7945 39.5858ZM22.7829 34.8159C21.7035 34.8159 21.042 35.547 21.042 36.7076C21.042 37.8682 21.6571 38.6574 22.7829 38.6574C23.897 38.6574 24.5237 37.8682 24.5237 36.7076C24.5237 35.547 23.8622 34.8159 22.7829 34.8159ZM31.4518 36.0345L30.4769 36.2086C30.2796 35.3381 29.8154 34.8159 28.8521 34.8159C27.8308 34.8159 27.1229 35.4542 27.1229 36.7424C27.1229 37.9494 27.8076 38.6574 28.8869 38.6574C29.9547 38.6574 30.2912 38.0075 30.5001 37.1951L31.4634 37.3924C31.2197 38.7502 30.4305 39.5858 28.8985 39.5858C27.1925 39.5858 26.09 38.5529 26.09 36.7308C26.09 34.9435 27.2505 33.8874 28.8637 33.8874C30.4421 33.8874 31.2081 34.6882 31.4518 36.0345ZM32.3476 32.3322H33.3573V36.3362H33.4386L35.8062 34.0267H37.0364V34.0499L34.251 36.7076L37.2221 39.4234V39.4466H35.9686L33.4386 37.1022H33.3573V39.4466H32.3476V32.3322ZM40.7657 34.0267H41.8567L42.4718 36.1389C42.7155 36.9629 42.9476 37.8218 43.1797 38.6922H43.2029C43.4234 37.8102 43.6672 37.021 43.9109 36.1041L44.4796 34.0267H45.4893L43.76 39.4466H42.5646L41.8567 37.0558C41.6361 36.313 41.4505 35.547 41.2764 34.7927H41.2532C41.0791 35.547 40.8702 36.313 40.6729 37.0558L39.9997 39.4466H38.8043L37.0519 34.0267H38.0848L38.7231 36.1041C39.0016 36.9978 39.2454 37.8218 39.4427 38.6922H39.4775C39.698 37.8218 39.9185 36.9629 40.1622 36.1389L40.7657 34.0267ZM47.1072 34.0267V39.4466H46.0975V34.0267H47.1072ZM47.1768 32.3322V33.1911H46.0278V32.3322H47.1768ZM51.2101 38.5413H52.9277V39.4466H48.1694V38.5413L51.6511 34.9203L51.6395 34.9087C51.0012 34.9203 50.2584 34.9319 49.5737 34.9319H48.2622V34.0267H52.8697V34.9319L49.388 38.5413L49.3996 38.5645C49.9683 38.5529 50.6182 38.5413 51.2101 38.5413ZM58.5963 36.8121H56.9831V39.4466H55.9153V32.4831H58.573C60.1166 32.4831 60.9638 33.2027 60.9638 34.6418C60.9638 35.8952 60.0934 36.8121 58.5963 36.8121ZM58.4686 33.4348H56.9831V35.8604H58.4918C59.4087 35.8604 59.8729 35.4542 59.8729 34.6534C59.8729 33.8062 59.4551 33.4348 58.4686 33.4348ZM62.8124 34.0267V35.6979H62.8356C63.0561 34.4445 63.5668 34.0267 64.4372 34.0267H64.7738V35.1408H64.2863C63.265 35.1408 62.8124 35.5238 62.8124 36.58V39.4466H61.8027V34.0267H62.8124ZM67.7704 39.5858C66.0412 39.5858 65.0083 38.4833 65.0083 36.7192C65.0083 34.9319 66.1224 33.8874 67.7704 33.8874C69.3836 33.8874 70.5094 34.9319 70.5094 36.7192C70.5094 38.4833 69.4765 39.5858 67.7704 39.5858ZM67.7588 34.8159C66.6795 34.8159 66.018 35.547 66.018 36.7076C66.018 37.8682 66.6331 38.6574 67.7588 38.6574C68.873 38.6574 69.4997 37.8682 69.4997 36.7076C69.4997 35.547 68.8382 34.8159 67.7588 34.8159ZM71.0659 36.754C71.0659 34.9784 71.8899 33.8874 73.2942 33.8874C74.4896 33.8874 75.1047 34.5373 75.3252 35.6399H75.3485V32.3322H76.3582V39.4466H75.3485V37.8566H75.3252C75.0931 38.9243 74.4548 39.5858 73.3058 39.5858C71.8319 39.5858 71.0659 38.5065 71.0659 36.754ZM75.3485 36.7889V36.7076C75.3485 35.547 74.6985 34.7927 73.6772 34.7927C72.6095 34.7927 72.0756 35.5122 72.0756 36.754C72.0756 37.9726 72.5747 38.6574 73.6772 38.6574C74.6985 38.6574 75.3485 37.9959 75.3485 36.7889ZM81.276 39.4466V37.9843H81.2644C81.0323 39.0868 80.336 39.5858 79.3727 39.5858C77.9684 39.5858 77.4809 38.6574 77.4809 37.4968V34.0267H78.4906V37.2415C78.4906 37.9843 78.8156 38.6574 79.7905 38.6574C80.7189 38.6574 81.276 38.1351 81.276 37.2415V34.0267H82.2857V39.4466H81.276ZM88.5205 36.0345L87.5456 36.2086C87.3483 35.3381 86.884 34.8159 85.9208 34.8159C84.8995 34.8159 84.1915 35.4542 84.1915 36.7424C84.1915 37.9494 84.8763 38.6574 85.9556 38.6574C87.0233 38.6574 87.3599 38.0075 87.5688 37.1951L88.5321 37.3924C88.2883 38.7502 87.4992 39.5858 85.9672 39.5858C84.2611 39.5858 83.1586 38.5529 83.1586 36.7308C83.1586 34.9435 84.3192 33.8874 85.9324 33.8874C87.5108 33.8874 88.2767 34.6882 88.5205 36.0345ZM88.9529 34.8971V34.0267H89.7537V32.5295H90.7634V34.0267H92.4926V34.8971H90.7634V37.6941C90.7634 38.2976 90.9955 38.611 91.599 38.611C91.8891 38.611 92.1445 38.5529 92.423 38.4717L92.5507 39.4002C92.1793 39.5278 91.8891 39.5858 91.3901 39.5858C90.2643 39.5858 89.7537 38.8431 89.7537 37.8334V34.8971H88.9529Z" fill="black" fill-opacity="0.75"/>
<defs>
<clipPath id="clip0_1638_14793">
<rect width="103.769" height="26.4799" fill="white" transform="translate(1 0.505127)"/>
</clipPath>
</defs>
</svg>
