<svg width="19" height="20" viewBox="0 0 19 20" fill="none" xmlns="http://www.w3.org/2000/svg">
<path d="M5.78566 2.47559C5.27495 2.47559 4.85709 2.89344 4.85709 3.40416V4.33273H3.92851C3.4178 4.33273 2.99994 4.75059 2.99994 5.26131V14.5471C2.99994 15.0578 3.4178 15.4756 3.92851 15.4756H4.85709V16.4042C4.85709 16.9149 5.27495 17.3328 5.78566 17.3328C6.29638 17.3328 6.71424 16.9149 6.71424 16.4042V15.4756H7.64281C8.15353 15.4756 8.57139 15.0578 8.57139 14.5471V5.26131C8.57139 4.75059 8.15353 4.33273 7.64281 4.33273H6.71424V3.40416C6.71424 2.89344 6.29638 2.47559 5.78566 2.47559ZM15.0714 6.18988H14.1428V3.40416C14.1428 2.89344 13.725 2.47559 13.2143 2.47559C12.7035 2.47559 12.2857 2.89344 12.2857 3.40416V6.18988H11.3571C10.8464 6.18988 10.4285 6.60774 10.4285 7.11846V11.7613C10.4285 12.272 10.8464 12.6899 11.3571 12.6899H12.2857V16.4042C12.2857 16.9149 12.7035 17.3328 13.2143 17.3328C13.725 17.3328 14.1428 16.9149 14.1428 16.4042V12.6899H15.0714C15.5821 12.6899 16 12.272 16 11.7613V7.11846C16 6.60774 15.5821 6.18988 15.0714 6.18988Z" fill="#1F950C"/>
</svg>
