<svg width="33" height="34" viewBox="0 0 33 34" fill="none" xmlns="http://www.w3.org/2000/svg">
<path fill-rule="evenodd" clip-rule="evenodd" d="M32.7927 16.9761C32.7927 25.8113 25.6305 32.9735 16.7954 32.9735C7.96016 32.9735 0.797974 25.8113 0.797974 16.9761C0.797974 8.14088 7.96016 0.978691 16.7954 0.978691C25.6305 0.978691 32.7927 8.14088 32.7927 16.9761Z" fill="#55EF3D" fill-opacity="0.15"/>
<path fill-rule="evenodd" clip-rule="evenodd" d="M11.7446 18.5864C11.9018 18.9347 11.9319 19.327 11.8296 19.6951C11.7273 20.0633 11.4992 20.3839 11.1848 20.6011C10.8705 20.8183 10.49 20.9184 10.1095 20.8839C9.72895 20.8494 9.37258 20.6826 9.10241 20.4124C8.83224 20.1423 8.6654 19.7859 8.63093 19.4054C8.59646 19.0249 8.69655 18.6443 8.91377 18.33C9.13098 18.0157 9.45157 17.7875 9.8197 17.6852C10.1878 17.5829 10.5802 17.613 10.9284 17.7702L12.8498 15.8488C12.7376 15.6002 12.6895 15.3274 12.7099 15.0554C12.7303 14.7834 12.8185 14.5208 12.9665 14.2917C13.1145 14.0625 13.3175 13.8741 13.5571 13.7437C13.7966 13.6132 14.0651 13.5449 14.3378 13.5449C14.6106 13.5449 14.879 13.6132 15.1186 13.7437C15.3581 13.8741 15.5612 14.0625 15.7092 14.2917C15.8571 14.5208 15.9454 14.7834 15.9657 15.0554C15.9861 15.3274 15.938 15.6002 15.8258 15.8488L17.7472 17.7702C17.9584 17.6749 18.1874 17.6256 18.419 17.6256C18.6507 17.6256 18.8797 17.6749 19.0908 17.7702L21.8284 15.0325C21.6712 14.6843 21.6412 14.292 21.7434 13.9238C21.8457 13.5557 22.0739 13.2351 22.3882 13.0179C22.7025 12.8007 23.0831 12.7006 23.4636 12.7351C23.8441 12.7695 24.2005 12.9364 24.4707 13.2066C24.7408 13.4767 24.9077 13.8331 24.9421 14.2136C24.9766 14.5941 24.8765 14.9747 24.6593 15.289C24.4421 15.6033 24.1215 15.8315 23.7534 15.9338C23.3852 16.0361 22.9929 16.006 22.6447 15.8488L19.907 18.5864C20.0192 18.8351 20.0673 19.1078 20.0469 19.3799C20.0265 19.6519 19.9383 19.9144 19.7903 20.1436C19.6423 20.3727 19.4393 20.5611 19.1998 20.6915C18.9602 20.822 18.6918 20.8904 18.419 20.8904C18.1462 20.8904 17.8778 20.822 17.6383 20.6915C17.3987 20.5611 17.1957 20.3727 17.0477 20.1436C16.8997 19.9144 16.8115 19.6519 16.7911 19.3799C16.7707 19.1078 16.8188 18.8351 16.931 18.5864L15.0096 16.665C14.7985 16.7603 14.5695 16.8096 14.3378 16.8096C14.1062 16.8096 13.8772 16.7603 13.6661 16.665L11.7446 18.5864Z" fill="#1F950C"/>
</svg>
