<svg width="42" height="33" viewBox="0 0 42 33" fill="none" xmlns="http://www.w3.org/2000/svg">
<path d="M40.3359 0.289551V2.68213C36.9505 3.91911 34.2975 5.87223 32.377 8.5415C30.4564 11.1782 29.4961 13.9289 29.4961 16.7935C29.4961 17.4119 29.5938 17.8677 29.7891 18.1606C29.9193 18.356 30.0658 18.4536 30.2285 18.4536C30.3913 18.4536 30.6354 18.3397 30.9609 18.1118C32.0026 17.3631 33.321 16.9888 34.916 16.9888C36.7715 16.9888 38.4154 17.7537 39.8477 19.2837C41.2799 20.7811 41.9961 22.5715 41.9961 24.6548C41.9961 26.8358 41.166 28.7563 39.5059 30.4165C37.8783 32.0767 35.8926 32.9067 33.5488 32.9067C30.8145 32.9067 28.4544 31.7837 26.4688 29.5376C24.4831 27.2915 23.4902 24.2804 23.4902 20.5044C23.4902 16.1099 24.8411 12.1711 27.543 8.68799C30.2448 5.20492 34.5091 2.40544 40.3359 0.289551ZM16.8496 0.289551V2.68213C13.4642 3.91911 10.8112 5.87223 8.89062 8.5415C6.97005 11.1782 6.00977 13.9289 6.00977 16.7935C6.00977 17.4119 6.10742 17.8677 6.30273 18.1606C6.43294 18.356 6.57943 18.4536 6.74219 18.4536C6.90495 18.4536 7.14909 18.3397 7.47461 18.1118C8.51628 17.3631 9.83464 16.9888 11.4297 16.9888C13.2852 16.9888 14.929 17.7537 16.3613 19.2837C17.7936 20.7811 18.5098 22.5715 18.5098 24.6548C18.5098 26.8358 17.6797 28.7563 16.0195 30.4165C14.3919 32.0767 12.4062 32.9067 10.0625 32.9067C7.32812 32.9067 4.9681 31.7837 2.98242 29.5376C0.996745 27.2915 0.00390625 24.2804 0.00390625 20.5044C0.00390625 16.1099 1.35482 12.1711 4.05664 8.68799C6.75846 5.20492 11.0228 2.40544 16.8496 0.289551Z" fill="#F9FAFA"/>
</svg>
