<svg width="32" height="32" viewBox="0 0 32 32" fill="none" xmlns="http://www.w3.org/2000/svg">
<path fill-rule="evenodd" clip-rule="evenodd" d="M12.759 11.2416V10.3807C12.759 9.53709 13.1005 8.72806 13.7083 8.13156C14.3161 7.53506 15.1405 7.19995 16 7.19995C16.8596 7.19995 17.684 7.53506 18.2918 8.13156C18.8996 8.72806 19.2411 9.53709 19.2411 10.3807V11.2416C20.3534 11.2747 21.0344 11.3917 21.5539 11.815C22.2738 12.4019 22.464 13.3943 22.8434 15.3799L23.4916 18.7727C24.0248 21.5649 24.291 22.9611 23.5141 23.8805C22.7362 24.8 21.2885 24.8 18.3941 24.8H13.606C10.7107 24.8 9.26386 24.8 8.48601 23.8805C7.70816 22.9611 7.97609 21.5649 8.50848 18.7727L9.15669 15.3799C9.53697 13.3952 9.72625 12.4019 10.4462 11.815C10.9656 11.3917 11.6467 11.2747 12.759 11.2416ZM14.0554 10.3807C14.0554 9.87453 14.2603 9.38911 14.625 9.03121C14.9897 8.67331 15.4843 8.47224 16 8.47224C16.5158 8.47224 17.0104 8.67331 17.3751 9.03121C17.7398 9.38911 17.9447 9.87453 17.9447 10.3807V11.2289H14.0554V10.3807ZM18.9982 15.3969C19.0648 15.4491 19.1202 15.5137 19.1613 15.5869C19.2024 15.6601 19.2284 15.7406 19.2378 15.8237C19.2472 15.9068 19.2398 15.991 19.216 16.0713C19.1923 16.1516 19.1526 16.2265 19.0993 16.2917L15.6422 20.5327C15.5852 20.6025 15.5139 20.6597 15.4328 20.7007C15.3517 20.7416 15.2628 20.7652 15.1717 20.7701C15.0807 20.775 14.9897 20.761 14.9045 20.729C14.8194 20.697 14.7421 20.6477 14.6777 20.5844L12.9491 18.888C12.8346 18.7675 12.7723 18.608 12.7753 18.4432C12.7782 18.2783 12.8463 18.1211 12.965 18.0046C13.0838 17.888 13.244 17.8212 13.4119 17.8183C13.5799 17.8154 13.7424 17.8766 13.8653 17.989L15.0822 19.1824L18.0864 15.4961C18.1396 15.4308 18.2054 15.3764 18.28 15.3361C18.3546 15.2957 18.4367 15.2702 18.5213 15.261C18.606 15.2518 18.6917 15.259 18.7736 15.2823C18.8554 15.3057 18.9317 15.3446 18.9982 15.3969Z" fill="black" fill-opacity="0.5"/>
</svg>
