<svg width="27" height="28" viewBox="0 0 27 28" fill="none" xmlns="http://www.w3.org/2000/svg">
<path fill-rule="evenodd" clip-rule="evenodd" d="M20.4595 16.4184C20.2432 16.8976 20.2018 17.4375 20.3426 17.944C20.4833 18.4506 20.7973 18.8918 21.2299 19.1907C21.6624 19.4896 22.1861 19.6273 22.7097 19.5799C23.2333 19.5325 23.7237 19.3029 24.0955 18.9311C24.4672 18.5593 24.6968 18.0689 24.7443 17.5453C24.7917 17.0217 24.654 16.498 24.355 16.0655C24.0561 15.633 23.615 15.319 23.1084 15.1782C22.6018 15.0375 22.0619 15.0789 21.5827 15.2952L18.9387 12.6511C19.0931 12.309 19.1593 11.9337 19.1312 11.5593C19.1032 11.185 18.9818 10.8237 18.7782 10.5084C18.5745 10.1931 18.2951 9.93387 17.9655 9.75436C17.6358 9.57484 17.2665 9.48079 16.8911 9.48079C16.5158 9.48079 16.1464 9.57484 15.8168 9.75436C15.4871 9.93387 15.2077 10.1931 15.0041 10.5084C14.8004 10.8237 14.679 11.185 14.651 11.5593C14.6229 11.9337 14.6891 12.309 14.8435 12.6511L12.1995 15.2952C11.909 15.164 11.5938 15.0962 11.2751 15.0962C10.9563 15.0962 10.6412 15.164 10.3507 15.2952L6.58346 11.5279C6.79977 11.0487 6.84116 10.5088 6.7004 10.0023C6.55964 9.49571 6.24566 9.05455 5.81314 8.75564C5.38061 8.45673 4.85694 8.319 4.33332 8.36643C3.8097 8.41387 3.31931 8.64346 2.94754 9.01523C2.57577 9.387 2.34617 9.8774 2.29874 10.401C2.2513 10.9246 2.38904 11.4483 2.68795 11.8808C2.98686 12.3134 3.42801 12.6273 3.93458 12.7681C4.44115 12.9089 4.98105 12.8675 5.46025 12.6511L9.22748 16.4184C9.0731 16.7605 9.00691 17.1359 9.03495 17.5102C9.063 17.8845 9.18439 18.2458 9.38803 18.5611C9.59168 18.8764 9.87108 19.1357 10.2007 19.3152C10.5304 19.4947 10.8997 19.5887 11.2751 19.5887C11.6504 19.5887 12.0198 19.4947 12.3494 19.3152C12.6791 19.1357 12.9585 18.8764 13.1621 18.5611C13.3658 18.2458 13.4872 17.8845 13.5152 17.5102C13.5433 17.1359 13.4771 16.7605 13.3227 16.4184L15.9667 13.7744C16.2572 13.9055 16.5724 13.9734 16.8911 13.9734C17.2099 13.9734 17.525 13.9055 17.8155 13.7744L20.4595 16.4184Z" fill="#407AFF"/>
</svg>
