<svg width="18" height="18" viewBox="0 0 18 18" fill="none" xmlns="http://www.w3.org/2000/svg">
<g clip-path="url(#clip0_535_11)">
<path d="M7.81307 5.92988L7.88972 5.91893C7.91526 5.91528 7.94081 5.91528 7.96636 5.91163C8.01745 5.90798 8.06489 5.90068 8.11234 5.89703C8.15978 5.89338 8.20358 5.88973 8.24737 5.88608C8.26927 5.88608 8.29117 5.88243 8.31307 5.88243C8.33496 5.88243 8.35321 5.87878 8.37146 5.87878C8.40796 5.87878 8.44445 5.87514 8.4773 5.87514C8.51014 5.87514 8.53934 5.87149 8.56854 5.87149H8.66343H8.74737C8.80211 5.87149 8.8459 5.82404 8.84225 5.7693L8.72182 3.90437C8.71817 3.84962 8.67072 3.80948 8.61598 3.81678C8.59043 3.82043 8.56489 3.82408 8.53204 3.82772C8.50284 3.83137 8.47 3.83502 8.4335 3.83867C8.39336 3.84597 8.34591 3.85327 8.29847 3.85692C8.25102 3.86422 8.19993 3.87152 8.14519 3.87882C8.11599 3.88247 8.09044 3.88612 8.06489 3.89342C8.03935 3.89707 8.01015 3.90437 7.9846 3.90802C7.92986 3.91896 7.87147 3.92991 7.80942 3.94086C7.75103 3.95546 7.68899 3.97006 7.62695 3.98466C7.5941 3.99196 7.5649 3.99925 7.53206 4.00655C7.49921 4.01385 7.46636 4.0248 7.43352 4.0321C7.36783 4.05035 7.30213 4.0686 7.23279 4.08684C7.1671 4.10874 7.09776 4.12699 7.02842 4.14889C6.99557 4.15984 6.95907 4.17078 6.92258 4.18173C6.88973 4.19268 6.85324 4.20363 6.81674 4.21823C6.78024 4.22918 6.7474 4.24378 6.7109 4.25472C6.67441 4.26567 6.64156 4.28027 6.60507 4.29122C6.53572 4.31677 6.46638 4.34596 6.39704 4.37151C6.3277 4.39706 6.25836 4.4299 6.18901 4.4591C6.15617 4.4737 6.11967 4.4883 6.08683 4.5029C6.05398 4.51749 6.02113 4.53209 5.98464 4.55034C5.95179 4.56494 5.91895 4.57954 5.8861 4.59778C5.85325 4.61238 5.82041 4.62698 5.78756 4.64523C5.72187 4.67807 5.65983 4.71092 5.59778 4.74012C5.53574 4.77296 5.47735 4.80581 5.41895 4.83866C5.36056 4.8715 5.30217 4.9007 5.24742 4.93355C5.19268 4.96639 5.13794 4.99924 5.08684 5.02843C5.03575 5.05763 4.9883 5.09048 4.94086 5.11967C4.89342 5.14887 4.84962 5.17807 4.80583 5.20361C4.76568 5.23281 4.72553 5.25836 4.68904 5.2839C4.65254 5.30945 4.61605 5.335 4.58685 5.3569C4.554 5.37879 4.52481 5.40069 4.49926 5.41894C4.46277 5.44449 4.43357 5.46638 4.40802 5.48463C4.36788 5.51383 4.35693 5.57222 4.38612 5.61237L5.15983 6.75103C5.18903 6.79118 5.24012 6.80578 5.28392 6.78023C5.30217 6.76928 5.32771 6.75468 5.35326 6.74008C5.37516 6.72549 5.40071 6.71089 5.4299 6.69629C5.4591 6.68169 5.4883 6.66709 5.52114 6.64885C5.55399 6.6306 5.58683 6.61235 5.62333 6.5941C5.65983 6.57585 5.69997 6.55761 5.74012 6.53936C5.78026 6.52111 5.82406 6.49921 5.86785 6.48096C5.91165 6.46272 5.95909 6.44082 6.00654 6.41892C6.05398 6.39702 6.10142 6.37878 6.15252 6.35688C6.20361 6.33863 6.25471 6.31673 6.3058 6.29849C6.35689 6.28024 6.41164 6.26199 6.46638 6.24009C6.49193 6.22914 6.52113 6.22184 6.54667 6.2109C6.57587 6.2036 6.60142 6.19265 6.63061 6.18535C6.65981 6.17805 6.68536 6.1671 6.71455 6.1598C6.74375 6.1525 6.77295 6.1452 6.79849 6.13425C6.85689 6.11966 6.91163 6.10141 6.97002 6.08681C7.02842 6.07221 7.08316 6.05761 7.14155 6.04302C7.17075 6.03572 7.19995 6.02842 7.22914 6.02477C7.25834 6.01747 7.28754 6.01382 7.31308 6.00652C7.34228 5.99922 7.36783 5.99557 7.39702 5.98827C7.42622 5.98097 7.45177 5.97732 7.48096 5.97367C7.53571 5.96273 7.59045 5.95543 7.64519 5.94448C7.70724 5.94448 7.76198 5.93718 7.81307 5.92988Z" fill="black" fill-opacity="0.72"/>
<path d="M2.53589 7.40008C2.51399 7.42927 2.49575 7.45847 2.47385 7.48767C2.45195 7.51686 2.4337 7.54606 2.41181 7.57525C2.38991 7.60445 2.37166 7.63365 2.35341 7.66284C2.31327 7.72124 2.27312 7.78328 2.23663 7.84167C2.20013 7.90372 2.15999 7.96576 2.12349 8.02415L2.09429 8.06795L2.06875 8.11539C2.0505 8.14459 2.03225 8.17743 2.01765 8.20663C1.94466 8.32707 1.88262 8.45115 1.82057 8.57159C1.79138 8.62998 1.76218 8.69202 1.73299 8.75042C1.71839 8.77961 1.70379 8.80881 1.69284 8.83801C1.67824 8.8672 1.66729 8.8964 1.65634 8.92195C1.6308 8.97669 1.60525 9.03143 1.58335 9.08618C1.56146 9.14092 1.53956 9.19202 1.52131 9.23946C1.50306 9.29055 1.48116 9.33435 1.46292 9.38179C1.44467 9.42559 1.43007 9.46938 1.41547 9.50953C1.40087 9.54967 1.38628 9.58617 1.37168 9.62267C1.36073 9.65916 1.34978 9.69201 1.33883 9.7212C1.32423 9.76135 1.31328 9.7942 1.30598 9.81974C1.29139 9.86719 1.31328 9.91828 1.36073 9.93653L2.07969 10.2139C2.12714 10.2321 2.17823 10.2102 2.20013 10.1665C2.21108 10.1446 2.22203 10.119 2.23663 10.0898C2.24758 10.0643 2.26217 10.0387 2.27677 10.0059C2.29137 9.97667 2.30962 9.94383 2.32787 9.91098C2.34611 9.87814 2.36436 9.84164 2.38261 9.8015C2.40086 9.765 2.4264 9.72485 2.4483 9.68471C2.4702 9.64456 2.49575 9.60077 2.52129 9.55697C2.54684 9.51318 2.57604 9.46938 2.60158 9.42194C2.61618 9.40004 2.63078 9.37449 2.64538 9.3526C2.65998 9.3307 2.67458 9.30515 2.68917 9.28326C2.71837 9.23581 2.75122 9.18837 2.78406 9.13727C2.8534 9.04238 2.9191 8.9402 2.99209 8.84166C3.01034 8.81611 3.02858 8.79056 3.04683 8.76867L3.07603 8.73217L3.10523 8.69567C3.14537 8.64823 3.18187 8.59714 3.22201 8.54969C3.26216 8.50225 3.3023 8.4548 3.34245 8.40736C3.36435 8.38546 3.38259 8.35991 3.40084 8.33802C3.42274 8.31612 3.44099 8.29422 3.46288 8.26867C3.48478 8.24678 3.50303 8.22488 3.52493 8.20298C3.54317 8.18108 3.56507 8.15919 3.58697 8.13729C3.62711 8.09349 3.67091 8.05335 3.71105 8.00955C3.7512 7.96941 3.79135 7.92926 3.83149 7.88912C3.87164 7.84897 3.90813 7.81248 3.94828 7.77598C3.98842 7.73949 4.02492 7.70664 4.06141 7.67379C4.09791 7.64095 4.13441 7.61175 4.1709 7.5789C4.2074 7.54971 4.24024 7.52051 4.26944 7.49496C4.30229 7.46942 4.33148 7.44752 4.35703 7.42562C4.38623 7.40373 4.41177 7.38183 4.43367 7.36358C4.44462 7.35628 4.45922 7.34533 4.47382 7.33438C4.48841 7.32343 4.49936 7.31614 4.51031 7.30519C4.53586 7.28694 4.55776 7.26869 4.576 7.25409C4.6198 7.22125 4.6271 7.1592 4.5906 7.11906L3.76945 6.15192C3.73295 6.11178 3.67091 6.10813 3.63076 6.14462C3.61252 6.16287 3.59427 6.18112 3.56872 6.20302C3.55777 6.21396 3.54682 6.22491 3.53587 6.23586C3.52493 6.24681 3.51398 6.25776 3.49938 6.27236C3.47018 6.30155 3.44099 6.33075 3.40814 6.3636C3.37529 6.39644 3.34245 6.43294 3.30595 6.46943C3.27311 6.50593 3.23661 6.54608 3.20011 6.58622C3.16362 6.62637 3.12347 6.66651 3.08698 6.71031C3.05048 6.7541 3.01034 6.80155 2.97019 6.84899C2.93005 6.89643 2.8899 6.94388 2.84976 6.99497C2.80961 7.04607 2.76581 7.09716 2.72567 7.1519C2.68552 7.20665 2.64173 7.26139 2.60158 7.31614C2.57604 7.34168 2.55414 7.37088 2.53589 7.40008Z" fill="black" fill-opacity="0.48"/>
<path d="M1.04328 10.7693C1.03963 10.7912 1.03233 10.8204 1.02503 10.8532C1.01773 10.8824 1.01408 10.9153 1.00679 10.9481C0.999486 10.9846 0.992187 11.0247 0.984888 11.0685C0.977589 11.1123 0.970289 11.1561 0.96299 11.2072C0.959341 11.2328 0.955691 11.2547 0.952042 11.2802C0.948392 11.3058 0.944742 11.3313 0.941093 11.3569C0.926495 11.4627 0.908247 11.5722 0.900948 11.6926C0.893648 11.751 0.889999 11.813 0.8827 11.8751C0.87905 11.9371 0.875401 12.0028 0.868101 12.0685C0.857153 12.1999 0.857153 12.3349 0.849854 12.47V12.5211V12.5722V12.6743V12.7765V12.8276L0.853503 12.8787C0.857153 12.9481 0.860802 13.0174 0.860802 13.0868L0.864452 13.1378V13.1561V13.167L0.868101 13.1926C0.871751 13.2254 0.871751 13.2583 0.875401 13.2911C0.87905 13.324 0.87905 13.3568 0.8827 13.3897C0.886349 13.4225 0.889999 13.459 0.893648 13.4919C0.897298 13.5247 0.900948 13.5575 0.904597 13.5904C0.904597 13.6086 0.908247 13.6232 0.908247 13.6415C0.911896 13.6561 0.911896 13.6743 0.915546 13.6889C0.922845 13.7546 0.930144 13.8167 0.941093 13.8787C0.952042 13.9408 0.959341 13.9991 0.970289 14.0575C0.977589 14.1159 0.988537 14.1707 0.999486 14.2254C0.999486 14.2291 0.999486 14.2327 1.00314 14.24C1.01043 14.2838 1.05058 14.3167 1.09437 14.3167H1.34985C1.40459 14.3167 1.44838 14.2692 1.44473 14.2181C1.44473 14.2035 1.44473 14.1889 1.44108 14.1743C1.43743 14.1232 1.43379 14.0685 1.43379 14.0101C1.43014 13.9553 1.43014 13.897 1.42649 13.8386C1.42649 13.7802 1.42649 13.7181 1.42649 13.6597C1.42649 13.6451 1.42649 13.6305 1.42649 13.6123C1.42649 13.5977 1.42649 13.5831 1.42649 13.5685C1.42649 13.5393 1.42649 13.5065 1.43014 13.4773C1.43014 13.4481 1.43014 13.4152 1.43379 13.386C1.43379 13.3532 1.43743 13.3203 1.43743 13.2875C1.43743 13.2546 1.44108 13.2218 1.44108 13.1889V13.1634V13.1524C1.44108 13.1488 1.44108 13.1561 1.44108 13.1561V13.1524V13.1451L1.44473 13.0977C1.44838 13.032 1.45568 12.97 1.45933 12.9043L1.46298 12.8568L1.47028 12.8094C1.47393 12.7765 1.47758 12.7437 1.48123 12.7145C1.48488 12.6816 1.48853 12.6525 1.49218 12.6196L1.49583 12.5722L1.50313 12.5247C1.52138 12.4006 1.53962 12.2765 1.56152 12.1561C1.57247 12.0977 1.58342 12.0393 1.59437 11.9809C1.60532 11.9262 1.61991 11.8678 1.63086 11.8167C1.65276 11.7072 1.68196 11.6087 1.70385 11.5174C1.71115 11.4955 1.7148 11.47 1.7221 11.4481C1.7294 11.4262 1.73305 11.4043 1.74035 11.3861C1.7513 11.3459 1.7659 11.3058 1.7732 11.2693C1.78414 11.2328 1.79509 11.1999 1.80239 11.1671C1.81334 11.1342 1.82429 11.1014 1.83159 11.0758C1.84254 11.0466 1.84984 11.0174 1.85714 10.9955C1.87538 10.9445 1.84619 10.8897 1.79144 10.8751L1.15642 10.7036C1.10897 10.6853 1.05423 10.7182 1.04328 10.7693Z" fill="black" fill-opacity="0.24"/>
<path d="M5.149 9.49269C5.13941 9.53424 5.14928 9.58036 5.19062 9.61553L9.42326 13.1312C9.74414 13.3988 10.2207 13.3539 10.4856 13.0326C10.5614 12.9414 10.6123 12.838 10.6385 12.7291C10.7052 12.4571 10.6171 12.1594 10.387 11.9702C10.3419 11.9331 10.2919 11.9019 10.2435 11.8763L5.32471 9.40863C5.24401 9.36693 5.16601 9.42273 5.149 9.49269Z" fill="black"/>
<path d="M13.3641 7.80559L13.4225 7.86399C13.4444 7.88588 13.4627 7.90778 13.4882 7.93333C13.5101 7.95887 13.5357 7.98442 13.5612 8.00997C13.5868 8.03916 13.6123 8.06836 13.6415 8.09756C13.6671 8.1304 13.6999 8.1596 13.7255 8.1961C13.7547 8.22894 13.7839 8.26544 13.813 8.30193C13.8422 8.33843 13.8751 8.37857 13.9043 8.41507C13.9335 8.45522 13.9663 8.49536 13.9992 8.53551C14.0284 8.57565 14.0612 8.61945 14.0904 8.66324C14.105 8.68514 14.1233 8.70704 14.1379 8.72893C14.1525 8.75083 14.1671 8.77273 14.1817 8.79463C14.1963 8.81652 14.2109 8.83842 14.2291 8.86032C14.2437 8.88222 14.2583 8.90776 14.2729 8.92966C14.3021 8.9771 14.3313 9.0209 14.3605 9.06834C14.3897 9.11579 14.4152 9.16323 14.4444 9.21068L14.4663 9.24717L14.4773 9.26542L17.5977 8.44427C17.594 8.44062 17.594 8.43697 17.5904 8.43332C17.5721 8.40412 17.5539 8.37492 17.5393 8.34208C17.521 8.31288 17.5028 8.28369 17.4845 8.25084C17.448 8.1888 17.4079 8.12675 17.3677 8.06471C17.2838 7.94063 17.1999 7.81289 17.1086 7.68881C17.0867 7.65596 17.0612 7.62676 17.0393 7.59392L17.0064 7.54647L16.9699 7.49903C16.9225 7.43698 16.875 7.37494 16.8239 7.3129C16.7765 7.25086 16.7254 7.18881 16.6743 7.13042C16.6488 7.10122 16.6232 7.06838 16.5977 7.03918C16.5721 7.00998 16.5466 6.98079 16.521 6.95159C16.4955 6.9224 16.4699 6.8932 16.4444 6.864C16.4188 6.8348 16.3933 6.80561 16.3677 6.78006C16.3167 6.72532 16.2656 6.67057 16.2145 6.61583C16.1634 6.56109 16.1123 6.50999 16.0612 6.46255C16.0101 6.41145 15.9626 6.36401 15.9116 6.31657C15.8605 6.26912 15.813 6.22533 15.7692 6.18153C15.7218 6.13774 15.6743 6.09759 15.6305 6.05745C15.5867 6.0173 15.5429 5.98081 15.5028 5.94796C15.4627 5.91511 15.4225 5.88227 15.386 5.84942C15.3495 5.82022 15.313 5.79103 15.2838 5.76548C15.251 5.73993 15.2218 5.71804 15.1926 5.69614C15.1524 5.66694 15.1196 5.64139 15.094 5.6195C15.0539 5.5903 14.9955 5.59395 14.9627 5.6341L13.3167 7.62676C13.2839 7.66326 13.2875 7.718 13.324 7.7545C13.3313 7.77275 13.3459 7.78734 13.3641 7.80559Z" fill="black"/>
<path d="M14.185 5.01769C14.1631 5.00674 14.1413 4.99214 14.1121 4.97389C14.1011 4.96659 14.0865 4.95929 14.0719 4.95199C14.0573 4.94469 14.0391 4.93375 14.0245 4.92645C13.9843 4.90455 13.9442 4.88265 13.9004 4.8571C13.8566 4.83156 13.8091 4.80601 13.758 4.78046C13.7106 4.75492 13.6595 4.73302 13.6084 4.70382C13.5573 4.67828 13.5026 4.64908 13.4442 4.62353C13.3858 4.59798 13.3274 4.56879 13.2654 4.54324C13.2033 4.51404 13.1413 4.4885 13.0756 4.46295C13.0099 4.4374 12.9442 4.40821 12.8785 4.38266C12.8603 4.37536 12.842 4.36806 12.8274 4.36441C11.8639 4.0177 11.0756 3.88267 11.0756 3.88267C11.0245 3.87537 10.9734 3.86807 10.9223 3.85712C10.8895 3.85347 10.853 3.84617 10.8201 3.84252C10.7873 3.83887 10.7544 3.83522 10.7216 3.83157C10.6559 3.82427 10.5939 3.81698 10.5318 3.80968C10.4698 3.80603 10.4114 3.79873 10.353 3.79508C10.2946 3.79143 10.2399 3.78413 10.1888 3.78413C10.1377 3.78048 10.0866 3.78048 10.0391 3.77683C9.99169 3.77318 9.94789 3.77318 9.90775 3.76953C9.8676 3.76953 9.8311 3.76953 9.79826 3.76953C9.75081 3.76953 9.71067 3.76953 9.67782 3.76953C9.62673 3.76953 9.58658 3.80968 9.58293 3.86077L9.48804 5.83884C9.4844 5.88628 9.52089 5.93008 9.56834 5.93738C9.59023 5.94103 9.61213 5.94468 9.64133 5.94833C9.66687 5.95198 9.69242 5.95563 9.72527 5.95928C9.75446 5.96292 9.78731 5.97022 9.82381 5.97752C9.85665 5.98482 9.8968 5.98847 9.93329 5.99577C9.96614 6.00307 10.0026 6.01037 10.0391 6.01767C10.0391 6.01767 11.5099 6.33153 12.2471 6.91181C12.28 6.93371 12.3092 6.95561 12.3384 6.97386C12.3749 6.99575 12.4077 7.01765 12.4369 7.03955C12.4661 7.06145 12.4916 7.07969 12.5172 7.09794C12.5427 7.11619 12.5646 7.13079 12.5865 7.14904C12.5975 7.15634 12.6121 7.16728 12.623 7.17823C12.6376 7.18918 12.6486 7.19648 12.6595 7.20743C12.6851 7.22568 12.707 7.24393 12.7289 7.25852C12.7727 7.29137 12.8347 7.28042 12.8639 7.23298L14.2215 5.16367C14.2471 5.10528 14.2325 5.04323 14.185 5.01769Z" fill="black" fill-opacity="0.88"/>
</g>
<defs>
<clipPath id="clip0_535_11">
<rect width="16.9999" height="16.9999" fill="white" transform="translate(0.630859 0.710449)"/>
</clipPath>
</defs>
</svg>
