<svg width="20" height="21" viewBox="0 0 20 21" fill="none" xmlns="http://www.w3.org/2000/svg">
<path d="M6.46251 11.5543V17.246C6.46251 17.5863 6.3273 17.9127 6.08663 18.1534C5.84596 18.3941 5.51954 18.5293 5.17918 18.5293H3.67084C3.50161 18.5304 3.33384 18.498 3.17717 18.434C3.02051 18.37 2.87805 18.2757 2.758 18.1564C2.63795 18.0371 2.54267 17.8953 2.47766 17.739C2.41264 17.5828 2.37917 17.4152 2.37918 17.246V11.5543C2.37807 11.3844 2.41072 11.2159 2.47524 11.0587C2.53977 10.9015 2.63487 10.7586 2.75503 10.6385C2.87519 10.5183 3.01803 10.4232 3.17524 10.3587C3.33245 10.2942 3.50091 10.2615 3.67084 10.2626H5.17918C5.34841 10.2626 5.51597 10.2961 5.67222 10.3611C5.82847 10.4261 5.97031 10.5214 6.08959 10.6415C6.20887 10.7615 6.30322 10.904 6.36723 11.0606C6.43123 11.2173 6.46361 11.3851 6.46251 11.5543ZM12.0458 3.57096V17.246C12.0458 17.4152 12.0124 17.5828 11.9474 17.739C11.8824 17.8953 11.7871 18.0371 11.667 18.1564C11.547 18.2757 11.4045 18.37 11.2478 18.434C11.0912 18.498 10.9234 18.5304 10.7542 18.5293H9.24584C8.90471 18.5293 8.57743 18.3944 8.33543 18.1539C8.09344 17.9135 7.95638 17.5871 7.95418 17.246V3.57096C7.95636 3.22907 8.09315 2.90179 8.33491 2.66003C8.57667 2.41827 8.90395 2.28148 9.24584 2.2793H10.7542C11.0967 2.2793 11.4253 2.41538 11.6675 2.65762C11.9098 2.89985 12.0458 3.22839 12.0458 3.57096ZM17.6208 7.88763V17.246C17.6208 17.5863 17.4856 17.9127 17.245 18.1534C17.0043 18.3941 16.6779 18.5293 16.3375 18.5293H14.8292C14.6599 18.5304 14.4922 18.498 14.3355 18.434C14.1788 18.37 14.0364 18.2757 13.9163 18.1564C13.7963 18.0371 13.701 17.8953 13.636 17.739C13.571 17.5828 13.5375 17.4152 13.5375 17.246V7.88763C13.5375 7.71801 13.5709 7.55004 13.6358 7.39333C13.7007 7.23662 13.7959 7.09423 13.9158 6.97428C14.0358 6.85434 14.1782 6.7592 14.3349 6.69429C14.4916 6.62937 14.6596 6.59596 14.8292 6.59596H16.3708C16.7061 6.60678 17.0241 6.74763 17.2574 6.98871C17.4907 7.22978 17.621 7.55216 17.6208 7.88763Z" fill="#1F950C"/>
</svg>
