<svg width="33" height="34" viewBox="0 0 33 34" fill="none" xmlns="http://www.w3.org/2000/svg">
<path fill-rule="evenodd" clip-rule="evenodd" d="M32.5637 16.9762C32.5637 25.8114 25.4015 32.9736 16.5663 32.9736C7.73116 32.9736 0.56897 25.8114 0.56897 16.9762C0.56897 8.14099 7.73116 0.978798 16.5663 0.978798C25.4015 0.978798 32.5637 8.14099 32.5637 16.9762Z" fill="#407AFF" fill-opacity="0.1"/>
<g clip-path="url(#clip0_46_1217)">
<path d="M16.944 25.8112C21.6966 25.8112 25.5492 21.9586 25.5492 17.206C25.5492 12.4533 21.6966 8.60078 16.944 8.60078C13.0906 8.60078 9.86535 11.1333 8.76904 14.6244H10.9203" stroke="#407AFF" stroke-width="1.29078" stroke-linecap="round" stroke-linejoin="round"/>
<path d="M16.9428 13.7636V17.2057L18.6639 18.9267M8.33765 17.2057C8.33765 17.4954 8.35055 17.7823 8.37637 18.0662M14.3613 25.8109C14.0686 25.714 13.7814 25.6014 13.5008 25.4736M9.37888 21.5083C9.21225 21.1861 9.06428 20.8545 8.93571 20.5153M10.7738 23.4927C11.0377 23.7766 11.3179 24.0414 11.6145 24.2869" stroke="#407AFF" stroke-width="1.29078" stroke-linecap="round" stroke-linejoin="round"/>
</g>
<defs>
<clipPath id="clip0_46_1217">
<rect width="20.21" height="20.21" fill="white" transform="translate(7.38403 6.79263)"/>
</clipPath>
</defs>
</svg>
