<svg width="26" height="27" viewBox="0 0 26 27" fill="none" xmlns="http://www.w3.org/2000/svg">
<path d="M19.5 17.1494C18.3519 17.1494 17.2968 17.5465 16.4638 18.2105L11.2594 14.9577C11.4135 14.2606 11.4135 13.5382 11.2594 12.841L16.4638 9.58829C17.2968 10.2524 18.3519 10.6494 19.5 10.6494C22.1924 10.6494 24.375 8.46679 24.375 5.77441C24.375 3.08204 22.1924 0.899414 19.5 0.899414C16.8076 0.899414 14.625 3.08204 14.625 5.77441C14.625 6.13791 14.6651 6.49195 14.7406 6.83275L9.53621 10.0855C8.70325 9.42147 7.64806 9.02441 6.5 9.02441C3.80763 9.02441 1.625 11.207 1.625 13.8994C1.625 16.5918 3.80763 18.7744 6.5 18.7744C7.64806 18.7744 8.70325 18.3774 9.53621 17.7133L14.7406 20.9661C14.6637 21.3136 14.6249 21.6685 14.625 22.0244C14.625 24.7168 16.8076 26.8994 19.5 26.8994C22.1924 26.8994 24.375 24.7168 24.375 22.0244C24.375 19.332 22.1924 17.1494 19.5 17.1494Z" fill="url(#paint0_linear_3295_15996)"/>
<defs>
<linearGradient id="paint0_linear_3295_15996" x1="31.6618" y1="26.9397" x2="3.40893" y2="-1.62797" gradientUnits="userSpaceOnUse">
<stop stop-color="#007AFF"/>
<stop offset="1" stop-color="#81F0FF"/>
</linearGradient>
</defs>
</svg>
