<svg width="22" height="23" viewBox="0 0 22 23" fill="none" xmlns="http://www.w3.org/2000/svg">
<path d="M16.5 14.0396C15.5286 14.0396 14.6357 14.3755 13.9309 14.9374L9.5272 12.1851C9.65761 11.5952 9.65761 10.9839 9.5272 10.394L13.9309 7.64168C14.6357 8.20358 15.5286 8.53955 16.5 8.53955C18.7782 8.53955 20.625 6.69271 20.625 4.41455C20.625 2.13639 18.7782 0.289551 16.5 0.289551C14.2218 0.289551 12.375 2.13639 12.375 4.41455C12.375 4.72212 12.4089 5.0217 12.4728 5.31006L8.0691 8.06238C7.36428 7.50052 6.47144 7.16455 5.5 7.16455C3.22184 7.16455 1.375 9.01139 1.375 11.2896C1.375 13.5677 3.22184 15.4146 5.5 15.4146C6.47144 15.4146 7.36428 15.0786 8.0691 14.5167L12.4728 17.269C12.4077 17.5631 12.3749 17.8634 12.375 18.1646C12.375 20.4427 14.2218 22.2896 16.5 22.2896C18.7782 22.2896 20.625 20.4427 20.625 18.1646C20.625 15.8864 18.7782 14.0396 16.5 14.0396Z" fill="url(#paint0_linear_44_2967)"/>
<defs>
<linearGradient id="paint0_linear_44_2967" x1="8.60373" y1="15.4146" x2="22.9379" y2="15.6314" gradientUnits="userSpaceOnUse">
<stop stop-color="#3E57DA"/>
<stop offset="1" stop-color="#212E74"/>
</linearGradient>
</defs>
</svg>
