<svg width="27" height="28" viewBox="0 0 27 28" fill="none" xmlns="http://www.w3.org/2000/svg">
<path d="M22.5067 16.1367C22.5067 15.9132 22.4179 15.699 22.2599 15.541C22.102 15.383 21.8877 15.2943 21.6643 15.2943H18.2947C18.0712 15.2943 17.857 15.383 17.699 15.541C17.541 15.699 17.4523 15.9132 17.4523 16.1367V23.7183H15.7674V5.46621C15.7674 4.64851 15.7652 4.11836 15.7135 3.72973C15.6641 3.36469 15.5844 3.25012 15.5203 3.1861C15.4563 3.12208 15.3417 3.04233 14.9767 2.99291C14.587 2.94124 14.0579 2.939 13.2402 2.939C12.4225 2.939 11.8924 2.94124 11.5038 2.99291C11.1387 3.04233 11.0241 3.12208 10.9601 3.1861C10.8961 3.25012 10.8164 3.36469 10.7669 3.72973C10.7153 4.11948 10.713 4.64851 10.713 5.46621V23.7183H9.02821V10.5206C9.02821 10.2972 8.93946 10.0829 8.78148 9.92496C8.6235 9.76698 8.40923 9.67823 8.18581 9.67823H4.81619C4.59277 9.67823 4.3785 9.76698 4.22052 9.92496C4.06254 10.0829 3.97379 10.2972 3.97379 10.5206V23.7183H2.00818C1.78476 23.7183 1.57049 23.8071 1.41251 23.965C1.25452 24.123 1.16577 24.3373 1.16577 24.5607C1.16577 24.7841 1.25452 24.9984 1.41251 25.1564C1.57049 25.3144 1.78476 25.4031 2.00818 25.4031H24.4723C24.6957 25.4031 24.91 25.3144 25.068 25.1564C25.2259 24.9984 25.3147 24.7841 25.3147 24.5607C25.3147 24.3373 25.2259 24.123 25.068 23.965C24.91 23.8071 24.6957 23.7183 24.4723 23.7183H22.5067V16.1367Z" fill="#407AFF"/>
</svg>
