<svg width="106" height="27" viewBox="0 0 106 27" fill="none" xmlns="http://www.w3.org/2000/svg">
<g clip-path="url(#clip0_446_1820)">
<path fill-rule="evenodd" clip-rule="evenodd" d="M8.07395 20.7611C12.752 20.7611 14.9535 18.589 14.9535 15.5005C14.9535 12.9624 13.5161 11.0654 8.50136 10.1491C4.1892 9.41429 3.2729 8.28429 3.2729 6.66248C3.2729 4.82696 4.80104 3.69695 7.2484 3.69695C10.3984 3.69695 11.622 5.34804 12.2339 8.19061L14.406 7.7632C13.6713 4.30879 11.8065 1.73848 7.34208 1.73848C3.33438 1.74141 1.03925 3.76136 1.03925 6.72688C1.03925 9.35574 2.69034 11.2527 7.70508 12.1076C11.4054 12.7194 12.7198 13.6679 12.7198 15.5942C12.7198 17.5204 11.1917 18.7734 8.1647 18.7734C4.64881 18.7734 2.66106 16.8178 2.13998 13.6357L0 14.0631C0.488886 17.9156 2.96552 20.6997 8.07395 20.7611ZM70.1215 20.9456C73.6374 20.9456 75.7481 19.2037 76.4829 16.2968L74.5859 15.7464C74.0648 17.5819 72.9348 19.0486 70.1215 19.0486C67.0623 19.0486 65.259 17.2453 65.016 14.1568H76.5122C76.5415 13.5771 76.5737 13.0268 76.5737 12.6579C76.5737 8.71463 74.22 6.05356 70.0601 6.05356C65.9001 6.05356 62.9053 8.86686 62.9053 13.5449C62.9053 18.223 65.7186 20.9456 70.1215 20.9456ZM65.0775 12.4149C65.4142 9.44942 67.2175 7.92128 70.0015 7.92128C72.9378 7.92128 74.4366 9.57237 74.5888 12.4149H65.0804H65.0775ZM50.5544 1.67993H52.6651V12.4442H52.8173L59.729 6.20579H62.3901V6.26727L54.5328 13.2698L62.9727 20.363V20.4245H60.2501L52.8202 14.1246H52.668V20.4245H50.5573V1.67993H50.5544ZM41.3475 20.243C40.1853 22.9333 39.1138 23.3315 37.4335 23.3315C36.8216 23.3315 36.2713 23.2407 35.6302 23.1178L35.3257 25.1348C35.9053 25.2255 36.5172 25.3192 37.4042 25.3192C40.1267 25.3192 41.8393 23.9433 43.2767 20.6089L49.4536 6.20579H47.1907L45.2322 11.282C44.4974 13.1468 43.3674 15.8986 42.4804 18.223C41.5027 15.9894 40.279 13.0853 39.5149 11.2205L37.4364 6.20579H35.0827L41.3504 20.2401L41.3475 20.243ZM28.6247 6.20579H26.514V20.4245H28.6247V12.6257C28.6247 9.6602 29.9714 8.498 32.8139 8.498H33.9761V6.20579H32.9984C30.6447 6.20579 29.2073 7.42947 28.6862 10.3335H28.6247V6.20579ZM16.0571 8.07351H18.3493V16.2675C18.3493 18.9286 19.6345 20.7611 22.4771 20.7611C23.6685 20.7611 24.4326 20.5767 25.4133 20.3015L25.1089 18.3753C24.2833 18.6212 23.6715 18.7412 22.8459 18.7412C21.1334 18.7412 20.46 17.8249 20.46 16.0801V8.06766H25.2611V6.20286H20.46V2.13954H18.3493V6.20579H16.0571V8.07059V8.07351Z" fill="black"/>
<path fill-rule="evenodd" clip-rule="evenodd" d="M81.0493 24.8307H84.7848L87.3785 19.6111L78.3034 1.57205L77.5129 0H79.2694H85.5225H86.1812L86.4856 0.594275L89.7702 7.0142L87.721 11.2093L87.3551 7.07568L84.8638 2.16925H81.0259L88.5817 17.1901L96.8166 0.605985L97.1152 0H97.7856H103.925H105.658L104.896 1.55741L100.131 11.3L98.9127 8.87607L102.191 2.16925H98.456L95.9355 7.23962L105.016 25.2845L105.807 26.8566H104.05H97.7944H97.1357L96.8342 26.2623L93.5642 19.8248L95.5959 15.6414L96.0028 19.8511L98.4531 24.6873H102.294L94.7352 9.66356L86.4241 26.394L86.1255 27H85.4552H79.3163H77.5832L78.3443 25.4426L83.1102 15.7L84.3281 18.1239L81.0493 24.8307Z" fill="#4079FF"/>
</g>
<defs>
<clipPath id="clip0_446_1820">
<rect width="105.807" height="27" fill="white"/>
</clipPath>
</defs>
</svg>
