<svg width="53" height="53" viewBox="0 0 53 53" fill="none" xmlns="http://www.w3.org/2000/svg">
<path d="M26.3486 34.5038L22.3399 30.313L35.639 18.655L38.0086 21.2048L26.3486 34.5038ZM43.6544 46.3458C47.8453 42.155 50.5771 36.3251 50.5771 29.7666C50.5771 16.8338 40.0119 6.2666 27.0771 6.2666C14.1424 6.2666 3.57715 16.8338 3.57715 29.7666C3.57715 36.327 6.1269 42.155 10.4999 46.3458L13.7781 43.0656C10.3177 39.6053 8.31436 35.0502 8.31436 29.7686C8.31101 27.3035 8.79401 24.8619 9.73569 22.5838C10.6774 20.3057 12.0592 18.2357 13.8021 16.4924C15.545 14.7491 17.6147 13.3668 19.8927 12.4247C22.1706 11.4825 24.6121 10.999 27.0771 11.0019C29.5419 10.999 31.983 11.4824 34.2607 12.4243C36.5384 13.3662 38.6079 14.7482 40.3508 16.491C42.0936 18.2339 43.4756 20.3034 44.4175 22.5811C45.3594 24.8588 45.8428 27.2999 45.8399 29.7646C45.8399 34.8661 43.6544 39.6033 40.3762 43.0637L43.6544 46.3458Z" fill="white"/>
</svg>
