<svg width="33" height="33" viewBox="0 0 33 33" fill="none" xmlns="http://www.w3.org/2000/svg">
<path fill-rule="evenodd" clip-rule="evenodd" d="M31.9948 15.9974C31.9948 24.8326 24.8326 31.9948 15.9974 31.9948C7.16219 31.9948 0 24.8326 0 15.9974C0 7.16219 7.16219 0 15.9974 0C24.8326 0 31.9948 7.16219 31.9948 15.9974Z" fill="#DA0909" fill-opacity="0.15"/>
<path fill-rule="evenodd" clip-rule="evenodd" d="M10.9467 14.0538C11.1039 13.7056 11.1339 13.3133 11.0317 12.9451C10.9294 12.577 10.7012 12.2564 10.3869 12.0392C10.0726 11.822 9.69201 11.7219 9.31149 11.7564C8.93097 11.7908 8.5746 11.9577 8.30444 12.2278C8.03427 12.498 7.86742 12.8544 7.83295 13.2349C7.79848 13.6154 7.89857 13.996 8.11579 14.3103C8.33301 14.6246 8.6536 14.8528 9.02173 14.9551C9.38985 15.0573 9.7822 15.0273 10.1304 14.8701L12.0519 16.7915C11.9397 17.0401 11.8916 17.3129 11.9119 17.5849C11.9323 17.8569 12.0205 18.1195 12.1685 18.3486C12.3165 18.5777 12.5196 18.7661 12.7591 18.8966C12.9987 19.0271 13.2671 19.0954 13.5399 19.0954C13.8126 19.0954 14.081 19.0271 14.3206 18.8966C14.5601 18.7661 14.7632 18.5777 14.9112 18.3486C15.0592 18.1195 15.1474 17.8569 15.1678 17.5849C15.1881 17.3129 15.14 17.0401 15.0279 16.7915L16.9493 14.8701C17.1604 14.9654 17.3894 15.0147 17.621 15.0147C17.8527 15.0147 18.0817 14.9654 18.2928 14.8701L21.0305 17.6077C20.8733 17.956 20.8432 18.3483 20.9455 18.7164C21.0478 19.0846 21.2759 19.4051 21.5903 19.6224C21.9046 19.8396 22.2851 19.9397 22.6656 19.9052C23.0462 19.8707 23.4025 19.7039 23.6727 19.4337C23.9429 19.1636 24.1097 18.8072 24.1442 18.4267C24.1786 18.0462 24.0786 17.6656 23.8613 17.3513C23.6441 17.037 23.3235 16.8088 22.9554 16.7065C22.5873 16.6042 22.1949 16.6343 21.8467 16.7915L19.109 14.0538C19.2212 13.8052 19.2693 13.5324 19.2489 13.2604C19.2286 12.9884 19.1404 12.7258 18.9924 12.4967C18.8444 12.2676 18.6413 12.0792 18.4018 11.9487C18.1622 11.8183 17.8938 11.7499 17.621 11.7499C17.3483 11.7499 17.0798 11.8183 16.8403 11.9487C16.6007 12.0792 16.3977 12.2676 16.2497 12.4967C16.1017 12.7258 16.0135 12.9884 15.9931 13.2604C15.9727 13.5324 16.0208 13.8052 16.133 14.0538L14.2116 15.9753C14.0005 15.8799 13.7715 15.8306 13.5399 15.8306C13.3082 15.8306 13.0792 15.8799 12.8681 15.9753L10.9467 14.0538Z" fill="#DA0909"/>
</svg>
