<svg width="57" height="57" viewBox="0 0 57 57" fill="none" xmlns="http://www.w3.org/2000/svg">
<g clip-path="url(#clip0_132_539)">
<path d="M55.3213 29.9548C56.2113 28.9371 56.2113 27.4179 55.3213 26.4002L51.4165 21.9353C50.9297 21.3787 50.6925 20.6467 50.7604 19.9103L51.3039 14.011C51.4282 12.6625 50.5341 11.4306 49.2135 11.1306L43.451 9.82165C42.7267 9.65712 42.1021 9.20145 41.7244 8.56189L38.7048 3.4493C38.0142 2.28008 36.5626 1.80573 35.3149 2.34153L29.8929 4.66977C29.2128 4.96184 28.4426 4.96184 27.7624 4.66977L22.3375 2.34023C21.091 1.80499 19.6409 2.27776 18.9495 3.44482L15.9334 8.53547C15.5542 9.17552 14.9276 9.63073 14.2017 9.79361L8.44879 11.0844C7.12499 11.3815 6.22724 12.6148 6.35139 13.9658L6.89559 19.888C6.96309 20.6225 6.72712 21.3527 6.24252 21.9087L2.32816 26.4006C1.4411 27.4186 1.44244 28.9353 2.3313 29.9517L6.23912 34.42C6.72579 34.9765 6.96298 35.7082 6.89533 36.4444L6.35081 42.3701C6.22691 43.7184 7.1209 44.9499 8.44127 45.2498L14.2065 46.5594C14.9296 46.7236 15.5533 47.178 15.9312 47.816L18.9464 52.9051C19.6392 54.0744 21.0931 54.5464 22.3406 54.0071L27.7599 51.664C28.4415 51.3693 29.2143 51.3684 29.8966 51.6614L35.3179 53.9893C36.5644 54.5246 38.0144 54.0518 38.7059 52.8847L41.7241 47.7905C42.1021 47.1525 42.7258 46.6981 43.4489 46.5339L49.2135 45.2245C50.5341 44.9245 51.4282 43.6926 51.3039 42.344L50.7604 36.4448C50.6925 35.7084 50.9297 34.9764 51.4165 34.4197L55.3213 29.9548Z" fill="#1F950C"/>
<circle cx="28.8261" cy="28.1775" r="18.6736" stroke="white" stroke-width="0.449967"/>
<circle cx="28.8279" cy="28.1778" r="9.6743" stroke="white" stroke-width="0.449967"/>
<g clip-path="url(#clip1_132_539)">
<path fill-rule="evenodd" clip-rule="evenodd" d="M30.6352 32.2641H29.8491V30.729H30.6132C30.8262 30.729 31.0204 30.8274 31.13 30.9422C31.1957 31.0111 31.2396 31.0701 31.2803 31.162C31.4431 31.5458 31.2803 31.9918 30.9264 32.1788C30.8575 32.2149 30.7291 32.2641 30.6352 32.2641ZM30.5162 29.7089H29.8491V28.4592H30.4723C30.6446 28.4592 30.8419 28.5379 30.9483 28.6134C31.3429 28.8955 31.2208 29.4432 30.7667 29.6368C30.7072 29.663 30.5945 29.7056 30.5162 29.7056V29.7089ZM23.8895 27.4883C23.8895 28.141 24.2778 28.3247 24.8071 28.3247H25.8124V30.4437C26.1694 30.4437 27.7008 30.4666 27.9513 30.4174C28.0327 30.401 28.1361 30.3518 28.183 30.3059C28.3052 30.1845 28.3616 30.0271 28.3616 29.7811V29.0234H27.4095V29.4465H26.8834V28.4854H28.8971V32.2543H25.1672C25.1328 32.2543 24.8822 31.9722 24.8415 31.9295C24.7257 31.8082 24.5691 31.631 24.4438 31.5228C24.4125 31.4966 24.3906 31.4703 24.3593 31.4375C24.306 31.3818 23.9239 30.9619 23.8738 30.9488C23.8738 31.0078 23.8864 31.0111 23.8864 31.0734V33.1235H30.798C31.1143 33.1235 31.4275 33.0284 31.6655 32.8644C31.7093 32.8348 31.7344 32.8151 31.7751 32.7823C31.9755 32.6118 32.0663 32.5035 32.2073 32.2477C32.3889 31.9131 32.3952 31.7688 32.3952 31.4047C32.3952 31.1095 32.2636 30.7717 32.0945 30.5421C31.9724 30.3781 31.797 30.2501 31.6185 30.1583C31.5841 30.1419 31.5559 30.1288 31.5214 30.1124C31.4745 30.0927 31.4494 30.1025 31.4463 30.0435C31.5183 30.0271 31.6467 29.9254 31.7031 29.8795C31.9379 29.6892 32.0914 29.3153 32.0914 28.9676C32.0914 28.6199 32.0757 28.4756 31.916 28.187C31.7281 27.8458 31.4337 27.5998 31.0736 27.4653C30.9108 27.403 30.6571 27.3276 30.4379 27.3276H26.8834V26.4813H27.4095V26.8946H28.3616V26.0811C28.3616 25.8811 28.205 25.7171 28.086 25.6351C27.9482 25.5432 27.7415 25.4842 27.5191 25.4842H25.781V27.3177H24.995V25.084C24.995 25.0381 25.5148 24.5362 25.6151 24.428C25.6464 24.3952 25.8061 24.2148 25.8374 24.2148H31.9724C32.0068 24.2148 32.3701 24.615 32.4014 24.6478C32.4328 24.6806 32.8148 25.061 32.8148 25.0971V26.3567C32.8148 26.4026 32.677 26.5076 32.6488 26.5371L31.8847 27.3407H33.3065C33.4913 27.3407 33.4412 27.3079 33.6416 27.098C33.6698 27.0685 33.7763 26.9766 33.7763 26.9405V23.2603C33.7763 23.234 33.77 23.2275 33.7449 23.2275H23.8895V27.4883Z" fill="white"/>
<path fill-rule="evenodd" clip-rule="evenodd" d="M32.812 32.324C32.812 32.3797 32.5928 32.5634 32.5302 32.6257C32.4362 32.7241 32.0886 33.0751 32.0573 33.1243H33.6889C33.7296 33.1243 33.7641 33.1341 33.7641 33.0915V28.8766H32.812V32.324Z" fill="white"/>
<path fill-rule="evenodd" clip-rule="evenodd" d="M33.2752 27.6919C33.5383 27.6919 33.7544 27.9149 33.7544 28.1937C33.7544 28.4726 33.5414 28.6956 33.2752 28.6956C33.009 28.6956 32.7961 28.4726 32.7961 28.1937C32.7961 27.9149 33.009 27.6919 33.2752 27.6919Z" fill="white"/>
</g>
<path d="M38.3587 14.5565L35.1607 18.7024L34.4096 18.1231L37.6077 13.9772L38.3587 14.5565Z" fill="white"/>
<path d="M29.8423 16.3791L31.2537 11.3369L33.1839 11.8772C33.5483 11.9792 33.835 12.1214 34.0441 12.3038C34.2553 12.4851 34.3933 12.691 34.458 12.9215C34.5243 13.1524 34.5226 13.3926 34.4527 13.6421C34.3953 13.8473 34.3067 14.0119 34.1871 14.1359C34.0679 14.2583 33.9291 14.346 33.7709 14.3991C33.6127 14.4521 33.446 14.4754 33.2709 14.4688L33.2571 14.5181C33.4332 14.578 33.5893 14.681 33.7255 14.8271C33.8637 14.9719 33.96 15.1494 34.0145 15.3593C34.069 15.5693 34.0605 15.8023 33.9888 16.0583C33.9157 16.3193 33.7868 16.5363 33.6021 16.7094C33.4178 16.8808 33.1817 16.9908 32.8938 17.0394C32.6058 17.088 32.269 17.0583 31.8833 16.9504L29.8423 16.3791ZM30.9693 15.8715L31.9517 16.1465C32.2832 16.2393 32.5397 16.243 32.7212 16.1575C32.9047 16.0708 33.0245 15.9273 33.0806 15.7271C33.1224 15.5777 33.1231 15.4328 33.0828 15.2923C33.043 15.1502 32.9646 15.0256 32.8476 14.9185C32.7312 14.8098 32.5785 14.729 32.3898 14.6762L31.3828 14.3943L30.9693 15.8715ZM31.5668 13.737L32.4704 13.9899C32.628 14.034 32.778 14.045 32.9204 14.0229C33.0634 13.9992 33.1859 13.9441 33.2879 13.8577C33.3921 13.77 33.4649 13.6523 33.5062 13.5046C33.5609 13.3093 33.537 13.1291 33.4345 12.9642C33.3337 12.7997 33.1486 12.6797 32.8795 12.6044L31.9562 12.3459L31.5668 13.737Z" fill="white"/>
<path d="M25.3196 17.1256L24.183 12.0144L27.5072 11.2752L27.6798 12.0513L25.2815 12.5847L25.5901 13.9723L27.8162 13.4772L27.9888 14.2533L25.7627 14.7484L26.0729 16.1435L28.4912 15.6057L28.6638 16.3818L25.3196 17.1256Z" fill="white"/>
<path d="M21.8052 14.7751C21.6483 14.6145 21.4617 14.5401 21.2455 14.5521C21.0306 14.5629 20.8127 14.6554 20.5917 14.8294C20.4364 14.9517 20.3216 15.0801 20.2474 15.2145C20.1732 15.3489 20.1383 15.4795 20.1426 15.6062C20.147 15.733 20.1891 15.8484 20.269 15.9526C20.3365 16.0383 20.4144 16.0973 20.5028 16.1296C20.5926 16.1609 20.689 16.1718 20.7921 16.1622C20.8941 16.1512 20.9982 16.1278 21.1044 16.0919C21.2107 16.0559 21.3139 16.0148 21.414 15.9684L21.8756 15.7611C22.0594 15.6749 22.2472 15.6062 22.4389 15.5549C22.6321 15.5026 22.8224 15.4785 23.0101 15.4826C23.199 15.4856 23.3792 15.527 23.5506 15.6069C23.7219 15.6867 23.8777 15.8156 24.018 15.9937C24.2078 16.2347 24.3134 16.4955 24.3347 16.7759C24.355 17.0551 24.2892 17.3379 24.1374 17.6245C23.9859 17.9087 23.7455 18.1806 23.4161 18.44C23.0961 18.6921 22.7793 18.8614 22.4656 18.9479C22.1532 19.0334 21.8559 19.0333 21.5735 18.9475C21.2926 18.8608 21.0392 18.685 20.8133 18.4203L21.5464 17.8429C21.6699 17.9777 21.808 18.0621 21.9605 18.096C22.1131 18.1299 22.27 18.1212 22.4315 18.07C22.5943 18.0177 22.7533 17.9304 22.9086 17.8081C23.0706 17.6805 23.1936 17.5446 23.2775 17.4004C23.3616 17.2538 23.4042 17.1096 23.4053 16.9678C23.4053 16.8245 23.3596 16.6935 23.2681 16.5746C23.1824 16.4685 23.0814 16.405 22.9649 16.3838C22.8474 16.3614 22.7147 16.3705 22.5666 16.4112C22.4189 16.4495 22.2566 16.5079 22.0798 16.5864L21.5169 16.8345C21.1096 17.0143 20.7379 17.0933 20.4019 17.0716C20.0661 17.0475 19.7822 16.8881 19.5502 16.5936C19.3593 16.3512 19.2578 16.0873 19.2455 15.8019C19.2347 15.5154 19.3035 15.2323 19.452 14.9525C19.5995 14.6715 19.8172 14.4176 20.105 14.1909C20.3969 13.9609 20.6927 13.8104 20.9925 13.7392C21.2925 13.6656 21.5761 13.6689 21.8433 13.7492C22.1094 13.8282 22.3357 13.9819 22.5222 14.2104L21.8052 14.7751Z" fill="white"/>
<path d="M42.6521 35.6565C42.5225 35.8481 42.3572 35.9864 42.1563 36.0712C41.9554 36.156 41.7316 36.1789 41.4847 36.14C41.2378 36.1011 40.9805 35.991 40.7126 35.8098C40.4416 35.6265 40.2429 35.4273 40.1168 35.2123C39.9902 34.9955 39.9309 34.7786 39.9387 34.5617C39.9455 34.3441 40.0123 34.1415 40.1391 33.9541C40.2358 33.8112 40.3397 33.7101 40.4507 33.651C40.5606 33.5911 40.6678 33.5571 40.7721 33.5489C40.8753 33.54 40.9666 33.5408 41.0459 33.5513L41.0621 33.5275L39.8455 32.7045L40.2355 32.128L43.4881 34.3284L43.1056 34.8938L42.7213 34.6337L42.6977 34.6687C42.7369 34.7384 42.7709 34.8239 42.7996 34.9252C42.8273 35.0257 42.8333 35.1378 42.8176 35.2614C42.8018 35.3851 42.7467 35.5167 42.6521 35.6565ZM42.289 35.177C42.3713 35.0552 42.4087 34.9293 42.4011 34.7991C42.3924 34.6682 42.3438 34.5404 42.2553 34.4157C42.1668 34.291 42.0437 34.1753 41.8859 34.0686C41.7281 33.9619 41.576 33.8914 41.4294 33.857C41.2836 33.8217 41.1494 33.825 41.0268 33.8671C40.9049 33.9081 40.802 33.9905 40.7182 34.1144C40.6316 34.2425 40.5926 34.372 40.6013 34.5029C40.61 34.6338 40.6584 34.7607 40.7465 34.8836C40.8347 35.0065 40.9545 35.1192 41.1059 35.2216C41.2584 35.3248 41.4091 35.3951 41.5581 35.4326C41.7068 35.4684 41.8445 35.4667 41.9714 35.4275C42.0979 35.3865 42.2037 35.303 42.289 35.177Z" fill="white"/>
<path d="M40.5367 38.2331C40.3205 38.4342 40.0919 38.5629 39.8511 38.6192C39.6103 38.6738 39.3707 38.6574 39.1324 38.57C38.8932 38.4817 38.6688 38.3247 38.459 38.0991C38.2527 37.8772 38.1138 37.6433 38.0422 37.3974C37.9707 37.1497 37.9678 36.9081 38.0333 36.6726C38.098 36.4361 38.2334 36.2222 38.4393 36.0307C38.5723 35.9071 38.7177 35.812 38.8757 35.7454C39.0338 35.677 39.1996 35.645 39.3731 35.6495C39.5475 35.6531 39.7249 35.6994 39.9053 35.7883C40.0848 35.8762 40.2625 36.0148 40.4383 36.2039L40.5832 36.3597L38.8152 38.0035L38.4966 37.6609L39.7774 36.4701C39.6859 36.3736 39.5843 36.3066 39.4726 36.2691C39.3601 36.2306 39.2463 36.2238 39.1315 36.2485C39.0175 36.2724 38.9119 36.3296 38.8145 36.4202C38.7106 36.5168 38.6428 36.6269 38.6112 36.7506C38.5787 36.8733 38.5783 36.9959 38.61 37.1182C38.6418 37.2388 38.7021 37.3477 38.7908 37.445L39.0689 37.7441C39.1855 37.8696 39.3086 37.9559 39.438 38.0031C39.5665 38.0494 39.6942 38.0581 39.821 38.0293C39.9469 37.9995 40.0651 37.9333 40.1756 37.8305C40.2495 37.7618 40.3069 37.6893 40.3477 37.6129C40.3876 37.5357 40.4104 37.456 40.4161 37.3739C40.4218 37.2918 40.4076 37.2099 40.3734 37.1282L40.8977 36.7402C40.9844 36.8935 41.0291 37.0562 41.0319 37.2281C41.0348 37.3983 40.995 37.5696 40.9128 37.7421C40.8297 37.9136 40.7043 38.0773 40.5367 38.2331Z" fill="white"/>
<path d="M37.2983 40.6415L35.7282 38.1497L36.2976 37.7909L36.5593 38.2062L36.5853 38.1898C36.5401 38.0174 36.5481 37.8574 36.6093 37.71C36.671 37.5609 36.7732 37.4414 36.9159 37.3514C36.9484 37.331 36.9856 37.3097 37.0277 37.2878C37.0702 37.264 37.1066 37.2464 37.1371 37.2347L37.4775 37.775C37.4471 37.782 37.4029 37.7993 37.3447 37.8269C37.287 37.8527 37.2332 37.8813 37.1834 37.9126C37.0764 37.9801 36.9948 38.064 36.9386 38.1643C36.8829 38.2629 36.8563 38.3681 36.8587 38.4799C36.8611 38.5917 36.8958 38.7005 36.9625 38.8065L37.8856 40.2714L37.2983 40.6415Z" fill="white"/>
<path d="M35.0554 42.0545C34.7806 42.1628 34.5209 42.1992 34.2761 42.1638C34.032 42.1268 33.815 42.0241 33.6249 41.8558C33.4344 41.6863 33.2827 41.4583 33.1697 41.1717C33.0586 40.8898 33.0146 40.6213 33.0377 40.3663C33.0615 40.1096 33.1469 39.8835 33.2939 39.6882C33.4404 39.4916 33.6444 39.3418 33.9061 39.2386C34.0749 39.1721 34.2451 39.1366 34.4165 39.1322C34.5886 39.1262 34.7546 39.1569 34.9145 39.2244C35.0756 39.2915 35.2239 39.3993 35.3594 39.5478C35.4945 39.6952 35.6094 39.889 35.7041 40.1292L35.7821 40.3272L33.5363 41.2126L33.3647 40.7774L34.9915 40.136C34.9416 40.0128 34.8715 39.9133 34.7812 39.8376C34.6904 39.7607 34.587 39.7129 34.471 39.694C34.3562 39.6747 34.237 39.6894 34.1133 39.7382C33.9813 39.7902 33.878 39.868 33.8034 39.9716C33.7284 40.0741 33.6833 40.188 33.6682 40.3135C33.6538 40.4374 33.6702 40.5608 33.7173 40.6837L33.8671 41.0637C33.9299 41.223 34.013 41.3483 34.1162 41.4395C34.2191 41.5295 34.3347 41.5842 34.4633 41.6036C34.5914 41.6218 34.7256 41.6032 34.8659 41.5479C34.9599 41.5109 35.0398 41.4643 35.1056 41.4081C35.1709 41.3507 35.2212 41.2849 35.2565 41.2105C35.2917 41.1361 35.3084 41.0547 35.3064 40.9661L35.9361 40.7962C35.9609 40.9706 35.9432 41.1383 35.883 41.2994C35.8236 41.4589 35.7242 41.6039 35.5846 41.7345C35.4447 41.8639 35.2682 41.9705 35.0554 42.0545Z" fill="white"/>
<path d="M31.9202 39.8717L32.028 40.3977L30.3693 40.7375L30.2616 40.2115L31.9202 39.8717ZM30.5294 39.4364L31.2094 39.297L31.7644 42.0058C31.7831 42.0972 31.8113 42.1645 31.8488 42.2077C31.8874 42.2494 31.9316 42.2742 31.9815 42.2823C32.0315 42.2903 32.0846 42.2886 32.141 42.277C32.1835 42.2683 32.2217 42.2572 32.2555 42.2438C32.2905 42.2301 32.3169 42.2188 32.3347 42.2099L32.5582 42.7181C32.5244 42.738 32.4753 42.7624 32.4107 42.7913C32.3475 42.82 32.2678 42.8454 32.1719 42.8677C32.0026 42.9076 31.844 42.9133 31.6959 42.8849C31.5476 42.8553 31.4211 42.7886 31.3163 42.6848C31.2128 42.5807 31.1432 42.4384 31.1075 42.2578L30.5294 39.4364Z" fill="white"/>
<path d="M29.9657 41.5075L29.3363 41.6029C29.3158 41.5398 29.282 41.4811 29.2349 41.4268C29.1892 41.3724 29.1285 41.3295 29.053 41.2981C28.9775 41.2667 28.8861 41.2533 28.7788 41.2578C28.6345 41.2638 28.5144 41.3002 28.4187 41.3669C28.3243 41.4335 28.2798 41.5166 28.2852 41.6162C28.2875 41.7018 28.3217 41.7701 28.3878 41.8211C28.4552 41.872 28.5643 41.9116 28.7152 41.9398L29.2216 42.0261C29.5026 42.0745 29.7135 42.161 29.8543 42.2856C29.9964 42.4101 30.0725 42.5777 30.0826 42.7884C30.0891 42.9737 30.0416 43.1394 29.9403 43.2857C29.8401 43.4306 29.6972 43.5466 29.5115 43.6337C29.3258 43.7208 29.1103 43.7695 28.8651 43.7798C28.5049 43.7948 28.2119 43.7316 27.9859 43.5901C27.7598 43.4473 27.6201 43.2414 27.5666 42.9724L28.2402 42.879C28.2764 43.0105 28.3457 43.108 28.4482 43.1716C28.5506 43.2351 28.6817 43.2635 28.8413 43.2568C29.0061 43.2499 29.1368 43.2106 29.2336 43.1387C29.3317 43.0668 29.3786 42.981 29.3745 42.8814C29.371 42.7971 29.3355 42.7289 29.268 42.6767C29.2019 42.6244 29.1005 42.5864 28.9639 42.5627L28.4575 42.4784C28.1728 42.4314 27.9598 42.3412 27.8186 42.2076C27.6774 42.0728 27.6029 41.8981 27.5952 41.6834C27.5863 41.5021 27.6289 41.343 27.723 41.206C27.8183 41.0677 27.9538 40.9584 28.1296 40.8781C28.3066 40.7965 28.5125 40.7507 28.7476 40.7409C29.0924 40.7265 29.3669 40.7886 29.571 40.9271C29.7764 41.0657 29.9079 41.2591 29.9657 41.5075Z" fill="white"/>
<path d="M25.4343 43.5932L25.7823 40.6686L26.4716 40.7507L26.1235 43.6753L25.4343 43.5932ZM26.1782 40.2948C26.0691 40.2818 25.9794 40.2344 25.9094 40.1527C25.8394 40.0697 25.8106 39.9768 25.8228 39.874C25.8352 39.7699 25.885 39.6864 25.9723 39.6234C26.0598 39.5591 26.1581 39.5335 26.2673 39.5465C26.3777 39.5596 26.4673 39.6076 26.5359 39.6905C26.606 39.7722 26.6349 39.8651 26.6225 39.9692C26.6103 40.072 26.5604 40.1555 26.4729 40.2198C26.3869 40.2829 26.2887 40.3079 26.1782 40.2948Z" fill="white"/>
<path d="M22.3319 43.7513C22.0942 43.6764 21.9002 43.5797 21.7499 43.4612C21.5992 43.344 21.489 43.2154 21.4192 43.0755C21.3494 42.9355 21.3149 42.794 21.3158 42.6508L21.9575 42.6943C21.9671 42.7577 21.989 42.8242 22.0232 42.894C22.0572 42.965 22.1118 43.0318 22.1872 43.0945C22.2635 43.1587 22.368 43.2118 22.5009 43.2537C22.6887 43.3129 22.8585 43.3162 23.0105 43.2636C23.1621 43.2122 23.2705 43.0829 23.3359 42.8757L23.5037 42.3435L23.4708 42.3331C23.4151 42.3906 23.343 42.445 23.2545 42.4961C23.1672 42.5477 23.0622 42.5809 22.9396 42.5959C22.8181 42.6112 22.6769 42.5935 22.516 42.5427C22.3002 42.4747 22.1205 42.3624 21.9769 42.2058C21.8348 42.0485 21.7439 41.8522 21.7041 41.6172C21.6659 41.3813 21.695 41.1104 21.7915 40.8044C21.8888 40.4959 22.0221 40.2518 22.1914 40.0719C22.3623 39.8913 22.5528 39.7737 22.7629 39.7194C22.9735 39.6638 23.1866 39.67 23.4024 39.7381C23.567 39.79 23.6935 39.8607 23.7819 39.9502C23.8719 40.0389 23.9363 40.1323 23.975 40.2303C24.0142 40.3271 24.0395 40.4148 24.0509 40.4934L24.0875 40.505L24.2339 40.0405L24.8868 40.2463L23.9866 43.101C23.9109 43.3411 23.7909 43.5218 23.6267 43.6429C23.4625 43.7641 23.2688 43.8323 23.0455 43.8477C22.8221 43.863 22.5843 43.8309 22.3319 43.7513ZM22.8645 42.0816C23.0047 42.1258 23.1349 42.1294 23.2552 42.0922C23.3755 42.0551 23.4814 41.9806 23.573 41.8687C23.6646 41.7569 23.7386 41.6113 23.7951 41.4321C23.8508 41.2554 23.8741 41.0925 23.8648 40.9434C23.8567 40.7948 23.8148 40.6683 23.7391 40.564C23.665 40.4589 23.5567 40.3838 23.414 40.3389C23.2665 40.2923 23.1313 40.2919 23.0083 40.3376C22.8853 40.3833 22.7777 40.4653 22.6854 40.5836C22.5936 40.7007 22.5209 40.844 22.4675 41.0135C22.4133 41.1854 22.3908 41.3438 22.4 41.4888C22.4108 41.633 22.4543 41.7566 22.5304 41.8597C22.608 41.9619 22.7194 42.0359 22.8645 42.0816Z" fill="white"/>
<path d="M18.9653 40.8881C18.7109 40.7382 18.5223 40.5558 18.3996 40.3411C18.2786 40.1259 18.226 39.8916 18.2418 39.6382C18.2582 39.3838 18.3446 39.1239 18.501 38.8584C18.6548 38.5974 18.8393 38.3976 19.0546 38.2588C19.2716 38.1196 19.5024 38.0479 19.7468 38.0435C19.9918 38.0381 20.2355 38.1067 20.4778 38.2495C20.6342 38.3416 20.7668 38.4539 20.8758 38.5864C20.9864 38.7183 21.0643 38.8681 21.1095 39.0357C21.1558 39.2039 21.1621 39.3872 21.1284 39.5854C21.0953 39.7825 21.0132 39.9923 20.8821 40.2148L20.7741 40.3982L18.6942 39.1726L18.9317 38.7695L20.4383 39.6573C20.5047 39.5421 20.54 39.4256 20.5441 39.3079C20.5488 39.189 20.523 39.0781 20.4665 38.975C20.4111 38.8727 20.3261 38.7877 20.2116 38.7202C20.0893 38.6482 19.9644 38.6147 19.8368 38.6196C19.7099 38.6235 19.5924 38.6581 19.4841 38.7234C19.3777 38.7882 19.2905 38.8771 19.2225 38.9898L19.0152 39.3417C18.9282 39.4893 18.8806 39.6319 18.8722 39.7694C18.8645 39.9058 18.8926 40.0307 18.9564 40.1439C19.0209 40.2561 19.1181 40.3505 19.2481 40.4271C19.3351 40.4783 19.421 40.5126 19.5057 40.5299C19.5911 40.5461 19.674 40.5453 19.7543 40.5273C19.8346 40.5093 19.9091 40.4724 19.9777 40.4163L20.4991 40.8081C20.3769 40.935 20.2338 41.0242 20.0698 41.0759C19.9075 41.1272 19.732 41.138 19.5432 41.1084C19.3551 41.0777 19.1624 41.0042 18.9653 40.8881Z" fill="white"/>
<path d="M15.1047 36.9134L17.9217 34.1774L18.9477 35.2338C19.1579 35.4502 19.2966 35.6683 19.3639 35.888C19.4321 36.1087 19.4349 36.3225 19.3722 36.5295C19.3113 36.7366 19.191 36.9274 19.0113 37.1019C18.8306 37.2774 18.6364 37.3912 18.4286 37.4433C18.2227 37.4954 18.0113 37.4824 17.7946 37.4042C17.5788 37.3251 17.3658 37.1774 17.1556 36.961L16.4248 36.2086L16.8485 35.7971L17.5125 36.4807C17.6354 36.6073 17.7534 36.694 17.8667 36.7408C17.9808 36.7868 18.0905 36.7961 18.1958 36.7687C18.3028 36.7413 18.4063 36.6791 18.5063 36.582C18.6062 36.4849 18.6724 36.3824 18.7047 36.2744C18.7379 36.1655 18.7337 36.0529 18.692 35.9365C18.6512 35.8193 18.5689 35.697 18.4451 35.5695L17.9909 35.1019L15.6003 37.4237L15.1047 36.9134ZM17.7945 37.1289L17.1954 39.0661L16.6423 38.4966L17.2535 36.5719L17.7945 37.1289Z" fill="white"/>
<g clip-path="url(#clip2_132_539)">
<path d="M15.8478 22.1833C15.7272 21.9388 15.3784 21.9388 15.2578 22.1833L14.6831 23.3478L13.3979 23.5345C13.128 23.5735 13.0201 23.9055 13.2155 24.0959L14.1454 25.0023L13.926 26.2819C13.8797 26.551 14.162 26.7559 14.4032 26.629L15.5527 26.0245L16.7021 26.629C16.9434 26.7557 17.2257 26.551 17.1796 26.2821L16.9602 25.0023L17.8901 24.0956C18.0851 23.9055 17.9776 23.5738 17.7075 23.5345L16.4228 23.3478L15.8476 22.1833H15.8478ZM12.9116 22.3488C12.8814 22.3867 12.8674 22.435 12.8728 22.4832C12.8782 22.5314 12.9025 22.5754 12.9404 22.6057L13.5497 23.0931C13.5684 23.1087 13.59 23.1203 13.6132 23.1274C13.6364 23.1345 13.6609 23.1369 13.685 23.1344C13.7092 23.132 13.7326 23.1247 13.754 23.1131C13.7753 23.1015 13.7941 23.0858 13.8093 23.0668C13.8245 23.0478 13.8357 23.026 13.8424 23.0026C13.849 22.9793 13.851 22.9548 13.848 22.9307C13.8451 22.9066 13.8375 22.8833 13.8254 22.8622C13.8134 22.8411 13.7973 22.8225 13.7781 22.8077L13.1687 22.3203C13.15 22.3052 13.1285 22.2941 13.1054 22.2873C13.0823 22.2806 13.0581 22.2786 13.0343 22.2812C13.0104 22.2839 12.9873 22.2912 12.9662 22.3028C12.9452 22.3144 12.9266 22.33 12.9116 22.3488ZM18.1938 25.8675C18.224 25.8297 18.2381 25.7814 18.2327 25.7332C18.2274 25.685 18.2031 25.6409 18.1653 25.6106L17.5559 25.1232C17.5181 25.0929 17.4697 25.0788 17.4215 25.0842C17.3733 25.0895 17.3292 25.1137 17.2989 25.1516C17.2686 25.1894 17.2546 25.2378 17.2599 25.286C17.2652 25.3342 17.2895 25.3783 17.3273 25.4086L17.9366 25.8961C17.9554 25.9111 17.9769 25.9223 18 25.929C18.0231 25.9357 18.0472 25.9378 18.0711 25.9351C18.095 25.9325 18.1181 25.9251 18.1392 25.9135C18.1602 25.9019 18.1788 25.8863 18.1938 25.8675ZM12.9404 25.6106C12.9211 25.6255 12.905 25.644 12.893 25.6651C12.881 25.6862 12.8733 25.7095 12.8704 25.7336C12.8675 25.7577 12.8694 25.7822 12.8761 25.8056C12.8827 25.8289 12.894 25.8507 12.9091 25.8697C12.9243 25.8887 12.9431 25.9044 12.9645 25.916C12.9858 25.9277 13.0092 25.9349 13.0334 25.9374C13.0576 25.9398 13.082 25.9374 13.1052 25.9303C13.1285 25.9232 13.1501 25.9116 13.1687 25.8961L13.7781 25.4086C13.8149 25.378 13.8382 25.3341 13.8431 25.2865C13.8479 25.2389 13.8339 25.1912 13.8039 25.1538C13.774 25.1164 13.7306 25.0923 13.6831 25.0865C13.6355 25.0808 13.5876 25.094 13.5497 25.1232L12.9404 25.6106ZM18.1938 22.3485C18.224 22.3864 18.2381 22.4347 18.2327 22.4829C18.2274 22.5311 18.2031 22.5751 18.1653 22.6054L17.5559 23.0929C17.5372 23.1079 17.5157 23.1191 17.4926 23.1258C17.4696 23.1325 17.4454 23.1346 17.4215 23.1319C17.3977 23.1293 17.3746 23.122 17.3535 23.1104C17.3325 23.0988 17.3139 23.0832 17.2989 23.0645C17.2839 23.0458 17.2727 23.0242 17.266 23.0012C17.2593 22.9781 17.2572 22.954 17.2599 22.9301C17.2625 22.9062 17.2698 22.8831 17.2814 22.8621C17.293 22.8411 17.3086 22.8225 17.3273 22.8075L17.9366 22.32C17.9554 22.305 17.9769 22.2938 18 22.2871C18.0231 22.2804 18.0472 22.2783 18.0711 22.281C18.095 22.2836 18.1181 22.2909 18.1392 22.3025C18.1602 22.3141 18.1788 22.3298 18.1938 22.3485Z" fill="white"/>
</g>
<g clip-path="url(#clip3_132_539)">
<path d="M42.3961 22.1833C42.2755 21.9388 41.9267 21.9388 41.8061 22.1833L41.2313 23.3478L39.9461 23.5345C39.6763 23.5735 39.5683 23.9055 39.7638 24.0959L40.6937 25.0023L40.4743 26.2819C40.428 26.551 40.7102 26.7559 40.9515 26.629L42.101 26.0245L43.2504 26.629C43.4917 26.7557 43.7739 26.551 43.7279 26.2821L43.5085 25.0023L44.4384 24.0956C44.6333 23.9055 44.5259 23.5738 44.2558 23.5345L42.9711 23.3478L42.3959 22.1833H42.3961ZM39.4599 22.3488C39.4296 22.3867 39.4157 22.435 39.4211 22.4832C39.4265 22.5314 39.4508 22.5754 39.4886 22.6057L40.098 23.0931C40.1167 23.1087 40.1382 23.1203 40.1615 23.1274C40.1847 23.1345 40.2091 23.1369 40.2333 23.1344C40.2575 23.132 40.2809 23.1247 40.3022 23.1131C40.3236 23.1015 40.3424 23.0858 40.3576 23.0668C40.3727 23.0478 40.384 23.026 40.3906 23.0026C40.3973 22.9793 40.3992 22.9548 40.3963 22.9307C40.3934 22.9066 40.3857 22.8833 40.3737 22.8622C40.3617 22.8411 40.3456 22.8225 40.3264 22.8077L39.717 22.3203C39.6983 22.3052 39.6767 22.2941 39.6537 22.2873C39.6306 22.2806 39.6064 22.2786 39.5825 22.2812C39.5587 22.2839 39.5355 22.2912 39.5145 22.3028C39.4934 22.3144 39.4749 22.33 39.4599 22.3488ZM44.742 25.8675C44.7723 25.8297 44.7863 25.7814 44.781 25.7332C44.7756 25.685 44.7514 25.6409 44.7135 25.6106L44.1042 25.1232C44.0664 25.0929 44.018 25.0788 43.9698 25.0842C43.9216 25.0895 43.8775 25.1137 43.8472 25.1516C43.8169 25.1894 43.8028 25.2378 43.8082 25.286C43.8135 25.3342 43.8377 25.3783 43.8756 25.4086L44.4849 25.8961C44.5037 25.9111 44.5252 25.9223 44.5483 25.929C44.5713 25.9357 44.5955 25.9378 44.6194 25.9351C44.6433 25.9325 44.6664 25.9251 44.6874 25.9135C44.7085 25.9019 44.727 25.8863 44.742 25.8675ZM39.4886 25.6106C39.4694 25.6255 39.4533 25.644 39.4413 25.6651C39.4293 25.6862 39.4216 25.7095 39.4187 25.7336C39.4158 25.7577 39.4177 25.7822 39.4243 25.8056C39.431 25.8289 39.4422 25.8507 39.4574 25.8697C39.4726 25.8887 39.4914 25.9044 39.5127 25.916C39.5341 25.9277 39.5575 25.9349 39.5817 25.9374C39.6059 25.9398 39.6303 25.9374 39.6535 25.9303C39.6768 25.9232 39.6983 25.9116 39.717 25.8961L40.3264 25.4086C40.3632 25.378 40.3865 25.3341 40.3914 25.2865C40.3962 25.2389 40.3821 25.1912 40.3522 25.1538C40.3223 25.1164 40.2789 25.0923 40.2314 25.0865C40.1838 25.0808 40.1359 25.094 40.098 25.1232L39.4886 25.6106ZM44.742 22.3485C44.7723 22.3864 44.7863 22.4347 44.781 22.4829C44.7756 22.5311 44.7514 22.5751 44.7135 22.6054L44.1042 23.0929C44.0855 23.1079 44.0639 23.1191 44.0409 23.1258C44.0178 23.1325 43.9937 23.1346 43.9698 23.1319C43.9459 23.1293 43.9228 23.122 43.9018 23.1104C43.8808 23.0988 43.8622 23.0832 43.8472 23.0645C43.8322 23.0458 43.821 23.0242 43.8143 23.0012C43.8076 22.9781 43.8055 22.954 43.8082 22.9301C43.8108 22.9062 43.8181 22.8831 43.8297 22.8621C43.8412 22.8411 43.8568 22.8225 43.8756 22.8075L44.4849 22.32C44.5037 22.305 44.5252 22.2938 44.5483 22.2871C44.5713 22.2804 44.5955 22.2783 44.6194 22.281C44.6433 22.2836 44.6664 22.2909 44.6874 22.3025C44.7085 22.3141 44.727 22.3298 44.742 22.3485Z" fill="white"/>
</g>
</g>
<defs>
<clipPath id="clip0_132_539">
<rect width="55.7959" height="55.7959" fill="white" transform="translate(0.929199 0.279846)"/>
</clipPath>
<clipPath id="clip1_132_539">
<rect width="9.89928" height="9.89928" fill="white" transform="translate(23.8776 23.2274)"/>
</clipPath>
<clipPath id="clip2_132_539">
<rect width="5.84958" height="5.84958" fill="white" transform="translate(12.6274 21.4275)"/>
</clipPath>
<clipPath id="clip3_132_539">
<rect width="5.84958" height="5.84958" fill="white" transform="translate(39.1768 21.4275)"/>
</clipPath>
</defs>
</svg>
