<svg width="78" height="79" viewBox="0 0 78 79" fill="none" xmlns="http://www.w3.org/2000/svg">
<g clip-path="url(#clip0_3295_15536)">
<path d="M76.0019 42.4286C77.2456 41.0065 77.2456 38.8838 76.0019 37.4617L70.5458 31.2229C69.8655 30.4451 69.5341 29.4223 69.6289 28.3933L70.3884 20.1503C70.5621 18.266 69.3128 16.5446 67.4675 16.1254L59.4156 14.2965C58.4035 14.0666 57.5308 13.4299 57.003 12.5362L52.7837 5.39239C51.8187 3.75863 49.7905 3.09582 48.047 3.84449L40.4709 7.09775C39.5205 7.50585 38.4443 7.50585 37.4939 7.09775L29.9136 3.84268C28.172 3.09479 26.1458 3.75539 25.1796 5.38612L20.9652 12.4993C20.4353 13.3936 19.5599 14.0297 18.5456 14.2573L10.507 16.0609C8.65725 16.476 7.40283 18.1993 7.5763 20.0871L8.33671 28.3621C8.43102 29.3885 8.1013 30.4087 7.42418 31.1858L1.95464 37.4623C0.715152 38.8846 0.717033 41.004 1.95904 42.4241L7.41942 48.6678C8.09945 49.4453 8.43087 50.4678 8.33635 51.4964L7.57549 59.7763C7.40237 61.6603 8.65154 63.3812 10.4965 63.8003L18.5522 65.6301C19.5626 65.8596 20.4341 66.4945 20.9622 67.3859L25.1753 74.497C26.1433 76.1308 28.1749 76.7904 29.918 76.0367L37.4904 72.7628C38.4428 72.351 39.5226 72.3497 40.476 72.7591L48.0512 76.0119C49.7929 76.7598 51.8191 76.0992 52.7852 74.4685L57.0026 67.3503C57.5308 66.4589 58.4022 65.824 59.4126 65.5945L67.4675 63.7648C69.3128 63.3456 70.5621 61.6243 70.3884 59.74L69.6289 51.4969C69.5341 50.468 69.8655 49.4452 70.5458 48.6674L76.0019 42.4286Z" fill="url(#paint0_linear_3295_15536)" fill-opacity="0.44"/>
<circle cx="38.9803" cy="39.9451" r="26.0927" stroke="white" stroke-width="0.628739"/>
<circle cx="38.9827" cy="39.9455" r="13.5179" stroke="white" stroke-width="0.628739"/>
<g clip-path="url(#clip1_3295_15536)">
<path fill-rule="evenodd" clip-rule="evenodd" d="M41.5072 45.6553H40.4088V43.5103H41.4765C41.7741 43.5103 42.0454 43.6478 42.1986 43.8083C42.2905 43.9045 42.3517 43.987 42.4086 44.1153C42.6361 44.6516 42.4086 45.2749 41.9141 45.5361C41.8179 45.5866 41.6384 45.6553 41.5072 45.6553ZM41.3409 42.085H40.4088V40.3387H41.2796C41.5203 40.3387 41.796 40.4487 41.9448 40.5541C42.4961 40.9483 42.3255 41.7137 41.691 41.9841C41.6078 42.0208 41.4503 42.0804 41.3409 42.0804V42.085ZM32.0814 38.9821C32.0814 39.8942 32.6241 40.1508 33.3636 40.1508H34.7683V43.1116C35.2671 43.1116 37.4069 43.1437 37.757 43.0749C37.8708 43.052 38.0152 42.9833 38.0808 42.9191C38.2515 42.7495 38.3303 42.5295 38.3303 42.1858V41.1271H37V41.7183H36.2648V40.3754H39.0785V45.6416H33.8668C33.8187 45.6416 33.4686 45.2474 33.4117 45.1878C33.2498 45.0182 33.031 44.7707 32.856 44.6195C32.8122 44.5828 32.7816 44.5462 32.7378 44.5003C32.6634 44.4224 32.1296 43.8358 32.0596 43.8174C32.0596 43.8999 32.0771 43.9045 32.0771 43.9916V46.8561H41.7347C42.1767 46.8561 42.6143 46.7232 42.9468 46.494C43.0081 46.4528 43.0431 46.4253 43.1 46.3795C43.3801 46.1411 43.507 45.9899 43.7039 45.6324C43.9577 45.1649 43.9664 44.9632 43.9664 44.4545C43.9664 44.042 43.7826 43.5699 43.5463 43.2491C43.3757 43.0199 43.1306 42.8412 42.8812 42.7129C42.8331 42.6899 42.7937 42.6716 42.7455 42.6487C42.6799 42.6212 42.6449 42.6349 42.6405 42.5524C42.7412 42.5295 42.9206 42.3874 42.9993 42.3233C43.3275 42.0575 43.542 41.535 43.542 41.0491C43.542 40.5633 43.5201 40.3616 43.2969 39.9583C43.0344 39.4817 42.623 39.1379 42.1198 38.95C41.8922 38.8629 41.5378 38.7575 41.2315 38.7575H36.2648V37.575H37V38.1525H38.3303V37.0159C38.3303 36.7363 38.1115 36.5071 37.9452 36.3926C37.7526 36.2642 37.4638 36.1817 37.1531 36.1817H34.7245V38.7438H33.6261V35.6226C33.6261 35.5584 34.3525 34.8572 34.4926 34.7059C34.5363 34.6601 34.7595 34.408 34.8033 34.408H43.3757C43.4238 34.408 43.9314 34.9672 43.9752 35.013C44.0189 35.0588 44.5528 35.5905 44.5528 35.6409V37.4009C44.5528 37.465 44.3603 37.6117 44.3209 37.6529L43.2532 38.7758H45.2398C45.498 38.7758 45.428 38.73 45.708 38.4367C45.7474 38.3954 45.8962 38.2671 45.8962 38.2167V33.0743C45.8962 33.0376 45.8875 33.0284 45.8524 33.0284H32.0814V38.9821Z" fill="white"/>
<path fill-rule="evenodd" clip-rule="evenodd" d="M44.5497 45.7389C44.5497 45.8168 44.2434 46.0735 44.1559 46.1605C44.0246 46.298 43.5389 46.7884 43.4951 46.8572H45.775C45.8319 46.8572 45.88 46.8709 45.88 46.8114V40.9219H44.5497V45.7389Z" fill="white"/>
<path fill-rule="evenodd" clip-rule="evenodd" d="M45.1969 39.2666C45.5644 39.2666 45.8664 39.5783 45.8664 39.9678C45.8664 40.3574 45.5688 40.6691 45.1969 40.6691C44.8249 40.6691 44.5273 40.3574 44.5273 39.9678C44.5273 39.5783 44.8249 39.2666 45.1969 39.2666Z" fill="white"/>
</g>
<path d="M52.1662 21.0858L47.6976 26.8788L46.6482 26.0693L51.1168 20.2763L52.1662 21.0858Z" fill="white"/>
<path d="M40.3411 23.6698L42.3133 16.6244L45.0104 17.3794C45.5195 17.5219 45.9202 17.7206 46.2124 17.9755C46.5075 18.2288 46.7003 18.5164 46.7906 18.8385C46.8833 19.1612 46.8809 19.4969 46.7833 19.8455C46.703 20.1322 46.5793 20.3622 46.4121 20.5355C46.2455 20.7065 46.0517 20.829 45.8306 20.9032C45.6095 20.9773 45.3766 21.0098 45.1319 21.0006L45.1126 21.0695C45.3587 21.1532 45.5769 21.2971 45.7671 21.5012C45.9602 21.7036 46.0948 21.9515 46.171 22.2449C46.2472 22.5383 46.2352 22.8638 46.135 23.2216C46.0329 23.5863 45.8528 23.8895 45.5947 24.1314C45.3372 24.3709 45.0073 24.5246 44.605 24.5925C44.2026 24.6605 43.732 24.619 43.193 24.4681L40.3411 23.6698ZM41.916 22.9606L43.2886 23.3449C43.7518 23.4745 44.1103 23.4796 44.3638 23.3602C44.6203 23.2391 44.7877 23.0386 44.866 22.7588C44.9244 22.5501 44.9255 22.3476 44.8691 22.1513C44.8134 21.9527 44.7039 21.7786 44.5405 21.629C44.3777 21.4771 44.1645 21.3642 43.9007 21.2904L42.4937 20.8965L41.916 22.9606ZM42.7508 19.978L44.0134 20.3314C44.2335 20.3931 44.4432 20.4085 44.6422 20.3776C44.8419 20.3445 45.0131 20.2675 45.1557 20.1467C45.3013 20.0242 45.403 19.8598 45.4608 19.6534C45.5372 19.3804 45.5037 19.1287 45.3605 18.8982C45.2196 18.6683 44.9611 18.5007 44.585 18.3955L43.2949 18.0343L42.7508 19.978Z" fill="white"/>
<path d="M34.1282 24.7159L32.54 17.5742L37.1849 16.5412L37.4261 17.6257L34.0749 18.371L34.5061 20.3099L37.6166 19.6181L37.8578 20.7026L34.7473 21.3944L35.1808 23.3437L38.5599 22.5922L38.8011 23.6768L34.1282 24.7159Z" fill="white"/>
<path d="M29.3055 21.3897C29.0862 21.1652 28.8255 21.0613 28.5234 21.078C28.2231 21.0932 27.9186 21.2224 27.6099 21.4656C27.3929 21.6365 27.2325 21.8159 27.1288 22.0037C27.0251 22.1915 26.9763 22.3739 26.9824 22.551C26.9885 22.7281 27.0473 22.8894 27.1589 23.0349C27.2532 23.1547 27.3622 23.2371 27.4857 23.2823C27.6111 23.3261 27.7458 23.3412 27.8898 23.3278C28.0324 23.3125 28.1779 23.2798 28.3263 23.2296C28.4747 23.1794 28.6189 23.1219 28.7589 23.0571L29.4038 22.7674C29.6606 22.647 29.923 22.5509 30.191 22.4793C30.4609 22.4062 30.7269 22.3725 30.9891 22.3782C31.2531 22.3825 31.5049 22.4404 31.7443 22.5519C31.9837 22.6634 32.2014 22.8436 32.3974 23.0925C32.6627 23.4292 32.8102 23.7936 32.84 24.1854C32.8683 24.5755 32.7764 24.9707 32.5643 25.3712C32.3526 25.7683 32.0167 26.1481 31.5564 26.5107C31.1093 26.8629 30.6665 27.0994 30.2282 27.2203C29.7917 27.3398 29.3763 27.3396 28.9818 27.2198C28.5892 27.0986 28.2351 26.853 27.9195 26.4831L28.9438 25.6763C29.1165 25.8647 29.3094 25.9826 29.5225 26.0299C29.7357 26.0773 29.955 26.0652 30.1806 25.9936C30.408 25.9206 30.6303 25.7986 30.8473 25.6277C31.0737 25.4494 31.2455 25.2595 31.3627 25.058C31.4803 24.8532 31.5398 24.6517 31.5413 24.4535C31.5413 24.2533 31.4774 24.0702 31.3496 23.9041C31.2299 23.7559 31.0886 23.6671 30.926 23.6376C30.7618 23.6062 30.5763 23.6189 30.3694 23.6758C30.1629 23.7292 29.9362 23.8108 29.6891 23.9206L28.9026 24.2672C28.3335 24.5184 27.8141 24.6289 27.3446 24.5985C26.8754 24.5649 26.4788 24.3422 26.1546 23.9306C25.8878 23.592 25.7459 23.2232 25.7289 22.8244C25.7137 22.424 25.8099 22.0285 26.0174 21.6376C26.2234 21.2449 26.5276 20.8901 26.9298 20.5733C27.3377 20.252 27.751 20.0417 28.1699 19.9422C28.5891 19.8394 28.9854 19.844 29.3587 19.9562C29.7306 20.0665 30.0468 20.2813 30.3073 20.6005L29.3055 21.3897Z" fill="white"/>
<path d="M58.3102 50.4033C58.129 50.671 57.8981 50.8642 57.6174 50.9827C57.3367 51.1011 57.0238 51.1332 56.6789 51.0789C56.334 51.0245 55.9744 50.8707 55.6001 50.6175C55.2213 50.3613 54.9438 50.083 54.7675 49.7825C54.5907 49.4796 54.5078 49.1766 54.5188 48.8735C54.5282 48.5694 54.6216 48.2864 54.7987 48.0245C54.9338 47.8248 55.0789 47.6836 55.2341 47.6009C55.3877 47.5173 55.5374 47.4697 55.6831 47.4583C55.8274 47.4459 55.955 47.447 56.0658 47.4617L56.0883 47.4284L54.3885 46.2784L54.9334 45.4728L59.4783 48.5474L58.9438 49.3375L58.4068 48.9742L58.3738 49.023C58.4286 49.1205 58.4761 49.2399 58.5163 49.3814C58.5549 49.5219 58.5633 49.6785 58.5413 49.8512C58.5193 50.024 58.4423 50.208 58.3102 50.4033ZM57.8027 49.7333C57.9178 49.5631 57.97 49.3871 57.9594 49.2052C57.9472 49.0223 57.8793 48.8438 57.7557 48.6695C57.632 48.4953 57.4599 48.3336 57.2395 48.1845C57.0191 48.0354 56.8065 47.9368 56.6017 47.8889C56.3979 47.8394 56.2104 47.8441 56.0391 47.9029C55.8687 47.9602 55.725 48.0754 55.6079 48.2485C55.4868 48.4275 55.4324 48.6085 55.4445 48.7914C55.4566 48.9742 55.5243 49.1516 55.6475 49.3233C55.7707 49.4951 55.938 49.6525 56.1496 49.7956C56.3626 49.9397 56.5733 50.038 56.7815 50.0905C56.9892 50.1404 57.1817 50.138 57.3589 50.0832C57.5357 50.026 57.6836 49.9093 57.8027 49.7333Z" fill="white"/>
<path d="M55.3524 54.0059C55.0502 54.2869 54.7309 54.4667 54.3943 54.5455C54.0579 54.6217 53.7232 54.5988 53.3902 54.4767C53.056 54.3533 52.7423 54.134 52.4492 53.8187C52.1609 53.5087 51.9668 53.1819 51.8669 52.8382C51.767 52.4921 51.7628 52.1545 51.8544 51.8254C51.9448 51.4951 52.1339 51.1961 52.4217 50.9285C52.6075 50.7558 52.8107 50.6229 53.0315 50.5299C53.2524 50.4343 53.484 50.3896 53.7265 50.3959C53.9702 50.401 54.2181 50.4656 54.4701 50.5898C54.721 50.7127 54.9692 50.9063 55.2149 51.1705L55.4174 51.3883L52.947 53.6852L52.5018 53.2064L54.2914 51.5426C54.1636 51.4078 54.0216 51.3141 53.8656 51.2617C53.7083 51.2079 53.5494 51.1983 53.3889 51.2329C53.2297 51.2663 53.082 51.3463 52.946 51.4727C52.8008 51.6077 52.7061 51.7617 52.6619 51.9345C52.6164 52.106 52.6159 52.2772 52.6602 52.4482C52.7046 52.6166 52.7888 52.7688 52.9128 52.9048L53.3014 53.3227C53.4644 53.498 53.6363 53.6186 53.8171 53.6846C53.9968 53.7493 54.1752 53.7615 54.3523 53.7212C54.5282 53.6796 54.6934 53.587 54.8478 53.4435C54.9511 53.3474 55.0313 53.246 55.0882 53.1394C55.144 53.0315 55.1758 52.9202 55.1838 52.8055C55.1918 52.6907 55.1719 52.5763 55.1243 52.462L55.8568 51.92C55.9779 52.1342 56.0404 52.3614 56.0443 52.6017C56.0483 52.8395 55.9928 53.0788 55.8779 53.3198C55.7617 53.5595 55.5866 53.7882 55.3524 54.0059Z" fill="white"/>
<path d="M50.8253 57.3725L48.6313 53.8907L49.427 53.3893L49.7926 53.9696L49.8289 53.9468C49.7657 53.7058 49.7769 53.4823 49.8625 53.2764C49.9486 53.068 50.0914 52.9009 50.2909 52.7753C50.3363 52.7467 50.3883 52.7171 50.4471 52.6864C50.5064 52.6532 50.5574 52.6285 50.5999 52.6122L51.0755 53.3671C51.0332 53.3769 50.9713 53.4011 50.8901 53.4396C50.8093 53.4757 50.7342 53.5156 50.6647 53.5594C50.5151 53.6537 50.4011 53.7709 50.3226 53.9112C50.2448 54.0489 50.2075 54.1959 50.2109 54.3521C50.2144 54.5083 50.2627 54.6604 50.356 54.8085L51.6458 56.8554L50.8253 57.3725Z" fill="white"/>
<path d="M47.689 59.3482C47.3052 59.4996 46.9422 59.5505 46.6002 59.5011C46.2591 59.4493 45.9558 59.3058 45.6903 59.0706C45.4242 58.8338 45.2121 58.5152 45.0542 58.1147C44.899 57.7209 44.8375 57.3458 44.8698 56.9893C44.9031 56.6306 45.0224 56.3148 45.2277 56.0418C45.4324 55.7672 45.7176 55.5578 46.0831 55.4137C46.3191 55.3207 46.5568 55.2711 46.7964 55.265C47.0369 55.2566 47.2688 55.2995 47.4923 55.3938C47.7174 55.4875 47.9246 55.6381 48.1139 55.8457C48.3026 56.0516 48.4632 56.3224 48.5955 56.6581L48.7046 56.9348L45.5664 58.172L45.3267 57.5638L47.5999 56.6676C47.5301 56.4954 47.4321 56.3564 47.3059 56.2507C47.1791 56.1432 47.0346 56.0763 46.8726 56.05C46.7122 56.023 46.5455 56.0436 46.3727 56.1117C46.1883 56.1844 46.0439 56.2932 45.9397 56.4379C45.8349 56.581 45.7719 56.7403 45.7508 56.9156C45.7307 57.0887 45.7535 57.2611 45.8194 57.4329L46.0287 57.9638C46.1165 58.1865 46.2325 58.3615 46.3768 58.489C46.5205 58.6147 46.6821 58.6911 46.8618 58.7182C47.0408 58.7437 47.2283 58.7177 47.4244 58.6404C47.5557 58.5887 47.6673 58.5236 47.7592 58.4451C47.8505 58.3649 47.9208 58.2729 47.97 58.169C48.0193 58.0651 48.0426 57.9513 48.0399 57.8275L48.9197 57.5901C48.9543 57.8337 48.9296 58.0681 48.8456 58.2932C48.7626 58.5161 48.6236 58.7187 48.4286 58.9012C48.233 59.082 47.9865 59.231 47.689 59.3482Z" fill="white"/>
<path d="M43.306 56.2989L43.4565 57.0338L41.1389 57.5087L40.9883 56.7737L43.306 56.2989ZM41.3626 55.6906L42.3128 55.4959L43.0882 59.2808C43.1144 59.4086 43.1537 59.5026 43.2062 59.563C43.26 59.6212 43.3219 59.656 43.3916 59.6672C43.4614 59.6784 43.5356 59.676 43.6144 59.6599C43.6739 59.6477 43.7272 59.6322 43.7744 59.6134C43.8234 59.5943 43.8603 59.5785 43.8851 59.5661L44.1974 60.2761C44.1502 60.304 44.0815 60.3381 43.9914 60.3785C43.9029 60.4185 43.7917 60.454 43.6577 60.4852C43.4211 60.5409 43.1994 60.549 42.9925 60.5093C42.7853 60.4679 42.6085 60.3746 42.4621 60.2296C42.3174 60.0842 42.2202 59.8853 42.1703 59.633L41.3626 55.6906Z" fill="white"/>
<path d="M40.573 58.5846L39.6936 58.7179C39.6649 58.6297 39.6177 58.5477 39.5519 58.4718C39.4879 58.3958 39.4032 58.3359 39.2977 58.292C39.1922 58.2482 39.0644 58.2294 38.9145 58.2356C38.7129 58.2441 38.5452 58.2949 38.4114 58.3881C38.2794 58.4812 38.2172 58.5973 38.2249 58.7365C38.2281 58.8561 38.2759 58.9515 38.3682 59.0228C38.4624 59.0939 38.6149 59.1492 38.8257 59.1887L39.5333 59.3092C39.9259 59.3768 40.2206 59.4977 40.4173 59.6718C40.6159 59.8458 40.7223 60.08 40.7364 60.3744C40.7454 60.6333 40.6791 60.8649 40.5375 61.0693C40.3976 61.2718 40.1979 61.4339 39.9384 61.5556C39.6789 61.6773 39.3778 61.7453 39.0352 61.7596C38.5319 61.7807 38.1224 61.6923 37.8066 61.4946C37.4908 61.2951 37.2955 61.0074 37.2208 60.6315L38.1619 60.5009C38.2125 60.6847 38.3094 60.821 38.4526 60.9098C38.5957 60.9985 38.7788 61.0383 39.0019 61.0289C39.2321 61.0193 39.4149 60.9643 39.5501 60.8639C39.6871 60.7634 39.7527 60.6435 39.7469 60.5043C39.742 60.3865 39.6924 60.2912 39.5982 60.2183C39.5057 60.1453 39.3641 60.0922 39.1732 60.0591L38.4657 59.9412C38.0678 59.8756 37.7702 59.7495 37.5729 59.5629C37.3756 59.3745 37.2715 59.1303 37.2607 58.8304C37.2483 58.5771 37.3079 58.3547 37.4393 58.1633C37.5724 57.97 37.7618 57.8173 38.0074 57.7051C38.2547 57.5911 38.5425 57.5272 38.8709 57.5134C39.3528 57.4933 39.7363 57.58 40.0215 57.7737C40.3085 57.9673 40.4923 58.2376 40.573 58.5846Z" fill="white"/>
<path d="M34.239 61.4991L34.7253 57.4126L35.6884 57.5272L35.2021 61.6137L34.239 61.4991ZM35.2785 56.8902C35.126 56.872 35.0007 56.8059 34.9028 56.6917C34.8051 56.5757 34.7648 56.4459 34.7819 56.3022C34.7992 56.1568 34.8688 56.0401 34.9908 55.9521C35.113 55.8623 35.2504 55.8264 35.4029 55.8446C35.5572 55.863 35.6824 55.93 35.7783 56.0458C35.8763 56.16 35.9166 56.2898 35.8993 56.4352C35.8822 56.5789 35.8125 56.6956 35.6903 56.7854C35.5701 56.8736 35.4328 56.9085 35.2785 56.8902Z" fill="white"/>
<path d="M29.9016 61.7194C29.5694 61.6147 29.2983 61.4796 29.0883 61.3141C28.8777 61.1503 28.7237 60.9706 28.6262 60.775C28.5286 60.5795 28.4805 60.3817 28.4818 60.1817L29.3784 60.2425C29.3917 60.331 29.4223 60.424 29.4702 60.5215C29.5176 60.6207 29.594 60.7141 29.6994 60.8016C29.8059 60.8914 29.952 60.9656 30.1377 61.0241C30.4 61.1068 30.6374 61.1114 30.8497 61.0379C31.0615 60.9661 31.2131 60.7854 31.3044 60.4958L31.5389 59.7523L31.4929 59.7378C31.4151 59.8181 31.3144 59.894 31.1907 59.9655C31.0687 60.0376 30.922 60.084 30.7506 60.1049C30.5809 60.1263 30.3837 60.1016 30.1588 60.0306C29.8573 59.9356 29.6062 59.7787 29.4054 59.5599C29.207 59.34 29.0799 59.0658 29.0243 58.7374C28.9709 58.4078 29.0116 58.0292 29.1464 57.6016C29.2823 57.1706 29.4686 56.8295 29.7051 56.5782C29.9439 56.3257 30.2102 56.1615 30.5038 56.0856C30.798 56.0079 31.0959 56.0166 31.3974 56.1117C31.6274 56.1842 31.8041 56.283 31.9276 56.4081C32.0533 56.532 32.1433 56.6625 32.1975 56.7994C32.2522 56.9347 32.2876 57.0573 32.3035 57.1672L32.3546 57.1833L32.5592 56.5343L33.4715 56.8219L32.2137 60.8107C32.1079 61.1463 31.9402 61.3987 31.7108 61.5679C31.4814 61.7372 31.2106 61.8326 30.8986 61.854C30.5865 61.8755 30.2542 61.8306 29.9016 61.7194ZM30.6457 59.3863C30.8416 59.4481 31.0236 59.4531 31.1917 59.4012C31.3597 59.3493 31.5077 59.2452 31.6357 59.0889C31.7636 58.9326 31.8671 58.7292 31.9461 58.4788C32.024 58.2318 32.0564 58.0042 32.0434 57.7959C32.0321 57.5882 31.9736 57.4115 31.8678 57.2658C31.7643 57.1189 31.6129 57.014 31.4136 56.9512C31.2075 56.8862 31.0185 56.8856 30.8467 56.9494C30.6749 57.0132 30.5245 57.1278 30.3955 57.2932C30.2671 57.4568 30.1656 57.657 30.0909 57.8938C30.0152 58.134 29.9838 58.3554 29.9967 58.558C30.0118 58.7594 30.0725 58.9322 30.1788 59.0762C30.2874 59.219 30.443 59.3224 30.6457 59.3863Z" fill="white"/>
<path d="M25.1945 57.7175C24.8391 57.508 24.5756 57.2532 24.4041 56.9532C24.2351 56.6525 24.1615 56.3251 24.1836 55.9711C24.2065 55.6156 24.3272 55.2524 24.5457 54.8815C24.7606 54.5168 25.0185 54.2375 25.3193 54.0436C25.6226 53.8492 25.945 53.7489 26.2865 53.7428C26.6289 53.7352 26.9694 53.8311 27.308 54.0306C27.5265 54.1594 27.7118 54.3163 27.864 54.5013C28.0187 54.6857 28.1275 54.895 28.1907 55.1292C28.2553 55.3642 28.2641 55.6203 28.217 55.8973C28.1708 56.1727 28.0561 56.4659 27.8729 56.7767L27.7219 57.033L24.8157 55.3205L25.1476 54.7572L27.2528 55.9978C27.3456 55.8368 27.3948 55.674 27.4006 55.5095C27.4072 55.3434 27.3711 55.1884 27.2921 55.0444C27.2147 54.9014 27.096 54.7827 26.9359 54.6884C26.7651 54.5877 26.5906 54.5409 26.4124 54.5478C26.235 54.5532 26.0708 54.6015 25.9195 54.6928C25.7708 54.7834 25.6489 54.9075 25.554 55.0651L25.2642 55.5568C25.1427 55.763 25.0762 55.9622 25.0645 56.1544C25.0538 56.345 25.093 56.5194 25.1822 56.6777C25.2722 56.8345 25.4081 56.9663 25.5897 57.0733C25.7112 57.145 25.8312 57.1929 25.9497 57.2171C26.069 57.2397 26.1848 57.2385 26.297 57.2134C26.4093 57.1883 26.5133 57.1366 26.6092 57.0584L27.3377 57.6058C27.167 57.783 26.967 57.9077 26.7378 57.98C26.5111 58.0517 26.2658 58.0668 26.0021 58.0254C25.7392 57.9824 25.47 57.8798 25.1945 57.7175Z" fill="white"/>
<path d="M19.7971 52.1615L23.7333 48.3385L25.1669 49.8146C25.4606 50.1169 25.6545 50.4217 25.7485 50.7287C25.8438 51.0371 25.8477 51.3359 25.7601 51.6251C25.675 51.9144 25.5069 52.181 25.2558 52.4249C25.0034 52.6701 24.732 52.8291 24.4417 52.9019C24.1539 52.9747 23.8586 52.9565 23.5557 52.8473C23.2542 52.7368 22.9566 52.5303 22.6629 52.228L21.6418 51.1766L22.2337 50.6017L23.1615 51.5569C23.3332 51.7337 23.4982 51.8549 23.6564 51.9203C23.8159 51.9846 23.9692 51.9975 24.1163 51.9592C24.2659 51.921 24.4105 51.8341 24.5502 51.6984C24.6898 51.5628 24.7823 51.4195 24.8274 51.2686C24.8738 51.1164 24.8679 50.959 24.8097 50.7965C24.7527 50.6327 24.6377 50.4618 24.4647 50.2837L23.83 49.6302L20.4897 52.8746L19.7971 52.1615ZM23.5557 52.4627L22.7185 55.1694L21.9457 54.3737L22.7997 51.6843L23.5557 52.4627Z" fill="white"/>
<g clip-path="url(#clip2_3295_15536)">
<path d="M20.8458 31.5694C20.6772 31.2278 20.1899 31.2278 20.0213 31.5694L19.2183 33.1967L17.4224 33.4575C17.0454 33.512 16.8946 33.9759 17.1677 34.2419L18.467 35.5084L18.1605 37.2964C18.0957 37.6724 18.4901 37.9588 18.8273 37.7814L20.4334 36.9368L22.0395 37.7814C22.3767 37.9585 22.771 37.6724 22.7067 37.2967L22.4002 35.5084L23.6994 34.2415C23.9719 33.9759 23.8217 33.5124 23.4443 33.4575L21.6492 33.1967L20.8455 31.5694H20.8458ZM16.743 31.8007C16.7007 31.8536 16.6812 31.9212 16.6888 31.9885C16.6963 32.0558 16.7303 32.1174 16.7832 32.1596L17.6346 32.8408C17.6607 32.8625 17.6909 32.8787 17.7234 32.8887C17.7558 32.8986 17.7899 32.9019 17.8237 32.8985C17.8575 32.895 17.8902 32.8849 17.92 32.8687C17.9499 32.8524 17.9761 32.8304 17.9973 32.8039C18.0186 32.7774 18.0343 32.747 18.0436 32.7143C18.0529 32.6817 18.0556 32.6475 18.0515 32.6138C18.0474 32.5801 18.0367 32.5475 18.0199 32.518C18.0031 32.4885 17.9806 32.4627 17.9537 32.442L17.1023 31.7608C17.0761 31.7398 17.046 31.7242 17.0138 31.7148C16.9815 31.7055 16.9478 31.7026 16.9144 31.7063C16.881 31.71 16.8487 31.7202 16.8193 31.7364C16.7899 31.7526 16.764 31.7744 16.743 31.8007ZM24.1238 36.7174C24.1661 36.6645 24.1857 36.597 24.1782 36.5297C24.1707 36.4624 24.1368 36.4008 24.0839 36.3585L23.2325 35.6773C23.1796 35.635 23.1121 35.6154 23.0447 35.6228C22.9774 35.6302 22.9158 35.6641 22.8734 35.717C22.831 35.7699 22.8114 35.8375 22.8188 35.9048C22.8263 35.9721 22.8602 36.0338 22.9131 36.0761L23.7645 36.7573C23.7907 36.7783 23.8208 36.7939 23.853 36.8033C23.8852 36.8126 23.919 36.8156 23.9524 36.8119C23.9858 36.8081 24.0181 36.7979 24.0475 36.7817C24.0769 36.7655 24.1028 36.7437 24.1238 36.7174ZM16.7832 36.3585C16.7563 36.3792 16.7338 36.405 16.717 36.4346C16.7002 36.4641 16.6895 36.4966 16.6854 36.5303C16.6814 36.564 16.6841 36.5982 16.6934 36.6308C16.7027 36.6635 16.7184 36.6939 16.7396 36.7205C16.7608 36.747 16.7871 36.769 16.8169 36.7852C16.8467 36.8014 16.8794 36.8116 16.9132 36.815C16.947 36.8184 16.9811 36.8151 17.0136 36.8052C17.046 36.7953 17.0762 36.779 17.1023 36.7573L17.9537 36.0761C18.0052 36.0334 18.0378 35.9721 18.0446 35.9055C18.0513 35.839 18.0317 35.7724 17.9899 35.7202C17.9481 35.6679 17.8874 35.6341 17.821 35.6261C17.7546 35.6181 17.6876 35.6365 17.6346 35.6773L16.7832 36.3585ZM24.1238 31.8003C24.1661 31.8532 24.1857 31.9207 24.1782 31.9881C24.1707 32.0554 24.1368 32.117 24.0839 32.1593L23.2325 32.8404C23.2063 32.8614 23.1763 32.877 23.1441 32.8864C23.1118 32.8957 23.0781 32.8986 23.0447 32.895C23.0114 32.8913 22.9791 32.8811 22.9497 32.8649C22.9203 32.8487 22.8944 32.8269 22.8734 32.8007C22.8524 32.7746 22.8368 32.7445 22.8274 32.7123C22.8181 32.6801 22.8152 32.6463 22.8188 32.613C22.8225 32.5796 22.8328 32.5473 22.8489 32.5179C22.8651 32.4885 22.8869 32.4626 22.9131 32.4416L23.7645 31.7605C23.7907 31.7395 23.8208 31.7239 23.853 31.7145C23.8852 31.7051 23.919 31.7022 23.9524 31.7059C23.9858 31.7096 24.0181 31.7199 24.0475 31.7361C24.0769 31.7523 24.1028 31.7741 24.1238 31.8003Z" fill="white"/>
</g>
<g clip-path="url(#clip3_3295_15536)">
<path d="M57.9415 31.5694C57.7729 31.2278 57.2856 31.2278 57.117 31.5694L56.314 33.1967L54.5181 33.4575C54.1411 33.512 53.9903 33.9759 54.2634 34.2419L55.5627 35.5084L55.2562 37.2964C55.1914 37.6724 55.5858 37.9588 55.923 37.7814L57.5291 36.9368L59.1352 37.7814C59.4724 37.9585 59.8668 37.6724 59.8024 37.2967L59.4959 35.5084L60.7951 34.2415C61.0676 33.9759 60.9174 33.5124 60.5401 33.4575L58.7449 33.1967L57.9412 31.5694H57.9415ZM53.8387 31.8007C53.7964 31.8536 53.7769 31.9212 53.7845 31.9885C53.792 32.0558 53.826 32.1174 53.8789 32.1596L54.7303 32.8408C54.7564 32.8625 54.7866 32.8787 54.8191 32.8887C54.8515 32.8986 54.8856 32.9019 54.9194 32.8985C54.9532 32.895 54.9859 32.8849 55.0157 32.8687C55.0456 32.8524 55.0718 32.8304 55.0931 32.8039C55.1143 32.7774 55.13 32.747 55.1393 32.7143C55.1486 32.6817 55.1513 32.6475 55.1472 32.6138C55.1431 32.5801 55.1324 32.5475 55.1156 32.518C55.0988 32.4885 55.0763 32.4627 55.0494 32.442L54.198 31.7608C54.1718 31.7398 54.1417 31.7242 54.1095 31.7148C54.0772 31.7055 54.0435 31.7026 54.0101 31.7063C53.9767 31.71 53.9444 31.7202 53.915 31.7364C53.8856 31.7526 53.8597 31.7744 53.8387 31.8007ZM61.2195 36.7174C61.2618 36.6645 61.2814 36.597 61.2739 36.5297C61.2664 36.4624 61.2325 36.4008 61.1796 36.3585L60.3282 35.6773C60.2753 35.635 60.2078 35.6154 60.1404 35.6228C60.0731 35.6302 60.0115 35.6641 59.9691 35.717C59.9267 35.7699 59.9071 35.8375 59.9146 35.9048C59.922 35.9721 59.9559 36.0338 60.0088 36.0761L60.8602 36.7573C60.8864 36.7783 60.9165 36.7939 60.9487 36.8033C60.981 36.8126 61.0147 36.8156 61.0481 36.8119C61.0815 36.8081 61.1138 36.7979 61.1432 36.7817C61.1726 36.7655 61.1985 36.7437 61.2195 36.7174ZM53.8789 36.3585C53.852 36.3792 53.8295 36.405 53.8127 36.4346C53.7959 36.4641 53.7852 36.4966 53.7811 36.5303C53.7771 36.564 53.7798 36.5982 53.7891 36.6308C53.7984 36.6635 53.8141 36.6939 53.8353 36.7205C53.8565 36.747 53.8828 36.769 53.9126 36.7852C53.9424 36.8014 53.9751 36.8116 54.0089 36.815C54.0427 36.8184 54.0768 36.8151 54.1093 36.8052C54.1417 36.7953 54.1719 36.779 54.198 36.7573L55.0494 36.0761C55.1009 36.0334 55.1335 35.9721 55.1403 35.9055C55.147 35.839 55.1274 35.7724 55.0856 35.7202C55.0438 35.6679 54.9831 35.6341 54.9167 35.6261C54.8503 35.6181 54.7833 35.6365 54.7303 35.6773L53.8789 36.3585ZM61.2195 31.8003C61.2618 31.8532 61.2814 31.9207 61.2739 31.9881C61.2664 32.0554 61.2325 32.117 61.1796 32.1593L60.3282 32.8404C60.302 32.8614 60.272 32.877 60.2398 32.8864C60.2075 32.8957 60.1738 32.8986 60.1404 32.895C60.1071 32.8913 60.0748 32.8811 60.0454 32.8649C60.016 32.8487 59.9901 32.8269 59.9691 32.8007C59.9481 32.7746 59.9325 32.7445 59.9231 32.7123C59.9138 32.6801 59.9109 32.6463 59.9146 32.613C59.9182 32.5796 59.9285 32.5473 59.9446 32.5179C59.9608 32.4885 59.9826 32.4626 60.0088 32.4416L60.8602 31.7605C60.8864 31.7395 60.9165 31.7239 60.9487 31.7145C60.981 31.7051 61.0147 31.7022 61.0481 31.7059C61.0815 31.7096 61.1138 31.7199 61.1432 31.7361C61.1726 31.7523 61.1985 31.7741 61.2195 31.8003Z" fill="white"/>
</g>
</g>
<defs>
<linearGradient id="paint0_linear_3295_15536" x1="8.18917" y1="6.54337" x2="63.0341" y2="77.8449" gradientUnits="userSpaceOnUse">
<stop stop-color="#3FADFF"/>
<stop offset="0.49489" stop-color="#336CDC"/>
<stop offset="1" stop-color="#47B4B4"/>
</linearGradient>
<clipPath id="clip0_3295_15536">
<rect width="77.9636" height="77.9636" fill="white" transform="translate(0 0.963867)"/>
</clipPath>
<clipPath id="clip1_3295_15536">
<rect width="13.8323" height="13.8323" fill="white" transform="translate(32.0654 33.0283)"/>
</clipPath>
<clipPath id="clip2_3295_15536">
<rect width="8.17361" height="8.17361" fill="white" transform="translate(16.3457 30.5134)"/>
</clipPath>
<clipPath id="clip3_3295_15536">
<rect width="8.17361" height="8.17361" fill="white" transform="translate(53.4434 30.5134)"/>
</clipPath>
</defs>
</svg>
