<svg width="56" height="57" viewBox="0 0 56 57" fill="none" xmlns="http://www.w3.org/2000/svg">
<g filter="url(#filter0_d_1551_3619)">
<path d="M26.1804 29.1207L21.8027 24.742L23.2616 23.2831L26.1804 26.2008L32.016 20.3643L33.4759 21.8242L26.1804 29.1207Z" fill="white"/>
<path fill-rule="evenodd" clip-rule="evenodd" d="M16.6426 24.6666C16.6426 18.3987 21.7239 13.3174 27.9918 13.3174C34.2596 13.3174 39.341 18.3987 39.341 24.6666C39.341 30.9344 34.2596 36.0158 27.9918 36.0158C21.7239 36.0158 16.6426 30.9344 16.6426 24.6666ZM27.9918 33.9523C26.7724 33.9523 25.5649 33.7121 24.4383 33.2455C23.3117 32.7788 22.2881 32.0948 21.4258 31.2326C20.5635 30.3703 19.8796 29.3467 19.4129 28.2201C18.9463 27.0935 18.7061 25.886 18.7061 24.6666C18.7061 23.4472 18.9463 22.2397 19.4129 21.1131C19.8796 19.9865 20.5635 18.9629 21.4258 18.1006C22.2881 17.2383 23.3117 16.5544 24.4383 16.0877C25.5649 15.6211 26.7724 15.3809 27.9918 15.3809C30.4545 15.3809 32.8164 16.3592 34.5578 18.1006C36.2992 19.842 37.2775 22.2039 37.2775 24.6666C37.2775 27.1293 36.2992 29.4912 34.5578 31.2326C32.8164 32.974 30.4545 33.9523 27.9918 33.9523Z" fill="white"/>
</g>
<defs>
<filter id="filter0_d_1551_3619" x="0.142578" y="0.817383" width="55.6982" height="55.6982" filterUnits="userSpaceOnUse" color-interpolation-filters="sRGB">
<feFlood flood-opacity="0" result="BackgroundImageFix"/>
<feColorMatrix in="SourceAlpha" type="matrix" values="0 0 0 0 0 0 0 0 0 0 0 0 0 0 0 0 0 0 127 0" result="hardAlpha"/>
<feOffset dy="4"/>
<feGaussianBlur stdDeviation="8.25"/>
<feComposite in2="hardAlpha" operator="out"/>
<feColorMatrix type="matrix" values="0 0 0 0 1 0 0 0 0 1 0 0 0 0 1 0 0 0 1 0"/>
<feBlend mode="normal" in2="BackgroundImageFix" result="effect1_dropShadow_1551_3619"/>
<feBlend mode="normal" in="SourceGraphic" in2="effect1_dropShadow_1551_3619" result="shape"/>
</filter>
</defs>
</svg>
