<svg width="22" height="21" viewBox="0 0 22 21" fill="none" xmlns="http://www.w3.org/2000/svg">
<mask id="mask0_3295_14162" style="mask-type:luminance" maskUnits="userSpaceOnUse" x="0" y="-1" width="22" height="22">
<path d="M21.5147 -0.00292969H0.668945V20.8428H21.5147V-0.00292969Z" fill="white"/>
</mask>
<g mask="url(#mask0_3295_14162)">
<path fill-rule="evenodd" clip-rule="evenodd" d="M15.7951 12.4889C15.5363 12.3595 14.2673 11.7358 14.031 11.649C13.7948 11.563 13.6228 11.5204 13.45 11.7792C13.278 12.0364 12.7837 12.6183 12.6335 12.7903C12.4824 12.9631 12.3321 12.9839 12.0742 12.8554C11.8161 12.7252 10.9841 12.4533 9.99831 11.5743C9.23132 10.8899 8.71278 10.0447 8.56252 9.78595C8.41226 9.52791 8.54601 9.38806 8.67544 9.25955C8.79182 9.14399 8.9334 8.95815 9.06282 8.80789C9.19223 8.65676 9.23479 8.54906 9.32079 8.37621C9.40764 8.20424 9.36421 8.05398 9.29907 7.92456C9.23479 7.79514 8.71886 6.52442 8.50346 6.00762C8.29414 5.50472 8.08134 5.57334 7.92325 5.56465C7.77212 5.5577 7.60015 5.55596 7.42817 5.55596C7.25619 5.55596 6.97651 5.62024 6.74026 5.87907C6.50314 6.13704 5.83694 6.76154 5.83694 8.03226C5.83694 9.30214 6.76111 10.5294 6.89052 10.7023C7.01994 10.8742 8.71018 13.4817 11.2994 14.5995C11.9161 14.8653 12.3964 15.0243 12.7708 15.1424C13.3892 15.3395 13.952 15.3118 14.3968 15.2449C14.8918 15.171 15.9237 14.6203 16.1391 14.0176C16.3536 13.4148 16.3536 12.898 16.2894 12.7903C16.225 12.6826 16.054 12.6183 15.7951 12.4889ZM11.0857 18.9189H11.0823C9.54438 18.9192 8.03475 18.5058 6.71159 17.722L6.39891 17.5362L3.14872 18.3891L4.01642 15.2205L3.81231 14.8957C2.95254 13.5271 2.49754 11.9432 2.4999 10.327C2.50163 5.59331 6.35287 1.74207 11.0892 1.74207C13.3822 1.74207 15.538 2.63669 17.1588 4.25919C17.9582 5.0553 18.5918 6.00203 19.023 7.04461C19.4541 8.08718 19.6743 9.20489 19.6707 10.3331C19.6689 15.0668 15.8177 18.9189 11.0857 18.9189ZM18.3922 3.02669C17.4352 2.06337 16.2965 1.29956 15.0422 0.779515C13.7878 0.25947 12.4427 -0.0064702 11.0848 -0.0028941C5.39224 -0.0028941 0.75754 4.63094 0.755802 10.3261C0.753165 12.1386 1.22863 13.9197 2.13423 15.4898L0.668945 20.8428L6.14442 19.4062C7.6591 20.2315 9.35648 20.6639 11.0814 20.6639H11.0857C16.7783 20.6639 21.4131 16.0301 21.4148 10.334C21.4189 8.97663 21.154 7.63194 20.6352 6.37766C20.1164 5.12338 19.354 3.98443 18.3922 3.02669Z" fill="white"/>
</g>
</svg>
