<svg width="27" height="28" viewBox="0 0 27 28" fill="none" xmlns="http://www.w3.org/2000/svg">
<path fill-rule="evenodd" clip-rule="evenodd" d="M20.1545 20.0459C20.5959 20.5513 21.3822 20.5603 21.7697 20.0144C23.271 17.8954 23.8992 15.2799 23.5241 12.7102C23.4275 12.0475 22.7221 11.6993 22.0999 11.9487L16.8826 14.0356C16.716 14.1024 16.5678 14.2082 16.4505 14.3441C16.3332 14.48 16.2502 14.642 16.2084 14.8165C16.1666 14.9911 16.1672 15.1732 16.2103 15.3474C16.2533 15.5217 16.3375 15.6831 16.4558 15.8181L20.1545 20.0459ZM21.7719 8.32972C22.1583 8.87672 21.8876 9.61467 21.2665 9.86402L16.184 11.897C16.0133 11.9652 15.8284 11.9905 15.6457 11.9706C15.4629 11.9507 15.2878 11.8862 15.1358 11.7829C14.9838 11.6795 14.8594 11.5404 14.7737 11.3778C14.6879 11.2152 14.6434 11.034 14.644 10.8502V5.38131C14.644 4.71075 15.2281 4.18509 15.8796 4.34234C18.2616 4.91379 20.355 6.33071 21.7708 8.32972" fill="#407AFF"/>
<path fill-rule="evenodd" clip-rule="evenodd" d="M12.3979 4.2374C12.3979 3.57246 11.8217 3.04793 11.1713 3.1872C9.5916 3.52539 8.10343 4.20036 6.80834 5.16607C5.51325 6.13178 4.44171 7.3655 3.66685 8.78305C2.89199 10.2006 2.43203 11.7686 2.31837 13.3801C2.2047 14.9916 2.44 16.6087 3.00821 18.121C3.57641 19.6332 4.46416 21.0052 5.61087 22.1431C6.75758 23.281 8.13628 24.1582 9.65288 24.7148C11.1695 25.2714 12.7883 25.4943 14.3989 25.3682C16.0095 25.2422 17.5739 24.7702 18.9855 23.9845C19.5662 23.661 19.6549 22.8871 19.218 22.3873L12.718 14.9573C12.5118 14.722 12.3981 14.4198 12.3979 14.107V4.2374Z" fill="#407AFF"/>
</svg>
