<svg width="20" height="20" viewBox="0 0 20 20" fill="none" xmlns="http://www.w3.org/2000/svg">
<path fill-rule="evenodd" clip-rule="evenodd" d="M5.16383 11.9757C5.32103 12.3239 5.35111 12.7163 5.24882 13.0844C5.14653 13.4525 4.91836 13.7731 4.60404 13.9903C4.28972 14.2076 3.90917 14.3077 3.52865 14.2732C3.14814 14.2387 2.79177 14.0719 2.5216 13.8017C2.25143 13.5315 2.08459 13.1752 2.05012 12.7946C2.01565 12.4141 2.11574 12.0336 2.33296 11.7193C2.55017 11.4049 2.87076 11.1768 3.23889 11.0745C3.60701 10.9722 3.99936 11.0023 4.34759 11.1595L6.26902 9.23805C6.15683 8.98942 6.10872 8.71664 6.12911 8.44464C6.14949 8.17263 6.2377 7.91007 6.38569 7.68093C6.53368 7.4518 6.73672 7.2634 6.97627 7.13294C7.21583 7.00249 7.48425 6.93414 7.75702 6.93414C8.02979 6.93414 8.29821 7.00249 8.53776 7.13294C8.77731 7.2634 8.98035 7.4518 9.12834 7.68093C9.27633 7.91007 9.36455 8.17263 9.38493 8.44464C9.40531 8.71664 9.35721 8.98942 9.24502 9.23805L11.1664 11.1595C11.3776 11.0641 11.6066 11.0149 11.8382 11.0149C12.0698 11.0149 12.2988 11.0641 12.51 11.1595L15.2476 8.42181C15.0904 8.07358 15.0603 7.68123 15.1626 7.31311C15.2649 6.94498 15.4931 6.62439 15.8074 6.40717C16.1217 6.18995 16.5023 6.08987 16.8828 6.12434C17.2633 6.15881 17.6197 6.32565 17.8899 6.59582C18.16 6.86599 18.3269 7.22236 18.3613 7.60287C18.3958 7.98339 18.2957 8.36394 18.0785 8.67826C17.8613 8.99258 17.5407 9.22075 17.1726 9.32304C16.8044 9.42532 16.4121 9.39525 16.0639 9.23805L13.3262 11.9757C13.4384 12.2243 13.4865 12.4971 13.4661 12.7691C13.4457 13.0411 13.3575 13.3037 13.2095 13.5328C13.0615 13.762 12.8585 13.9504 12.6189 14.0808C12.3794 14.2113 12.111 14.2796 11.8382 14.2796C11.5654 14.2796 11.297 14.2113 11.0575 14.0808C10.8179 13.9504 10.6149 13.762 10.4669 13.5328C10.3189 13.3037 10.2307 13.0411 10.2103 12.7691C10.1899 12.4971 10.238 12.2243 10.3502 11.9757L8.42878 10.0543C8.21766 10.1496 7.98866 10.1989 7.75702 10.1989C7.52537 10.1989 7.29638 10.1496 7.08525 10.0543L5.16383 11.9757Z" fill="#1F950C"/>
</svg>
