<svg width="42" height="40" viewBox="0 0 42 40" fill="none" xmlns="http://www.w3.org/2000/svg">
<path fill-rule="evenodd" clip-rule="evenodd" d="M5.24945 36.7863H10.7944L14.6446 29.0535L1.17331 2.32896L0 0H2.60735H11.8895H12.8673L13.3192 0.880408L18.1949 10.3914L15.153 16.6063L14.6098 10.4825L10.9118 3.2137H5.21469L16.4306 25.4668L28.6547 0.897756L29.098 0H30.0931H39.2058H41.7784L40.6485 2.30728L33.5739 16.7408L31.7662 13.1497L36.6332 3.2137H31.0883L27.3467 10.7254L40.8267 37.4585L42 39.7875H39.3927H30.1062H29.1284L28.6808 38.9071L23.8268 29.3701L26.8426 23.1725L27.4467 29.4091L31.0839 36.5738H36.7853L25.565 14.3164L13.2279 39.1022L12.7847 40H11.7896H2.67688H0.10429L1.23414 37.6927L8.30874 23.2592L10.1165 26.8503L5.24945 36.7863Z" fill="#407AFF"/>
</svg>
