<svg width="39" height="38" viewBox="0 0 39 38" fill="none" xmlns="http://www.w3.org/2000/svg">
<path fill-rule="evenodd" clip-rule="evenodd" d="M4.87449 34.619H10.0234L13.5986 27.4242L1.0895 2.55947L0 0.392578H2.42111H11.0403H11.9482L12.3678 1.21172L16.8953 10.0609L14.0707 15.8433L13.5663 10.1456L10.1323 3.38265H4.84221L15.257 24.0872L26.608 1.22786L27.0196 0.392578H27.9436H36.4054H38.7942L37.7451 2.53929L31.1758 15.9684L29.4972 12.6272L34.0166 3.38265H28.8677L25.3934 10.3716L37.9105 35.2444L39 37.4113H36.5789H27.9557H27.0478L26.6322 36.5922L22.1249 27.7188L24.9253 21.9525L25.4862 27.7551L28.8636 34.4212H34.1578L23.739 13.7127L12.2831 36.7738L11.8715 37.609H10.9474H2.48567H0.0968404L1.14599 35.4623L7.71526 22.0332L9.3939 25.3744L4.87449 34.619Z" fill="#184ABE"/>
</svg>
